<svg viewBox="0 0 221 126" xmlns="http://www.w3.org/2000/svg" fill-rule="evenodd" clip-rule="evenodd" stroke-linecap="round" stroke-linejoin="round" stroke-miterlimit="1.5"><path d="M483.067 212.387c6.916 3.48 19.652-6.297 22.541-8.806 6.704-5.526 17.963-4.638 16.296 4.789.173 2.531-.626 3.253-2.335 3.895-2.334.653-7.485 1.48-8.313-1.402-.846-3.492 3.006-4.972 3.972-2.584.894 2.532-1.463 1.571-1.527 1.672-.079.156.333.558 1.439.769 4.795-.255 4.978-1.66 4.334-5.559-.917-5.184-10.179-2.178-13.987 1.37a27.406 27.406 0 01-7.056 5.213c-7.439 3.826-14.59 3.176-15.296 2.177.116-.133.072-1.495-.068-1.534z" fill="#ceb899" stroke="#532d3b" stroke-width="1.44" transform="matrix(-.59749 .3569 -.35502 -.59433 404.079 39.276)"/><path d="M42.238 85.857c-5.864.214-10.755 11.358-11.758 14.079-2.435 6.118-10.238 9.639-12.572 2.768-1.04-1.618-.772-2.39.129-3.44 1.311-1.285 4.431-3.715 6.033-2.103 1.837 2.01-.181 4.4-1.695 3.166-1.518-1.355.398-1.577.404-1.668-.004-.132-.425-.249-1.237.015-3.091 1.92-2.7 2.92-.849 5.275 2.502 3.108 7.557-2.27 8.79-6.017 2.694-9.628 11.048-13.605 12.15-13.069-.029.13.498 1.02.605.994z" fill="#5b5149" stroke="#532d3b" stroke-width="1.0005072"/><path d="M43.947 86.775c-6.368 1.031-10.037 7.47-12.026 12.987-3.026 7.601-12.497 11.584-15.397 3.049-.066-.756-.846-2.666.797-4.36 1.63-1.596 4.646-4.139 6.636-2.136 2.282 2.498-.225 5.466-2.105 3.934-1.887-1.684.494-1.96.501-2.073-.005-.164-.528-.31-1.536.018-3.841 2.386-3.355 3.628-1.055 6.554 3.108 3.862 9.388-2.82 10.921-7.475 3.924-10.766 11.664-12.007 11.804-11.956.167-.095 1.762.856 1.46 1.458z" fill="#5b5149" stroke="#532d3b" stroke-width=".9981702"/><g><path d="M483.067 212.387c6.916 3.48 19.652-6.297 22.541-8.806 6.704-5.526 17.963-4.638 16.296 4.789.173 2.531-.626 3.253-2.335 3.895-2.334.653-7.485 1.48-8.313-1.402-.846-3.492 3.006-4.972 3.972-2.584.894 2.532-1.463 1.571-1.527 1.672-.079.156.333.558 1.439.769 4.795-.255 4.978-1.66 4.334-5.559-.917-5.184-10.179-2.178-13.987 1.37-9.233 9.421-21.419 8.71-22.352 7.39.116-.133.072-1.495-.068-1.534z" fill="#ceb899" stroke="#532d3b" stroke-width=".91" transform="matrix(-.95026 .56763 -.56463 -.94524 628.34 4.691)"/><path d="M52.855 78.776c-9.327.339-17.104 18.063-18.7 22.39-3.873 9.731-16.283 15.33-19.996 4.404-1.652-2.574-1.227-3.8.205-5.471 2.087-2.045 7.048-5.91 9.597-3.346 2.92 3.198-.29 6.998-2.696 5.036-2.415-2.155.633-2.509.642-2.653-.007-.21-.676-.396-1.967.024-4.917 3.053-4.295 4.644-1.35 8.389 3.978 4.944 12.018-3.61 13.98-9.569 4.284-15.314 17.57-21.638 19.323-20.786-.045.208.792 1.622.962 1.582z" fill="#532d3b" stroke="#532d3b" stroke-width="1.0005484"/><path d="M55.574 80.235c-10.129 1.64-15.964 11.88-19.127 20.656-4.812 12.089-19.876 18.423-24.489 4.848-.104-1.202-1.344-4.24 1.269-6.933 2.593-2.54 7.388-6.584 10.554-3.398 3.63 3.972-.358 8.694-3.349 6.256-3-2.678.787-3.117.798-3.296-.009-.261-.84-.492-2.443.029-6.11 3.794-5.336 5.77-1.678 10.423 4.943 6.142 14.93-4.485 17.369-11.888 6.24-17.122 18.55-19.096 18.774-19.016.265-.151 2.802 1.362 2.322 2.32z" fill="#5b5149" stroke="#532d3b" stroke-width="1.0034322"/></g><g><path d="M483.067 212.387c6.916 3.48 19.652-6.297 22.541-8.806 6.704-5.526 17.963-4.638 16.296 4.789.173 2.531-.626 3.253-2.335 3.895-2.334.653-7.485 1.48-8.313-1.402-.846-3.492 3.006-4.972 3.972-2.584.894 2.532-1.463 1.571-1.527 1.672-.079.156.333.558 1.439.769 4.795-.255 4.978-1.66 4.334-5.559-.917-5.184-10.179-2.178-13.987 1.37-9.233 9.421-21.419 8.71-22.352 7.39.116-.133.072-1.495-.068-1.534z" fill="#5b5149" stroke="#532d3b" stroke-width=".46" transform="matrix(-1.87577 1.12048 -1.11455 -1.86585 1218.35 -89.163)"/><path d="M82.377 57.075c-18.411.67-33.764 35.656-36.913 44.2-7.646 19.207-32.143 30.26-39.471 8.69-3.262-5.08-2.423-7.5.405-10.798C10.516 95.13 20.31 87.5 25.34 92.562c5.767 6.313-.57 13.814-5.321 9.941-4.767-4.255 1.25-4.953 1.268-5.236-.014-.416-1.334-.782-3.883.045-9.706 6.028-8.478 9.167-2.666 16.56 7.854 9.76 23.723-7.125 27.597-18.888 8.456-30.229 34.683-42.713 38.142-41.03-.09.41 1.563 3.2 1.9 3.121z" fill="#c8b273" stroke="#532d3b" stroke-width=".9994152000000001"/><path d="M87.743 59.957c-19.993 3.236-31.512 23.45-37.755 40.772-9.5 23.863-39.235 36.368-48.34 9.57-.205-2.373-2.653-8.368 2.504-13.685 5.118-5.013 14.585-12.996 20.834-6.708 7.164 7.842-.708 17.162-6.611 12.35-5.922-5.286 1.553-6.153 1.575-6.506-.017-.516-1.657-.971-4.823.057-12.06 7.489-10.533 11.39-3.313 20.574 9.758 12.124 29.473-8.852 34.287-23.467C58.418 59.116 82.717 55.22 83.159 55.38c.524-.299 5.532 2.687 4.584 4.578z" fill="#c8b273" stroke="#532d3b" stroke-width="1.0051454000000002"/></g><g><path d="M483.067 212.387c6.916 3.48 19.652-6.297 22.541-8.806 6.704-5.526 17.963-4.638 16.296 4.789.173 2.531-.626 3.253-2.335 3.895-2.334.653-7.485 1.48-8.313-1.402-.846-3.492 3.006-4.972 3.972-2.584.894 2.532-1.463 1.571-1.527 1.672-.079.156.333.558 1.439.769 4.795-.255 4.978-1.66 4.334-5.559-.917-5.184-10.179-2.178-13.987 1.37-9.233 9.421-21.419 8.71-22.352 7.39.116-.133.072-1.495-.068-1.534z" fill="#cdb798" stroke="#532d3b" stroke-width="1.44" transform="matrix(.59777 .35643 .35454 -.59461 -183.626 39.56)"/><path d="M178.251 85.854c5.865.209 10.764 11.349 11.77 14.07 2.44 6.115 10.245 9.63 12.574 2.758 1.038-1.62.77-2.39-.132-3.44-1.312-1.285-4.434-3.712-6.035-2.099-1.835 2.012.185 4.4 1.698 3.165 1.517-1.356-.4-1.577-.406-1.668.005-.132.425-.249 1.237.014 3.094 1.918 2.703 2.918.854 5.274-2.5 3.11-7.559-2.263-8.796-6.01-2.7-9.626-11.058-13.596-12.16-13.059.03.13-.496 1.02-.604.995z" fill="#cdb798" stroke="#532d3b" stroke-width="1.0005072"/><path d="M176.543 86.773c6.369 1.026 10.043 7.461 12.036 12.978 3.032 7.598 12.507 11.574 15.4 3.036.065-.756.843-2.666-.8-4.359-1.632-1.595-4.65-4.136-6.639-2.131-2.28 2.5.23 5.466 2.11 3.932 1.884-1.685-.497-1.96-.504-2.072.005-.164.527-.31 1.536.017 3.843 2.382 3.358 3.625 1.06 6.552-3.105 3.865-9.39-2.812-10.927-7.466-3.932-10.762-11.673-11.997-11.813-11.946-.167-.095-1.762.857-1.46 1.46z" fill="#5b5149" stroke="#532d3b" stroke-width=".9981702"/><g><path d="M483.067 212.387c6.916 3.48 19.652-6.297 22.541-8.806 6.704-5.526 17.963-4.638 16.296 4.789.173 2.531-.626 3.253-2.335 3.895-2.334.653-7.485 1.48-8.313-1.402-.846-3.492 3.006-4.972 3.972-2.584.894 2.532-1.463 1.571-1.527 1.672-.079.156.333.558 1.439.769 4.795-.255 4.978-1.66 4.334-5.559-.917-5.184-10.179-2.178-13.987 1.37-9.233 9.421-21.419 8.71-22.352 7.39.116-.133.072-1.495-.068-1.534z" fill="#cdb798" stroke="#532d3b" stroke-width=".91" transform="matrix(.95071 .56688 .56388 -.94569 -407.914 5.155)"/><path d="M167.628 78.78c9.327.333 17.12 18.05 18.718 22.377 3.881 9.727 16.296 15.317 20 4.387 1.65-2.575 1.224-3.801-.21-5.47-2.088-2.044-7.052-5.905-9.599-3.339-2.918 3.2.295 6.998 2.7 5.034 2.413-2.157-.635-2.508-.644-2.652.007-.21.675-.397 1.966.021 4.92 3.05 4.3 4.641 1.358 8.389-3.975 4.947-12.021-3.6-13.989-9.558a32.962 32.962 0 00-5.754-11.416c-5.49-7.042-12.36-9.951-13.584-9.354.045.208-.791 1.622-.962 1.582z" fill="#532d3b" stroke="#532d3b" stroke-width="1.0005484"/><path d="M164.91 80.243c10.13 1.631 15.974 11.866 19.144 20.64 4.822 12.085 19.891 18.408 24.493 4.829.103-1.203 1.34-4.241-1.274-6.933-2.595-2.537-7.394-6.577-10.557-3.39-3.627 3.976.365 8.694 3.354 6.255 2.998-2.681-.79-3.117-.8-3.296.008-.262.838-.493 2.443.027 6.112 3.789 5.34 5.766 1.686 10.421-4.938 6.147-14.934-4.472-17.379-11.874-6.253-17.117-18.565-19.081-18.789-19-.265-.151-2.801 1.363-2.32 2.32z" fill="#5b5149" stroke="#532d3b" stroke-width="1.0034322"/></g><g><path d="M483.067 212.387c6.916 3.48 19.652-6.297 22.541-8.806 6.704-5.526 17.963-4.638 16.296 4.789.173 2.531-.626 3.253-2.335 3.895-2.334.653-7.485 1.48-8.313-1.402-.846-3.492 3.006-4.972 3.972-2.584.894 2.532-1.463 1.571-1.527 1.672-.079.156.333.558 1.439.769 4.795-.255 4.978-1.66 4.334-5.559-.917-5.184-10.179-2.178-13.987 1.37-9.233 9.421-21.419 8.71-22.352 7.39.116-.133.072-1.495-.068-1.534z" fill="#5b5149" stroke="#532d3b" stroke-width=".46" transform="matrix(1.87666 1.11898 1.11307 -1.86673 -998 -88.23)"/><path d="M138.09 57.104c18.411.655 33.792 35.629 36.947 44.17 7.662 19.2 32.167 30.234 39.479 8.66 3.257-5.083 2.417-7.504-.414-10.8-4.122-4.033-13.921-11.653-18.947-6.588-5.762 6.316.58 13.813 5.329 9.936 4.763-4.259-1.254-4.952-1.272-5.236.014-.415 1.333-.783 3.882.043 9.712 6.02 8.485 9.16 2.68 16.558-7.847 9.765-23.73-7.106-27.613-18.866-8.48-30.222-34.717-42.686-38.174-41 .09.41-1.56 3.202-1.897 3.123z" fill="#c8b273" stroke="#532d3b" stroke-width=".9994152000000001"/><path d="M132.726 59.99c19.995 3.22 31.53 23.424 37.787 40.742 9.519 23.855 39.264 36.336 48.348 9.532.203-2.374 2.646-8.37-2.515-13.684-5.122-5.008-14.595-12.984-20.84-6.691-7.157 7.848.722 17.161 6.621 12.345 5.918-5.291-1.558-6.152-1.58-6.505.017-.516 1.657-.973 4.823.053 12.066 7.48 10.542 11.38 3.33 20.571-9.749 12.133-29.48-8.828-34.306-23.439-12.344-33.788-36.646-37.665-37.088-37.506-.524-.298-5.53 2.692-4.58 4.582z" fill="#c8b273" stroke="#532d3b" stroke-width="1.0051454000000002"/></g></g><g><path d="M109.836 17.065c.329-.092.623-.466 1.005-1.112.19-.316.5-.69.897-1.095.679-.542 1.38-1.09 1.993-1.732 2.32-1.77 5.378-3.417 7.11-3.065 2.056 4.049-.39 6.445.738 6.995.66.57 3.897-1.322 2.954-.055.164 2.054-2.75 5.929-5.106 5.656-3.203-.546-3.94 2.363-3.912 2.82-.566 1.766 1.456 3.944 1.456 3.944s.178-4.72 2.585-4.778c1.824-.036 1.487 1.169 1.936 1.603 1.215.995 3.949-1.788 3.949-1.788s-.247 4.33-.21 4.863c3.08 1.71-.098 5.703-1.751 3.242-3.508-3.028-7.445 3.194-6.581 5.335 2.227-1.468 3.624-3.826 3.624-3.826s-.63 1.955 3.62 3.41c.669.553-.264-.681 1.001-1.477.393-.254 1.385-.314 1.933.24 5.197 6.002 10.241 20.105 8.436 30.457-2.191 13.051-15.574 18.849-24.32 19.51v.008l-.076-.002-.077.005v-.008c-8.766-.337-22.352-5.635-25.025-18.596-2.189-10.278 2.332-24.559 7.3-30.75.556-.638 1.44-1.17 2.342-.429.954.993.002 2.124.638 1.558 4.192-1.611 3.492-3.542 3.492-3.542s1.482 2.305 3.763 3.689c.782-2.171-3.382-8.243-6.774-5.087-1.561 2.52-4.885-1.352-1.872-3.175.02-.535-.389-4.852-.389-4.852s2.836 2.68 4.012 1.64c.434-.45.053-1.641 1.876-1.674 2.407-.031 2.76 4.68 2.76 4.68s1.941-2.252 1.308-3.995c.011-.459-.832-3.338-4.013-2.674-2.344.36-5.398-3.404-5.312-5.463-.989-1.231 2.317.54 2.956-.055 1.105-.591-1.428-2.894.478-7.017 1.717-.416 4.835 1.118 7.22 2.8.633.618 1.356 1.14 2.055 1.657.41.39.733.753.937 1.06.405.632.713.995 1.044 1.075zm-.29-15.72c1.81-.255 4.272 4.455 5.808 5.814.51 2.913-.363 4.64-1.623 5.967a18.485 18.485 0 00-1.993 1.732c-.67.533-1.316 1.061-1.835 1.668l.004.18-.079-.09c-.026.03-.05.062-.075.092l-.003-.179c-.54-.587-1.208-1.091-1.895-1.6a18.627 18.627 0 00-2.056-1.656c-1.309-1.279-2.245-2.973-1.844-5.903 1.485-1.415 3.77-6.213 5.59-6.025z" fill="#c8b273" stroke="#532d3b" stroke-width=".9021167999999999"/><path d="M110.676 95.948l-.09-.003c-1.865-.582-5.468-2.19-2.808-3.65.37-.103.508-1.18.196-1.01-.706.673-.952 1.96-2.614.925-.089-.484 2.718-5.696.02-4.836-.036.643 1.093 3.744-2.73 3.805-.145-1.07.029-1.97-.113-1.983-.02-.001-1.037 2.414-4.77.467 6.531-2.143 4.848-4.436 6.721-5.954l6.19.098v.002l5.954-.316c1.93 1.448.332 3.801 6.938 5.7-3.658 2.085-4.765-.291-4.783-.29-.142.02.064.914-.04 1.987-3.822.08-2.811-3.06-2.869-3.7-2.728-.761.27 4.344.2 4.83-1.624 1.097-1.918-.18-2.648-.826-.318-.16-.14.912.233 1.003 2.713 1.359-.828 3.099-2.671 3.75-.105.01-.21.013-.316.009v-.008z" fill="#c8b273" stroke="#532d3b" stroke-width=".9021167999999999"/><path d="M125.508 39.54c3.304-1.89 6.928 3.227 8.331 8.737 2.281 7.801 4.859 21.31-4.793 30.218-1.336-.027-2.335-3.08-2.262-2.867 3.658-2.702 7.783-8.572 4.487-11.318-4.786-3.9-.803-7.37 2.308-2.426.306-5.988-1.347-11.924-3.736-14.989-.627 1.096-4.917 1.384-6.191.396-1.232-.744-2.843-4.382 1.856-7.752zM94.998 39.54c-3.304-1.89-6.928 3.227-8.331 8.737-2.281 7.801-4.859 21.31 4.793 30.218 2.876-.465 2.299-2.322 2.262-2.867-3.658-2.702-7.783-8.572-4.487-11.318 4.786-3.9.803-7.37-2.308-2.426-.306-5.988 1.347-11.924 3.736-14.989.627 1.096 4.917 1.384 6.191.396 1.233-.744 2.843-4.382-1.856-7.752z" fill="#5b5149" stroke="#532d3b" stroke-width="1.0066698"/><path d="M128.045 322.095c.646-.558 1.476-.947 3.024-.81 2.861.36 6.201 3.116 6.069 7.047l.001.001h-.001c-.054.742-.353 1.438-.958 2.06-2.285 2.232-4.486-.157-4.626-2.212.57-2.343 1.613-.387 2.466-.366.411.042.547-.932-.511-1.874-1.608-1.359-3.045-2.09-3.022-1.534-.031.853 1.859 2.012-.514 2.439-2.044-.264-4.295-2.606-1.928-4.751z" fill="#c8b273" stroke="#532d3b" stroke-width=".68" transform="matrix(-1.47888 0 0 1.47888 318.862 -403.635)"/><ellipse cx="133.379" cy="81.683" rx="8.451" ry="11.258" fill="#c8b273" stroke="#532d3b" stroke-width=".6" transform="matrix(.32776 0 0 .33936 66.952 54.745)"/><ellipse cx="133.379" cy="81.683" rx="8.451" ry="11.258" fill="#c8b273" stroke="#532d3b" stroke-width=".17" transform="matrix(.28616 0 0 .2963 72.5 58.263)"/><ellipse cx="133.379" cy="81.683" rx="8.451" ry="11.258" fill="#403f6f" transform="matrix(.2467 0 0 .25543 77.765 61.601)"/><path d="M108.584 82.465c0-3.57 3.706-3.68 3.706-.11 0 .741-.302 2.695-1.747 2.71-1.445 0-1.972-1.444-1.959-2.6z" fill="#532d3b"/><path d="M128.045 322.095c.646-.558 1.476-.947 3.024-.81 2.861.36 6.201 3.116 6.069 7.047l.001.001h-.001c-.054.742-.353 1.438-.958 2.06-2.285 2.232-4.486-.157-4.626-2.212.57-2.343 1.613-.387 2.466-.366.411.042.547-.932-.511-1.874-1.608-1.359-3.045-2.09-3.022-1.534-.031.853 1.859 2.012-.514 2.439-2.044-.264-4.295-2.606-1.928-4.751z" fill="#c8b273" stroke="#532d3b" stroke-width=".68" transform="matrix(1.47888 0 0 1.47888 -98.699 -403.635)"/><path d="M368.358 143.989c-.004-.209.023-.422.023-.522 0 0 .593-.163.889-.638.47-.865 1.369-1.234 2.247-1.183.902-.077 1.84.288 2.323 1.178.296.474.889.638.889.638 0 .101.027.316.023.527.004.211-.023.426-.023.527 0 0-.593.164-.889.638-.483.891-1.421 1.256-2.323 1.179-.878.05-1.777-.319-2.247-1.184-.296-.474-.889-.638-.889-.638 0-.1-.027-.313-.023-.522z" fill="#5b5149" stroke="#532d3b" stroke-width=".36" transform="matrix(1.47888 0 0 3.16375 -439.162 -400.96)"/><path d="M114.987 298.08c-4.775-.833-7.767-6.046-6.518-13.032.274-1.53.868-2.228 1.576-2.705 1.351-.798 2.856-1.178 3.736-.554 1.323.93 2.176 1.844.787 3.088-1.374 1.318-2.087-.03-2.934.43-2.915 1.598.457 10.989 2.962 9.433.264-.562 1.977-1.828 3.429-.412.629.603.795 1.176.445 2.081-.441 1.584-1.936 1.949-3.483 1.671z" fill="#5b5149" stroke="#532d3b" stroke-width=".78" transform="matrix(-1.28678 0 0 1.2801 264.893 -311.969)"/><path d="M114.987 298.08c-4.775-.833-7.767-6.046-6.518-13.032.274-1.53.868-2.228 1.576-2.705 1.351-.798 2.856-1.178 3.736-.554 1.323.93 2.176 1.844.787 3.088-1.374 1.318-2.087-.03-2.934.43-2.915 1.598.457 10.989 2.962 9.433.264-.562 1.977-1.828 3.429-.412.629.603.795 1.176.445 2.081-.441 1.584-1.936 1.949-3.483 1.671z" fill="#5b5149" stroke="#532d3b" stroke-width=".78" transform="matrix(1.28678 0 0 1.2801 -43.553 -311.969)"/><path d="M128.045 322.095c.646-.558 1.476-.947 3.024-.81 2.861.36 6.201 3.116 6.069 7.047l.001.001h-.001c-.054.742-.353 1.438-.958 2.06-2.285 2.232-4.486-.157-4.626-2.212.57-2.343 1.613-.387 2.466-.366.411.042.547-.932-.511-1.874-1.608-1.359-3.045-2.09-3.022-1.534-.031.853 1.859 2.012-.514 2.439-2.044-.264-4.295-2.606-1.928-4.751z" fill="#5b5149" stroke="#532d3b" stroke-width=".67" transform="matrix(1.06864 -1.0321 1.03423 1.07085 -368.362 -169.733)"/><circle cx="161.748" cy="297.032" r="1.079" fill="#5b5149" stroke="#532d3b" stroke-width=".48" transform="matrix(.6285 0 0 .61367 8.044 -163.081)"/><circle cx="161.748" cy="297.032" r="1.079" fill="#5b5149" stroke="#532d3b" stroke-width=".48" transform="matrix(.6285 0 0 .61367 8.044 -164.56)"/><g transform="matrix(.6285 0 0 .61367 8.044 -166.039)"><circle cx="161.748" cy="297.032" r="1.079" fill="#5b5149" stroke="#532d3b" stroke-width=".48"/></g><g transform="matrix(.77013 0 0 .75196 -14.864 -208.743)"><circle cx="161.748" cy="297.032" r="1.079" fill="#5b5149" stroke="#532d3b" stroke-width=".39"/></g><g transform="matrix(.95532 0 0 .93277 -44.817 -264.29)"><circle cx="161.748" cy="297.032" r="1.079" fill="#5b5149" stroke="#532d3b" stroke-width=".32"/></g><g transform="matrix(1.12183 0 0 1.09535 -71.75 -314.985)"><circle cx="161.748" cy="297.032" r="1.079" fill="#5b5149" stroke="#532d3b" stroke-width=".27"/></g></g><g><path d="M483.067 212.387c6.916 3.48 19.652-6.297 22.541-8.806 6.704-5.526 17.963-4.638 16.296 4.789.173 2.531-.626 3.253-2.335 3.895-2.334.653-7.485 1.48-8.313-1.402-.846-3.492 3.006-4.972 3.972-2.584.894 2.532-1.463 1.571-1.527 1.672-.079.156.333.558 1.439.769 4.795-.255 4.978-1.66 4.334-5.559-.917-5.184-10.179-2.178-13.987 1.37-9.233 9.421-21.419 8.71-22.352 7.39.116-.133.072-1.495-.068-1.534z" fill="#532d3b" stroke="#532d3b" stroke-width="1.26" transform="matrix(-.7317 -.31306 .3114 -.72784 392.062 367.555)"/><path d="M105.837 64.034c-4.138-5.283-17.736-2.32-20.928-1.42-7.297 1.857-15.798-2.998-11.009-9.774.8-2.048 1.692-2.32 3.27-2.192 2.07.35 6.415 1.604 6 4.17-.626 3.05-4.193 2.788-4.069.56.234-2.316 1.728-.692 1.815-.748.12-.093-.055-.56-.844-1.134-3.854-1.571-4.517-.537-5.452 2.758-.064.233-.1.457-.112.671-.209 3.839 7.516 4.724 11.586 3.42 10.72-3.977 20.012 1.081 20.256 2.461-.14.062-.609 1.146-.513 1.228z" fill="#532d3b" stroke="#532d3b" stroke-width=".9967625"/><path d="M106.136 66.232c-5.233-5.2-13.656-4.269-20.098-2.401-9.066 2.307-19.116-3.781-13.166-12.2.655-.568 1.898-2.573 4.57-2.191 2.572.436 6.951 1.518 6.435 4.705-.778 3.79-5.21 3.464-5.055.695.291-2.877 2.146-.86 2.255-.928.148-.116-.068-.697-1.049-1.41-4.788-1.952-5.611-.667-6.773 3.427-1.485 5.471 8.917 6.792 14.255 5.083 12.597-3.603 18.946 2.725 18.994 2.89.2.09.392 2.205-.368 2.33z" fill="#532d3b" stroke="#532d3b" stroke-width="1.0014519"/><g><path d="M483.067 212.387c6.916 3.48 19.652-6.297 22.541-8.806 6.704-5.526 17.963-4.638 16.296 4.789.173 2.531-.626 3.253-2.335 3.895-2.334.653-7.485 1.48-8.313-1.402-.846-3.492 3.006-4.972 3.972-2.584.894 2.532-1.463 1.571-1.527 1.672-.079.156.333.558 1.439.769 4.795-.255 4.978-1.66 4.334-5.559-.917-5.184-10.179-2.178-13.987 1.37-9.233 9.421-21.419 8.71-22.352 7.39.116-.133.072-1.495-.068-1.534z" fill="#ceb899" stroke="#532d3b" stroke-width=".79" transform="matrix(-1.16373 -.4979 .49527 -1.15758 574.746 551.83)"/><path d="M119.523 69.1c-6.58-8.402-28.207-3.69-33.283-2.258-11.607 2.954-25.126-4.767-17.51-15.544 1.271-3.258 2.692-3.69 5.2-3.486 3.294.556 10.204 2.55 9.544 6.631-.997 4.852-6.67 4.435-6.472.89.373-3.683 2.748-1.1 2.887-1.189.19-.148-.088-.891-1.343-1.804-6.13-2.499-7.183-.854-8.67 4.387-.25.916-.239 1.742-.014 2.479 1.485 4.902 12.322 5.93 18.261 4.028 17.049-6.325 31.828 1.72 32.217 3.914-.223.097-.968 1.822-.817 1.953z" fill="#ceb899" stroke="#532d3b" stroke-width="1.0063122999999998"/><path d="M120 72.597c-8.323-8.27-21.72-6.79-31.965-3.82-14.42 3.67-30.403-6.013-20.94-19.402 1.042-.904 3.02-4.093 7.267-3.485 4.092.693 11.057 2.413 10.236 7.483-1.237 6.028-8.286 5.51-8.04 1.105.463-4.576 3.414-1.366 3.587-1.476.236-.184-.11-1.108-1.669-2.242-7.615-3.104-8.924-1.06-10.772 5.45-2.362 8.701 14.182 10.803 22.671 8.085 20.036-5.73 30.134 4.334 30.21 4.595.318.144.623 3.508-.586 3.707z" fill="#ceb899" stroke="#532d3b" stroke-width=".9933254"/></g><g><path d="M483.067 212.387c6.916 3.48 19.652-6.297 22.541-8.806 6.704-5.526 17.963-4.638 16.296 4.789.173 2.531-.626 3.253-2.335 3.895-2.334.653-7.485 1.48-8.313-1.402-.846-3.492 3.006-4.972 3.972-2.584.894 2.532-1.463 1.571-1.527 1.672-.079.156.333.558 1.439.769 4.795-.255 4.978-1.66 4.334-5.559-.917-5.184-10.179-2.178-13.987 1.37-9.233 9.421-21.419 8.71-22.352 7.39.116-.133.072-1.495-.068-1.534z" fill="#5b5149" stroke="#532d3b" stroke-width=".4" transform="matrix(-2.29714 -.98283 .97763 -2.285 1058.023 1034.718)"/><path d="M159.44 81.837c-12.99-16.585-55.68-7.284-65.7-4.458-22.911 5.83-49.598-9.41-34.564-30.684 2.509-6.431 5.313-7.282 10.264-6.881 6.503 1.099 20.142 5.035 18.839 13.09-1.966 9.577-13.165 8.754-12.774 1.756.735-7.27 5.423-2.171 5.698-2.346.375-.292-.173-1.76-2.651-3.561-12.1-4.932-14.18-1.686-17.115 8.66-3.753 13.824 22.533 17.163 36.02 12.844 33.653-12.486 62.827 3.394 63.593 7.725-.44.193-1.91 3.597-1.61 3.855z" fill="#5b5149" stroke="#532d3b" stroke-width="1.0068107"/><path d="M160.378 88.74c-16.428-16.326-42.871-13.404-63.095-7.541-28.464 7.243-60.014-11.87-41.336-38.3 2.059-1.784 5.961-8.078 14.346-6.879 8.078 1.369 21.825 4.765 20.206 14.772-2.443 11.898-16.356 10.876-15.87 2.18.913-9.03 6.737-2.696 7.079-2.913.466-.363-.215-2.186-3.294-4.425C63.382 39.507 60.8 43.54 57.152 56.392c-4.664 17.176 27.993 21.325 44.75 15.959 39.55-11.311 59.483 8.555 59.633 9.07.628.285 1.23 6.925-1.157 7.318z" fill="#c8b273" stroke="#532d3b" stroke-width="1.014192"/></g><g><path d="M483.067 212.387c6.916 3.48 19.652-6.297 22.541-8.806 6.704-5.526 17.963-4.638 16.296 4.789.173 2.531-.626 3.253-2.335 3.895-2.334.653-7.485 1.48-8.313-1.402-.846-3.492 3.006-4.972 3.972-2.584.894 2.532-1.463 1.571-1.527 1.672-.079.156.333.558 1.439.769 4.795-.255 4.978-1.66 4.334-5.559-.917-5.184-10.179-2.178-13.987 1.37-9.233 9.421-21.419 8.71-22.352 7.39.116-.133.072-1.495-.068-1.534z" fill="#532d3b" stroke="#532d3b" stroke-width="1.26" transform="matrix(.73146 -.31364 -.31198 -.72759 -171.312 367.775)"/><path d="M114.672 64.026c4.134-5.286 17.734-2.334 20.927-1.436 7.299 1.85 15.795-3.01 11.001-9.783-.8-2.048-1.694-2.318-3.271-2.19-2.071.352-6.415 1.61-5.997 4.175.628 3.05 4.195 2.785 4.069.556-.236-2.315-1.728-.69-1.815-.745-.12-.093.054-.561.843-1.136 3.853-1.574 4.516-.54 5.454 2.754 1.199 4.403-7.173 5.473-11.47 4.101-10.723-3.969-20.012 1.097-20.255 2.477.14.061.61 1.145.514 1.227z" fill="#532d3b" stroke="#532d3b" stroke-width=".9967625"/><path d="M114.375 66.225c5.229-5.204 13.652-4.28 20.096-2.418 9.068 2.3 19.113-3.796 13.157-12.21-.656-.568-1.901-2.571-4.572-2.187-2.572.438-6.95 1.523-6.432 4.71.781 3.79 5.212 3.46 5.056.69-.294-2.876-2.147-.857-2.256-.926-.149-.115.068-.696 1.048-1.41 4.787-1.956 5.61-.671 6.776 3.421 1.49 5.47-8.912 6.8-14.25 5.095-12.602-3.593-18.946 2.74-18.993 2.904-.2.091-.39 2.206.37 2.331z" fill="#d2c2ac" stroke="#532d3b" stroke-width="1.0014612"/><g><path d="M483.067 212.387c6.916 3.48 19.652-6.297 22.541-8.806 6.704-5.526 17.963-4.638 16.296 4.789.173 2.531-.626 3.253-2.335 3.895-2.334.653-7.485 1.48-8.313-1.402-.846-3.492 3.006-4.972 3.972-2.584.894 2.532-1.463 1.571-1.527 1.672-.079.156.333.558 1.439.769 4.795-.255 4.978-1.66 4.334-5.559-.917-5.184-10.179-2.178-13.987 1.37-9.233 9.421-21.419 8.71-22.352 7.39.116-.133.072-1.495-.068-1.534z" fill="#cdb798" stroke="#532d3b" stroke-width=".79" transform="matrix(1.16334 -.49883 -.4962 -1.15718 -353.85 552.197)"/><path d="M100.99 69.104c6.574-8.408 28.204-3.713 33.282-2.285 11.608 2.944 25.122-4.787 17.497-15.559-1.274-3.257-2.694-3.687-5.203-3.481-3.294.559-10.202 2.559-9.538 6.639 1 4.85 6.673 4.43 6.472.884-.375-3.683-2.748-1.098-2.887-1.186-.19-.148.086-.892 1.341-1.805 6.128-2.504 7.182-.86 8.674 4.38 1.907 7.002-11.408 8.704-18.243 6.522-17.053-6.312-31.827 1.744-32.213 3.939.223.097.97 1.821.818 1.952z" fill="#cdb798" stroke="#532d3b" stroke-width="1.0063195999999999"/><path d="M100.517 72.6c8.316-8.276 21.713-6.807 31.96-3.845 14.424 3.658 30.4-6.037 20.926-19.419-1.044-.903-3.023-4.09-7.27-3.479-4.092.696-11.055 2.422-10.23 7.491 1.242 6.027 8.29 5.504 8.04 1.099-.466-4.575-3.414-1.364-3.587-1.473-.237-.184.108-1.108 1.666-2.243 7.613-3.11 8.924-1.068 10.776 5.441 2.37 8.7-14.173 10.814-22.664 8.103-20.04-5.714-30.13 4.358-30.206 4.619-.318.144-.62 3.509.589 3.707z" fill="#5b5149" stroke="#532d3b" stroke-width=".9933311999999999"/></g><g><path d="M483.067 212.387c6.916 3.48 19.652-6.297 22.541-8.806 6.704-5.526 17.963-4.638 16.296 4.789.173 2.531-.626 3.253-2.335 3.895-2.334.653-7.485 1.48-8.313-1.402-.846-3.492 3.006-4.972 3.972-2.584.894 2.532-1.463 1.571-1.527 1.672-.079.156.333.558 1.439.769 4.795-.255 4.978-1.66 4.334-5.559-.917-5.184-10.179-2.178-13.987 1.37-9.233 9.421-21.419 8.71-22.352 7.39.116-.133.072-1.495-.068-1.534z" fill="#5b5149" stroke="#532d3b" stroke-width=".4" transform="matrix(2.29636 -.98466 -.97945 -2.28422 -836.743 1035.47)"/><path d="M61.084 81.872c12.977-16.596 55.673-7.329 65.696-4.51 22.916 5.812 49.59-9.45 34.54-30.712-2.515-6.43-5.32-7.278-10.27-6.873-6.503 1.104-20.139 5.052-18.829 13.105 1.974 9.576 13.172 8.744 12.776 1.746-.741-7.27-5.425-2.167-5.7-2.341-.376-.292.171-1.76 2.648-3.564 12.096-4.941 14.178-1.696 17.122 8.646 3.764 13.822-22.52 17.182-36.01 12.874-33.663-12.46-62.825 3.444-63.587 7.776.44.192 1.913 3.595 1.614 3.853z" fill="#5b5149" stroke="#532d3b" stroke-width="1.0068143999999999"/><path d="M60.15 88.775c16.416-16.338 42.861-13.437 63.09-7.59 28.47 7.22 60.004-11.918 41.305-38.333-2.06-1.783-5.967-8.073-14.351-6.868-8.077 1.375-21.822 4.782-20.195 14.788 2.453 11.896 16.365 10.863 15.872 2.168-.92-9.03-6.74-2.692-7.08-2.908-.467-.363.212-2.186 3.289-4.427 15.027-6.14 17.614-2.109 21.271 10.74 4.677 17.173-27.976 21.347-44.738 15.995-39.559-11.28-59.476 8.603-59.625 9.118-.628.285-1.224 6.926 1.162 7.317z" fill="#c8b273" stroke="#532d3b" stroke-width="1.014195"/></g></g></g></svg>