<svg viewBox="0 0 559 80" xmlns="http://www.w3.org/2000/svg" fill-rule="evenodd" clip-rule="evenodd" stroke-linejoin="round" stroke-miterlimit="2"><path d="M511.868 26.756c.072-12.568 10.333-22.714 22.902-22.643 12.568.072 22.714 10.334 22.643 22.902-.072 12.568-10.334 22.714-22.902 22.643-12.568-.072-22.714-10.333-22.643-22.902zM401.504 50.727c.071-12.568 10.333-22.714 22.902-22.643 12.568.072 22.714 10.334 22.642 22.902-.071 12.568-10.333 22.714-22.901 22.643-12.569-.072-22.714-10.333-22.643-22.902zM320.415 52.378c.072-12.568 10.334-22.714 22.902-22.643 12.568.072 22.714 10.334 22.643 22.902-.072 12.568-10.333 22.714-22.902 22.643-12.568-.072-22.714-10.334-22.643-22.902zM228.555 51.104c.071-12.568 10.333-22.714 22.902-22.643 12.568.072 22.714 10.334 22.642 22.902-.071 12.568-10.333 22.714-22.901 22.643-12.568-.072-22.714-10.333-22.643-22.902zM91.139 55.599c.071-12.569 10.333-22.715 22.901-22.643 12.568.071 22.714 10.333 22.643 22.901-.071 12.569-10.333 22.715-22.902 22.643-12.568-.071-22.714-10.333-22.642-22.901zM.451 54.163C.522 41.594 10.784 31.449 23.352 31.52c12.569.071 22.715 10.333 22.643 22.902-.071 12.568-10.333 22.714-22.901 22.642C10.525 76.993.379 66.731.451 54.163z"/></svg>