<svg viewBox="0 0 63 880" xmlns="http://www.w3.org/2000/svg" fill-rule="evenodd" clip-rule="evenodd" stroke-linejoin="round" stroke-miterlimit="2"><path d="M28.757 832.475c12.566.232 22.58 10.623 22.347 23.19-.232 12.566-10.624 22.58-23.19 22.347-12.566-.233-22.58-10.624-22.347-23.19.233-12.567 10.624-22.58 23.19-22.347zM32.536 744.287c12.566.232 22.58 10.624 22.347 23.19-.232 12.566-10.624 22.58-23.19 22.347-12.566-.233-22.58-10.624-22.347-23.19.233-12.567 10.624-22.58 23.19-22.347zM32.313 655.011c12.567.232 22.58 10.624 22.347 23.19-.232 12.566-10.623 22.58-23.19 22.347-12.566-.232-22.58-10.624-22.347-23.19.233-12.566 10.624-22.58 23.19-22.347zM35.909 562.259c12.566.233 22.58 10.624 22.347 23.19-.233 12.567-10.624 22.58-23.19 22.347-12.567-.232-22.58-10.623-22.347-23.19.232-12.566 10.623-22.58 23.19-22.347zM37.736 486.415c12.567.232 22.58 10.624 22.347 23.19-.232 12.566-10.624 22.58-23.19 22.347-12.566-.233-22.58-10.624-22.347-23.19.233-12.566 10.624-22.58 23.19-22.347zM25.645 90.875c12.567.233 22.58 10.624 22.348 23.19-.233 12.567-10.624 22.58-23.191 22.347-12.566-.232-22.579-10.623-22.347-23.19.233-12.566 10.624-22.58 23.19-22.347zM27.773 3.472c12.566.233 22.58 10.624 22.347 23.191-.232 12.566-10.624 22.579-23.19 22.347-12.566-.233-22.58-10.624-22.347-23.19.232-12.567 10.624-22.58 23.19-22.348z"/></svg>