<svg viewBox="0 0 559 80" xmlns="http://www.w3.org/2000/svg" fill-rule="evenodd" clip-rule="evenodd" stroke-linejoin="round" stroke-miterlimit="2"><path d="M512.088 26.589c.071-12.568 10.333-22.714 22.901-22.643 12.569.072 22.714 10.334 22.643 22.902-.071 12.568-10.333 22.714-22.902 22.643-12.568-.071-22.714-10.333-22.642-22.902zM401.723 50.56c.072-12.568 10.334-22.714 22.902-22.642 12.568.071 22.714 10.333 22.643 22.901-.072 12.568-10.333 22.714-22.902 22.643-12.568-.071-22.714-10.333-22.643-22.902zM320.635 52.211c.071-12.568 10.333-22.714 22.901-22.643 12.569.072 22.715 10.334 22.643 22.902-.071 12.568-10.333 22.714-22.901 22.643-12.569-.072-22.715-10.333-22.643-22.902zM228.774 50.937c.072-12.568 10.334-22.714 22.902-22.642 12.568.071 22.714 10.333 22.643 22.901-.072 12.568-10.333 22.714-22.902 22.643-12.568-.071-22.714-10.333-22.643-22.902zM91.358 55.432c.071-12.569 10.333-22.715 22.901-22.643 12.569.071 22.715 10.333 22.643 22.901-.071 12.569-10.333 22.715-22.901 22.643C101.432 78.262 91.287 68 91.358 55.432zM.67 53.996c.072-12.568 10.334-22.714 22.902-22.643 12.568.071 22.714 10.333 22.643 22.902-.072 12.568-10.334 22.714-22.902 22.643C10.745 76.826.599 66.564.67 53.996z"/></svg>