<svg viewBox="0 0 134 200" xmlns="http://www.w3.org/2000/svg" fill-rule="evenodd" clip-rule="evenodd" stroke-linejoin="round" stroke-miterlimit="2"><path d="M29.513 135.035c16.354-4.274 36.653 6.53 36.64 28.938.144 9.315.003 28.17-29.346 31.945-16.752 2.254-31.562-7.96-33.227-24.054-2.253-16.753 12.228-33.248 25.933-36.829z"/><path d="M34.85 171.267c1.777-.464 3.942.666 3.778 3.114.101 1.307-1.223 3.199-3.059 3.44-1.82.244-3.355-.804-3.536-2.553-.244-1.82 1.329-3.612 2.817-4.001z" fill="#fff"/><path d="M107.29 135.24c11.893-13.423 7.648-40.466-11.188-56.428-6.351-7.698-28.17-19.636-28.17-19.636s10.602 66.484 13.921 93.4c1.283 13.016-.538 18.052-1.418 21.082-3.908 6.735-15.421 6.257-13.058 4.089 1.392-3.736 3.24.866 7.661-6.068C81.431 164.641 61.91 58.972 61.91 58.972s-1.458.492-1.571-.207c-.808-1.209-6.116-48.248-6.116-48.248-.052-.801-.293-3.552 1.223-4.921 1.597-1.41 6.965-3.128 8.344-.882 1.303 2.193.99 14.956 1.417 15.21 1.624 2.735 10.578 7.897 10.578 7.897s4.144 2.713 12.854 7.657c33.98 13.646 41.131 38.075 43.616 63.16.451 12.499-.54 25.173-8.862 34.083-5.935 6.667-21.23 14.265-27.475 11.141.436-1.874 5.126-.731 11.372-8.622z"/></svg>