<svg viewBox="0 0 88 121" xmlns="http://www.w3.org/2000/svg" fill-rule="evenodd" clip-rule="evenodd" stroke-linejoin="round" stroke-miterlimit="2"><path d="M25.053 79.682c11.153-.934 23.171 8.563 20.625 23.386-.961 6.179-3.19 18.637-22.764 17.737-11.184-.448-19.688-8.92-18.951-19.76.427-11.343 11.743-20.58 21.09-21.363z"/><path d="M24.43 104.271c1.212-.102 2.496.896 2.112 2.497-.082.876-1.16 1.975-2.386 1.921-1.215-.049-2.097-.92-2.017-2.098.047-1.232 1.276-2.235 2.291-2.32z" fill="#b18f6a"/><path d="M81.31 2.152c.603-.858 2.726-.775 3.453.807C86.165 6.77 74.7 41.92 66.505 100.328c-.487 5.89-2.816 13.787-5.165 15.229-2.783 1.632-14.017-1.25-14.851-2.648-1.383-2.196 11.36 3.328 12.425-3.325.239-1.488 19.017-103.155 22.396-107.432z"/></svg>