<svg viewBox="0 0 59 84" xmlns="http://www.w3.org/2000/svg" fill-rule="evenodd" clip-rule="evenodd" stroke-linejoin="round" stroke-miterlimit="2"><path d="M15.31 58.456c6.718-1.054 14.409 4.086 13.503 13.054-.316 3.735-1.13 11.276-13.029 11.608-6.795.229-12.313-4.454-12.333-10.963-.229-6.796 6.23-12.816 11.859-13.699z"/><path d="M16.102 67.196c.73-.115 1.551.425 1.387 1.398-.012.527-.618 1.231-1.363 1.254-.738.025-1.31-.457-1.312-1.164-.025-.738.676-1.392 1.288-1.488z" fill="#fff"/><path d="M46.544 55.685c5.299-4.895 4.686-15.889-2.212-23.035-2.233-3.336-10.486-8.991-10.486-8.991s1.572 27.037 1.82 37.944c-.009 5.261-.941 7.204-1.415 8.381-1.834 2.539-6.423 1.885-5.39 1.112.707-1.439 1.262.477 3.31-2.121 2.841-2.56-.728-45.639-.728-45.639s-.603.138-.62-.146c-.275-.517-.51-19.558-.51-19.558.011-.322.025-1.433.687-1.92.696-.5 2.914-.972 3.375-.018.434.93-.204 6.026-.043 6.145.54 1.16 3.916 3.585 3.916 3.585s1.55 1.253 4.838 3.582c13.052 6.827 14.933 16.892 14.921 27.032-.322 5.021-1.228 10.054-4.917 13.286-2.643 2.43-9.071 4.857-11.444 3.356.249-.733 2.081-.087 4.898-2.995z"/></svg>