<svg viewBox="0 0 91 275" xmlns="http://www.w3.org/2000/svg" fill-rule="evenodd" clip-rule="evenodd" stroke-linecap="round" stroke-linejoin="round" stroke-miterlimit="1.5"><path d="M78.859 178.462c0-8.636-3.803-14.618-6.112-14.618H57.1c-2.308 0-5.414 11.125-6.61 18.845-4.429 26.861 2.901 36.452 6.61 43.742 2.733 2.36 10.821 5.103 14.126 2.495 3.305-2.607 8.845-15.452 8.845-24.088l-1.212-26.376z" fill="#b18f6a" stroke="#000" stroke-width="12.2" transform="matrix(2.23908 .04145 -.01108 .59858 -97.636 124.227)"/><path d="M77.702 222.156c6.368-31.277.272-58.988-4.584-58.312l-12.973.826c-12.278-7.545-10.854 31.417-10.854 31.417-.171 31.663 6.762 29.507 7.439 30.344h16.388c1.782 0 4.167 2.508 4.584-4.275z" fill="#b18f6a" stroke="#000" stroke-width="13.04" transform="matrix(2.10642 .039 -.0095 .5132 -86.613 104.65)"/><path d="M76.93 179.491c0-8.636-1.606-15.647-3.585-15.647H56.503c-1.979 0-3.586 7.011-3.586 15.647l-.495 17.979c0 8.636 2.102 28.961 4.081 28.961l11.872-.058c3.798-1.517 7.943-8.921 8.555-15.589v-31.293z" fill="#b18f6a" stroke="#000" stroke-width="12.17" transform="matrix(2.26451 .0419 -.0096 .51887 -99.665 72.2)"/><path d="M76.93 179.491c0-8.636-1.756-15.647-3.918-15.647H56.836c-2.163 0-3.919 7.011-3.919 15.647v31.293c0 8.636 1.756 15.647 3.919 15.647h16.176c2.162 0 3.918-7.011 3.918-15.647v-31.293z" fill="#b18f6a" stroke="#000" stroke-width="12.45" transform="matrix(2.20345 .0408 -.01022 .55186 -93.656 29.51)"/><path d="M78.09 196.815c0-8.635-2.925-32.971-5.098-32.971l-13.115 4.69c-4.453 5.621-6.467 16.402-6.402 23.687l.828 22.768c0 8.636 1.55 19.092 3.724 19.092l14.965-7.65c2.173 0 3.938-7.011 3.938-15.647l1.16-13.969z" fill="#b18f6a" stroke="#000" stroke-width="12.49" transform="matrix(2.19558 .04065 -.01023 .55269 -93.952 -3.476)"/><path d="M81.236 178.109c0-8.636-6.308-14.265-8.775-14.265H57.387c-2.467 0-7.639 8.068-7.639 16.704l1.763 38.612c0 8.636 10.065 7.698 12.532 7.698 0 0 6.008 1.018 8.418-.427 3.105-1.353 7.988-.776 7.988-9.412l.787-38.91z" fill="#b18f6a" stroke="#000" stroke-width="13.94" transform="matrix(1.95055 .03609 -.0103 .55718 -77.806 -36.938)"/><path d="M76.93 179.491c0-8.636-2.088-15.647-4.659-15.647H57.577c-2.572 0-4.66 7.011-4.66 15.647v31.293c0 8.636 2.088 15.647 4.66 15.647l14.494-6.729c3.413-4.369 5.35-12.854 5.35-21.49l-.491-18.721z" fill="#b18f6a" stroke="#000" stroke-width="11.84" transform="matrix(2.28856 .04237 -.01262 .68154 -98.545 -103.645)"/></svg>