<svg viewBox="0 0 440 150" xmlns="http://www.w3.org/2000/svg" fill-rule="evenodd" clip-rule="evenodd" stroke-linecap="round" stroke-linejoin="round" stroke-miterlimit="1.5"><g opacity=".7"><path d="M113.864 64.184c26.516-22.754 53.273-20.123 101.449-13.288 33.032 4.463 15.741-11.898 65.879-18.599 2.284-14.244 24.235-18.724 28.23-19.768 11.646-3.143 88.767-12.58 115.068 15.636 31.526 23.444 1.437 36.006 7.16 48.327 3.109 10.845-6.495 22.92-39.746 28.052-9.846 1.663-34.604 15.126-60.008 6.434-52.759-11.815-50.124 6.29-82.603 15.974-53.94 13.883-72.38-21.12-88.203.503-13.46 24.666-60.298 24.33-160.71 18.813l.095-83.226c74.094 24.695 93 18.638 113.389 1.142z" fill="#403f6f"/><path d="M113.864 64.184c26.516-22.754 53.273-20.123 101.449-13.288 33.032 4.463 15.741-11.898 65.879-18.599 2.284-14.244 24.235-18.724 28.23-19.768 11.646-3.143 88.767-12.58 115.068 15.636 31.526 23.444 1.437 36.006 7.16 48.327 3.109 10.845-6.495 22.92-39.746 28.052-9.846 1.663-34.604 15.126-60.008 6.434-52.759-11.815-50.124 6.29-82.603 15.974-53.94 13.883-72.38-21.12-88.203.503-13.46 24.666-60.298 24.33-160.71 18.813l.095-83.226c74.094 24.695 93 18.638 113.389 1.142zm312.104 14.284c-2.155-5.2-.698-10.534 2.249-16.19 1.113-2.136 2.411-4.357 3.439-6.723 1.12-2.584 1.959-5.377 1.15-8.534-1.073-4.186-4.64-8.646-11.897-14.041l-.808-.724c-9.675-10.38-26.972-14.838-44.756-16.723-28.052-2.974-57.603.965-64.407 2.802-2.179.569-10.265 2.188-16.81 6.25-3.319 2.059-6.38 4.72-7.012 8.661a5.998 5.998 0 01-5.13 4.998c-28.4 3.795-33.876 10.893-40.455 15.039-5.463 3.443-11.484 5.659-27.061 3.554-45.875-6.51-71.448-9.767-96.7 11.9C97.08 86.493 77.84 94.158 6.467 71.312l-.08 69.274c56.495 3.056 95.248 4.332 120.173-.168 15.034-2.715 24.601-7.29 29.265-15.836l.425-.67c3.406-4.655 7-7.238 10.768-8.574 5.27-1.868 11.129-1.206 18.11.84 13.22 3.877 31.819 12.872 62.56 4.993 12.397-3.713 19.426-8.759 26.647-12.695 12.192-6.646 24.785-10.986 58.874-3.353l.63.179c13.93 4.766 27.641 2.077 38.33-1.032 8.084-2.351 14.654-4.952 18.821-5.655 15.161-2.34 25.012-6.035 30.637-10.61 3.7-3.008 5.128-6.281 4.342-9.536z" fill="#c8b273"/><path d="M101.374 79.575c25.439-16.402 59.046-21.625 105.264-16.698 31.69 3.217 15.102-8.576 63.202-13.406 2.191-10.268 23.25-13.497 27.082-14.25 11.173-2.265 85.16-9.068 110.393 11.271 30.245 16.9 1.378 25.954 6.87 34.835 2.981 7.817-10.772 10.42-42.67 14.119-9.448 1.198-28.467 8.85-52.837 2.583-50.616-8.516-48.282 12.69-79.44 19.671-51.75 10.007-69.44-15.224-84.62.362-12.912 17.78-57.848 26.352-154.18 22.376l.093-71.744c30.341 12.867 81.282 23.492 100.843 10.88z" fill="#403f6f"/><path d="M163.136 740.902s89.896 25.683 135.769 3.342c18.028-8.436 27.344-25.874 49.105-18.412 22.412 9.397 37.368 11.614 61.119-3.447 22.032-13.972 47.822-13.437 88.549-6.743 16.104 2.647 27.667-13.281 42.924-12.561 15.778 2.979 16.26-4.312 13.369-13.034-2.267-9.005 13.517-11.622 8.844-21.615-16.825-17.989-36.386-7.427-30.849-25.661" fill="none" stroke="#c8b273" stroke-width=".84" transform="matrix(1.0244 .01896 -.02067 1.11637 -150.96 -711.076)"/><g><path d="M175.861 730.284s83.719 30.072 123.235 8.522c13.333-7.271 29.361-21.041 45.366-22.199 4.194-.303 15.285 2.195 18.885 3.603 16.233 6.616 32.036 9.673 45.593.586 31.57-18.652 61.486-18.9 75.231-14.023 13.918 5.548 65.484-3.73 30.382-27.658-10.241-4.455 7.322-11.264 5.477-18.394-1.723-6.659-1.24-12.21-1.265-12.405" fill="none" stroke="#c8b273" stroke-width=".84" transform="matrix(1.0244 .01896 -.02067 1.11637 -164.161 -719.479)"/></g><g><path d="M136.215 726.156c38.209 15.744 87.297 21.789 108.615 12.561 12.686-4.968 39.141-25.01 58.471-25.228 25.185-2.422 48.698 14.684 71.593-2.748 2.71-2.067 14.693-9.076 18.479-10.106 15.478-4.214 22.975 3.778 36.67 3.15 10.02-.46 19.975-7.819 13.802-12.651-18.992-17.13 10.478-11.137 12.346-30.071" fill="none" stroke="#c8b273" stroke-width=".84" transform="matrix(1.0244 .01896 -.02067 1.11637 -123.554 -730.85)"/></g><g><path d="M350.724 35.067c4.222-1.104 9.462 1.686 9.459 7.47.037 2.405 0 7.272-7.576 8.247-4.324.581-8.148-2.055-8.577-6.21-.582-4.325 3.156-8.583 6.694-9.507z" fill="#f7cac9" stroke="#532d3b" stroke-width=".7988538"/><path d="M352.102 44.42c.459-.12 1.018.172.975.804.026.337-.315.826-.79.888-.47.063-.865-.208-.912-.66-.063-.469.343-.932.727-1.032z" fill="#f7cac9" stroke="#532d3b" stroke-width=".7998596"/><path d="M370.802 35.12c3.07-3.465 1.975-10.446-2.888-14.567-1.64-1.987-7.272-5.07-7.272-5.07s2.737 17.164 3.594 24.112c.331 3.36-.14 4.66-.366 5.442-1.01 1.74-3.981 1.616-3.371 1.056.36-.964.837.223 1.977-1.566 1.65-1.817-3.388-29.096-3.388-29.096s-.377.127-.406-.053c-.209-.312-1.579-12.455-1.579-12.455-.013-.207-.075-.917.316-1.27.412-.365 1.798-.808 2.154-.228.336.565.255 3.86.366 3.926.419.706 2.73 2.038 2.73 2.038s1.07.701 3.319 1.977c8.772 3.523 10.617 9.83 11.26 16.305.116 3.227-.14 6.498-2.289 8.799-1.532 1.72-5.48 3.682-7.092 2.876.112-.484 1.323-.19 2.935-2.226z" fill="#f7cac9" stroke="#532d3b" stroke-width=".8012663999999999"/><path d="M251.123 63.01c1.387-.557 3.289.164 3.538 2.13.117.815.316 2.47-2.217 3.13-1.445.385-2.858-.345-3.184-1.739-.385-1.444.701-3.053 1.863-3.52z" fill="#92a8d1" stroke="#532d3b" stroke-width=".7998408"/><path d="M251.843 66.12c.126-.102.342-.09.418.114.055.102.017.302-.123.388-.138.086-.3.057-.377-.077-.086-.138-.024-.34.082-.425z" fill="#92a8d1" stroke="#532d3b" stroke-width=".7999324000000001"/><path d="M241.793 67.488c1.424-.35 3.17.614 3.14 2.557 0 .808-.037 2.442-2.586 2.732-1.456.173-2.727-.732-2.85-2.13-.174-1.455 1.103-2.866 2.296-3.159z" fill="#92a8d1" stroke="#532d3b" stroke-width=".8000816"/><path d="M241.452 70.92c.155-.038.34.063.323.275.008.113-.11.276-.27.294-.157.02-.29-.074-.302-.226-.02-.158.12-.311.249-.343z" fill="#92a8d1" stroke="#532d3b" stroke-width=".8002212000000001"/><path d="M239.102 56.629l-.29-.518s-.163.082-.202.013c-.05-.116-1.3-2.284-1.3-2.284-.036-.082-.166-.36-.06-.561.113-.208.608-.592.838-.41.21.171 7.02-3.15 7.667-3.433a.133.133 0 01.006-.081c.098-.216.564-.634.806-.469.398.682.678 1.184.866 1.46.34.489 6.136 10.13 7.7 12.707.721 1.262.766 1.855.815 2.202-.09.86-1.278 1.337-1.137 1.01-.03-.443.368-.06.5-.965.311-.955-5.37-9.321-5.968-10.2-1.196.418-7.653 3.346-7.653 3.346l-.905.37c1.62 2.892 3.966 7.108 4.831 8.797.631 1.31.633 1.905.657 2.255-.151.852-1.371 1.241-1.207.925.002-.443.37-.033.568-.926.277-.682-3.143-7.091-5.244-10.916-.11.03-.216.047-.235.017-.138-.089-.977-1.704-.977-1.704-.27-.366-.337-.407-.148-.553a.294.294 0 01.072-.082zm8.353-4.586c-.959.36-8.324 3.83-8.324 3.83l.327.58c.195-.073.404-.137.52-.215.248-.106.364-.3 1.269-.739.739-.344 3.826-1.463 4.484-1.918.752-.574 1.898-.948 1.967-.972a.46.46 0 01.081-.02l-.324-.546z" fill="#92a8d1" stroke="#532d3b" stroke-width=".802685"/><g><path d="M400.73 55.063c3.165-.02 6.35 2.88 5.312 6.947-.405 1.697-1.302 5.113-6.804 4.441-3.145-.365-5.36-2.904-4.919-5.902.366-3.145 3.757-5.47 6.41-5.486z" fill="#92a8d1" stroke="#532d3b" stroke-width=".7507539"/><path d="M400.023 61.886c.344-.002.684.303.541.74-.042.242-.37.524-.714.483-.342-.04-.572-.301-.524-.627.04-.342.408-.594.697-.596z" fill="#92a8d1" stroke="#532d3b" stroke-width=".7501872"/><path d="M414.837 58.696c2.78-1.886 3.26-6.991.578-10.76-.797-1.69-4.205-4.866-4.205-4.866s-1.15 12.558-1.792 17.596c-.369 2.422-.932 3.252-1.232 3.762-1.02 1.041-3.088.422-2.559.138.425-.614.548.307 1.67-.747 1.487-.982 2.83-21.065 2.83-21.065s-.288.022-.276-.11c-.091-.257 1.12-9.04 1.12-9.04.028-.148.112-.658.45-.837.355-.182 1.409-.246 1.555.226.135.458-.512 2.76-.446 2.826.169.572 1.555 1.922 1.555 1.922s.627.685 1.98 1.984c5.536 4.049 5.704 8.814 4.996 13.481-.496 2.29-1.262 4.545-3.185 5.777-1.385.936-4.513 1.608-5.502.752.166-.32.964.105 2.463-1.039z" fill="#92a8d1" stroke="#532d3b" stroke-width=".7487564999999999"/></g><g><path d="M71.07 121.553c2.095 1.702 5.76 1.474 7.24-1.784.637-1.344 1.863-4.094-2.153-6.584-2.286-1.436-5.114-.93-6.42 1.299-1.436 2.286-.422 5.642 1.333 7.069z" fill="#f7cac9" stroke="#532d3b" stroke-width=".7494996"/><path d="M74.242 116.639c.228.185.617.164.755-.203.101-.183.034-.546-.217-.702-.248-.156-.54-.105-.683.137-.156.248-.045.613.145.768z" fill="#f7cac9" stroke="#532d3b" stroke-width=".7500066000000001"/><path d="M82.389 126.667c.84 2.738-1.565 6.388-5.358 7.462-1.433.7-5.394.992-5.394.992s5.938-8.963 8.2-12.656c1.048-1.807 1.117-2.66 1.19-3.158-.123-1.238-1.829-1.93-1.628-1.459-.045.636.528.089.712 1.39.464 1.445-9.363 15.514-9.363 15.514s-.18-.168-.242-.074c-.197.122-4.08 6.609-4.08 6.609-.06.113-.277.497-.147.796.138.31.805.915 1.154.68.334-.232 1.133-2.108 1.212-2.117.417-.29 2.06-.448 2.06-.448s.782-.12 2.375-.263c5.842.264 8.497-2.815 10.517-6.296.892-1.788 1.586-3.695.966-5.541-.422-1.361-2.142-3.477-3.257-3.436-.06.3.697.445 1.083 2.005z" fill="#f7cac9" stroke="#532d3b" stroke-width=".75105"/><path d="M58.848 119.52c1.99 1.823 5.662 1.813 7.333-1.351.716-1.305 2.103-3.977-1.759-6.7-2.196-1.57-5.05-1.233-6.486.915-1.569 2.197-.755 5.607.912 7.135z" fill="#f7cac9" stroke="#532d3b" stroke-width=".7494996"/><path d="M62.306 114.802c.216.198.606.2.766-.157.112-.177.066-.543-.175-.714-.239-.17-.534-.137-.69.096-.17.239-.082.61.1.775z" fill="#f7cac9" stroke="#532d3b" stroke-width=".7500066000000001"/><path d="M69.844 125.296c.677 2.783-1.941 6.284-5.792 7.131-1.471.613-5.443.67-5.443.67s6.46-8.595 8.937-12.147c1.153-1.742 1.272-2.589 1.374-3.082-.049-1.243-1.71-2.035-1.538-1.552-.083.631.522.12.628 1.428.378 1.47-10.266 14.932-10.266 14.932s-.17-.178-.238-.088c-.204.11-4.464 6.355-4.464 6.355-.067.11-.307.48-.195.786.12.318.75.962 1.112.747.348-.212 1.256-2.037 1.336-2.041.433-.265 2.082-.325 2.082-.325s.788-.074 2.387-.122c5.816.61 8.649-2.305 10.872-5.66.997-1.732 1.803-3.595 1.293-5.474-.34-1.385-1.932-3.599-3.047-3.624-.078.297.669.486.962 2.066z" fill="#f7cac9" stroke="#532d3b" stroke-width=".75105"/></g><g><path d="M497.161 651.724c14.693-1.8 31.049 9.947 28.422 29.393-.962 8.102-3.286 24.449-29.199 24.3-14.802 0-26.464-10.594-26.03-24.756 0-14.803 14.495-27.428 26.807-28.937z" fill="#f7cac9" stroke="#532d3b" stroke-width="4.12" transform="matrix(.19256 .00772 -.00736 .1953 91.06 -68.965)"/><path d="M497.161 651.724c14.693-1.8 30.778 9.552 26.834 28.937-.597 10.55-13.205 24.242-28.139 24.191-14.803 0-25.936-10.029-25.502-24.191 0-14.803 14.495-27.428 26.807-28.937z" fill="#f7cac9" stroke="#532d3b" stroke-width="37.9" transform="matrix(.02092 .00084 -.0008 .02122 171.955 54.182)"/><path d="M232.843 650.29c.189-.965 1.576-1.597 2.411-.427 1.788 2.934 2.572 38.095 10.866 92.917 1.055 5.415 1.39 13.233.212 15.299-1.413 2.38-9.316 3.541-10.178 2.571-1.401-1.5 8.088-.804 7.229-7.093-.193-1.406-11.722-98.329-10.54-103.267z" fill="#f7cac9" stroke="#532d3b" stroke-width="2.46" transform="matrix(.3489 .1299 -.09088 .25188 174.191 -151.643)"/></g><g><path d="M155.39 120.61c1.82-.79 2.913-3.258 1.29-5.328-.662-.871-2.04-2.603-5.025-.826-1.711 1.004-2.34 3.02-1.329 4.628 1.005 1.711 3.538 2.187 5.064 1.525z" fill="#86a1a9" stroke="#532d3b" stroke-width=".8002785"/><path d="M153.125 117.03c.214-.025.403-.24.281-.502-.044-.147-.27-.298-.48-.247-.21.05-.334.23-.28.43.051.21.3.339.479.318z" fill="#86a1a9" stroke="#532d3b" stroke-width=".7997808"/><path d="M142.458 125.243c1.658-1.018 2.377-3.566.514-5.35-.762-.754-2.34-2.244-4.992-.106-1.522 1.212-1.853 3.256-.648 4.677 1.212 1.522 3.736 1.632 5.126.78z" fill="#86a1a9" stroke="#532d3b" stroke-width=".8004696"/><path d="M138.898 122.364c.18-.111.26-.381.043-.562-.1-.113-.363-.154-.53-.02-.165.132-.2.343-.07.497.132.165.407.177.557.085z" fill="#86a1a9" stroke="#532d3b" stroke-width=".8001083999999999"/><path d="M150.202 137.914c.14.483.218.758.218.758s-.229.077-.2.178c.063.155.944 3.358.944 3.358.044.11.185.492.474.58.302.087 1.126-.021 1.169-.408.034-.359 9.521-3.692 10.394-4.038.022.033.049.056.082.07.295.108 1.124.059 1.194-.324-.272-1.013-.486-1.745-.57-2.18-.145-.777-3.842-15.244-4.818-19.124-.518-1.86-1.035-2.455-1.318-2.825-.896-.718-2.455-.04-2.014.133.39.44.4-.292 1.376.427 1.193.597 3.794 13.766 4.066 15.15-1.51.74-10.298 4.106-10.298 4.106l-1.195.509c-1.22-4.226-3.012-10.375-3.8-12.768-.648-1.817-1.208-2.375-1.517-2.723-.945-.653-2.451.136-2 .276.421.411.378-.319 1.405.328.903.374 3.764 9.583 5.416 15.134-.13.077-.245.16-.235.207-.045.213.697 2.512.697 2.512.095.596.07.698.385.655a.39.39 0 00.145.009zm12.122-3.61c-1.235.57-11.38 4.289-11.38 4.289l-.244-.85c.25-.117.506-.255.688-.292.332-.135.623-.063 1.881-.509 1.015-.376 4.951-2.247 5.995-2.445 1.243-.175 2.666-.908 2.753-.95a.61.61 0 00.094-.058l.213.815z" fill="#86a1a9" stroke="#532d3b" stroke-width=".8041280000000001"/></g><g><path d="M36.362 100.985c2.59-.406 5.553 1.575 5.205 5.031-.122 1.44-.436 4.346-5.022 4.474-2.62.088-4.746-1.717-4.753-4.225-.089-2.62 2.4-4.94 4.57-5.28z" fill="#86a1a9" stroke="#532d3b" stroke-width=".8002208"/><path d="M36.667 104.353c.282-.044.598.164.535.54-.005.202-.238.474-.525.483-.285.01-.505-.176-.506-.449-.01-.284.26-.537.496-.574z" fill="#86a1a9" stroke="#532d3b" stroke-width=".799968"/><path d="M48.4 99.917c2.042-1.886 1.806-6.123-.852-8.877-.861-1.286-4.042-3.466-4.042-3.466s.606 10.42.701 14.624c-.003 2.028-.362 2.776-.545 3.23-.707.979-2.475.727-2.077.429.272-.555.486.184 1.275-.818 1.096-.986-.28-17.59-.28-17.59s-.232.054-.24-.056c-.105-.199-.195-7.537-.195-7.537.004-.125.01-.553.264-.74.269-.193 1.123-.375 1.301-.007.167.358-.079 2.322-.017 2.368.208.447 1.51 1.382 1.51 1.382s.597.483 1.864 1.38c5.03 2.631 5.756 6.51 5.75 10.419-.123 1.935-.472 3.875-1.894 5.12-1.019.937-3.496 1.872-4.41 1.294.095-.283.801-.034 1.887-1.155z" fill="#86a1a9" stroke="#532d3b" stroke-width=".7996016"/></g></g></g></svg>