<svg viewBox="0 0 2355 1330" xmlns="http://www.w3.org/2000/svg" fill-rule="evenodd" clip-rule="evenodd" stroke-linejoin="round" stroke-miterlimit="2"><path d="M158.038 1016.78l-32.965-11.768-24.764 55.731 40.434 17.438 17.295-61.401zM64.155 991.719l-56.44-6.304-6.831 62.406 62.561-2.034.71-54.068zM365.468 917.578l-51.115-17.563-27.8 53.436 52.991 21.181 25.924-57.054zM153.573 805.246l64.371-24.718 11.383 53.164-43.049 31.575-24.401-18.45-8.304-41.571zM327.132 741.039l-28.069 10.145 13.521 46.547 36.039-10.633-21.491-46.059zM456.805 668.464l-51.236-3.777 4.065 42.399 50.663-.809-3.492-37.813zM606.457 822.266l47.129 5.61-11.636 34.014-54.899-.818 19.406-38.806zM678.235 750.597l-36.478 12.486 15.192 50.708 46.724-13.393-25.438-49.801zM737.708 597.272l-42.406-16.501-18.855 37.954 44.162 19.321 17.099-40.774zM639.178 381.056l41.673 8.69-10.335 53.091-48.551-1.206 17.213-60.575zM772.682 309.332l50.508-22.608 7.645 39.572-55.587 31.823-2.566-48.787zM931.691 23.76l28.053 5.86-6.957 35.795-32.683-.812 11.587-40.843zM2198.83 1268.16l65.372-23.285 12.605 75.895-46.902 5.857-31.075-58.467zM2277.65 1128.16l54.609-2.025 18.648 39.712-46.869 10.264-26.388-47.951zM2314.33 997.591l-55.101-9.955.083 61.834 62.514 9.767-7.496-61.646zM2045.26 1039.48l47.898 10.996-11.892 67.233-43.584-17.991 7.578-60.238zM2119.25 854.844l47.898 10.996-11.892 67.232-46.894-23.12 10.888-55.108zM1998.24 776.632l-48.675 7.49 20.112 64.056 45.259-21.054-16.696-50.492zM1447.13 703.093l33.173-11.638 14.025 40.487-35.055 19.63-12.143-48.479zM1341.99 599.393l47.898 10.997-17.903 47.29-35.14-3.427 5.145-54.86zM1425.18 446.601l41.229-15.553 14.378 45.405-44.061 24.828-11.546-54.68zM1384.15 299.386l-53.524-4.068 1.112 39.589 35.392 8.033 17.02-43.554zM1370.23 251.578l19.686-5.428 12.468 30.7-20.134 11.063-12.02-36.335zM1195.22 19.342l48.642-16.692 5.454 15.406-2.543 25.827-36.736 24.404-14.817-48.945z"/></svg>