<svg viewBox="0 0 205 171" xmlns="http://www.w3.org/2000/svg" fill-rule="evenodd" clip-rule="evenodd" stroke-linejoin="round" stroke-miterlimit="2"><g fill="#b18f6a"><path d="M192.351 63.409c5.266.098 9.463 4.453 9.365 9.719-.097 5.267-4.452 9.463-9.718 9.366-5.267-.098-9.464-4.452-9.366-9.719.097-5.266 4.452-9.463 9.719-9.366zM142.839 3.196c5.267.097 9.463 4.452 9.366 9.718-.098 5.267-4.453 9.464-9.719 9.366-5.267-.097-9.463-4.452-9.366-9.719.098-5.266 4.453-9.463 9.719-9.365zM10.544 112.047c5.267.097 9.463 4.452 9.366 9.719-.098 5.266-4.452 9.463-9.719 9.365-5.266-.097-9.463-4.452-9.366-9.719.098-5.266 4.453-9.463 9.719-9.365zM50.269 69.339c5.267.097 9.464 4.452 9.366 9.719-.097 5.266-4.452 9.463-9.719 9.365-5.266-.097-9.463-4.452-9.365-9.718.097-5.267 4.452-9.464 9.718-9.366zM110.271 31.898c5.266.097 9.463 4.452 9.365 9.719-.097 5.266-4.452 9.463-9.719 9.365-5.266-.097-9.463-4.452-9.365-9.718.097-5.267 4.452-9.464 9.719-9.366zM71.093 107.615c5.266.097 9.463 4.452 9.366 9.719-.098 5.266-4.453 9.463-9.719 9.365-5.267-.097-9.464-4.452-9.366-9.719.097-5.266 4.452-9.463 9.719-9.365zM115.059 141.732c5.267.097 9.463 4.452 9.366 9.719-.098 5.266-4.452 9.463-9.719 9.365-5.266-.097-9.463-4.452-9.366-9.719.098-5.266 4.453-9.463 9.719-9.365zM163.401 90.949c5.266.097 9.463 4.452 9.365 9.719-.097 5.266-4.452 9.463-9.718 9.365-5.267-.097-9.464-4.452-9.366-9.719.097-5.266 4.452-9.463 9.719-9.365zM189.338 150.244c5.267.097 9.463 4.452 9.366 9.719-.098 5.266-4.453 9.463-9.719 9.365-5.267-.097-9.463-4.452-9.366-9.719.098-5.266 4.453-9.463 9.719-9.365z"/></g></svg>