<svg viewBox="0 0 700 238" xmlns="http://www.w3.org/2000/svg" fill-rule="evenodd" clip-rule="evenodd" stroke-linecap="round" stroke-linejoin="round" stroke-miterlimit="1.5"><g stroke="#000"><path d="M121.125 183.586c-.278 15.22 30.268 2.767 5.133-15.754-28.854-25.579-55.728 22.697-19.182 48.048 21.596 15.504 67.169 13.24 81.971-17.182 4.921-7.45 32.305-61.862-41.674-71.932-56.646 3.14-72.899 3.037-91.482-3.845-33.346-10.551-33.465-50.144-14.286-68.917 52.941-39.354 99.401 9.588 83.306 34.357-19.484 20.777-29.177 1.565-22.235-2.194 22.768.736-1.192-30.578-18.572-.047-5.485 26.743 33.198 40.31 55.902 11.923 23.221-29.034-26.295-97-95.271-66.769-56.373 34.467-29.566 81.903-24.174 89.82 9.208 13.788 39.273 30.125 102.102 22.512 21.247-6.002 80.189 2.223 55.007 47.667-23.173 38.972-83.776 12.489-74.539-8.015-1.22.024 6.702-18.612 17.994.328z" stroke-width="16.67"/><path d="M353.497 203.116c-3.832-1.45-59.356-78.465-98.463-90.825-22.118-6.99-52.86 2.064-46.29 37.64 6.714 30.852 54.356 26.561 52.844 10.974.828.282-.223-13.781-12.381-3.713-3.375 10.134-21.343-4.779.181-11.547 25.722-10.627 32.787 27.192 1.859 35.988-18.397 5.545-51.693-4.614-59.477-33.469-6.135-22.745 8.944-62.778 61.885-53.286 42.737 7.663 104.547 97.743 109.57 99.589l-9.728 8.649z" stroke-width="6.25"/><path d="M360.391 198.778c3.289-2.004 57.855-64.835 91.846-83.039 19.225-10.295 49.201-7.261 49.3 26.75-.852 29.673-45.617 33.971-46.924 19.306-.716.405-2.185-12.772 10.796-5.578 4.876 8.778 18.892-8.118-2.17-10.638-25.61-5.358-25.578 30.812 4.524 33.575 17.961 1.932 46.965-13.23 49.152-41.242 1.724-22.08-19.153-56.455-66.424-38.502-38.16 14.493-100.332 92.112-104.654 94.689l14.554 4.679z" stroke-width="8.33"/><path d="M588.177 175.744c1.924 15.388-30.951 7.107-6.995-15.239 27.037-30.029 59.976 15.085 24.973 45.976-20.626 18.785-67.92 22.968-86.474-5.765-5.883-6.852-40.008-58.114 35.284-78.835 58.819-4.869 75.587-7.284 94.032-16.901 33.291-15.434 29.154-55.583 7.333-71.886C597.44.729 554.741 56.94 574.022 79.759c22.351 18.292 30.291-2.56 22.719-5.383-23.425 3.982-2.058-31.164 19.17-2.687 8.539 26.327-29.938 45.577-56.431 20.03-27.097-26.129 16.709-102.059 91.174-81.22 61.907 26.924 39.336 78.817 34.621 87.608-8.023 15.284-37.304 36.118-102.988 37.331-22.58-3.064-82.547 13.651-51.66 56.135 28.117 36.209 87.834.752 76.091-18.719 1.262-.149-8.922-17.913-18.541 2.89z" stroke-width="12.5"/></g></svg>