<svg viewBox="0 0 96 1130" xmlns="http://www.w3.org/2000/svg" fill-rule="evenodd" clip-rule="evenodd" stroke-linejoin="round" stroke-miterlimit="2"><path d="M40.005 1051.27c21.228.393 38.144 17.947 37.751 39.176-.393 21.229-17.947 38.144-39.176 37.751-21.228-.393-38.144-17.947-37.751-39.175.393-21.229 17.947-38.145 39.176-37.752zM41.958 932.289c21.229.393 38.145 17.947 37.752 39.175-.393 21.229-17.947 38.145-39.176 37.752-21.229-.393-38.145-17.947-37.752-39.176.394-21.228 17.948-38.144 39.176-37.751zM43.854 774.684c21.229.393 38.145 17.947 37.751 39.176-.393 21.228-17.947 38.144-39.175 37.751-21.229-.393-38.145-17.947-37.752-39.176.393-21.228 17.947-38.144 39.176-37.751zM43.037 638.717c21.229.393 38.145 17.947 37.752 39.176-.393 21.229-17.947 38.144-39.176 37.751-21.229-.393-38.145-17.947-37.752-39.175.393-21.229 17.947-38.145 39.176-37.752zM54.554 3.162c21.229.393 38.145 17.947 37.752 39.176-.393 21.229-17.947 38.145-39.176 37.752-21.229-.393-38.145-17.947-37.752-39.176.393-21.229 17.947-38.145 39.176-37.752z"/></svg>