<svg viewBox="0 0 67 1180" xmlns="http://www.w3.org/2000/svg" fill-rule="evenodd" clip-rule="evenodd" stroke-linejoin="round" stroke-miterlimit="2"><path d="M26.143 1129.59c12.567.233 22.58 10.624 22.348 23.19-.233 12.567-10.624 22.58-23.191 22.348-12.566-.233-22.579-10.624-22.347-23.191.233-12.566 10.624-22.579 23.19-22.347zM26.816 978.676c12.567.233 22.58 10.624 22.347 23.191-.232 12.566-10.623 22.579-23.19 22.347-12.566-.233-22.58-10.624-22.347-23.191.233-12.566 10.624-22.579 23.19-22.347zM30.771 879.634c12.566.233 22.58 10.624 22.347 23.19-.233 12.567-10.624 22.58-23.19 22.347-12.566-.232-22.58-10.623-22.347-23.19.232-12.566 10.624-22.58 23.19-22.347zM31.444 728.719c12.566.233 22.58 10.624 22.347 23.19-.233 12.567-10.624 22.58-23.19 22.348-12.567-.233-22.58-10.624-22.347-23.191.232-12.566 10.623-22.579 23.19-22.347zM40.644 571.431c12.567.232 22.58 10.623 22.347 23.19-.232 12.566-10.624 22.58-23.19 22.347-12.566-.233-22.58-10.624-22.347-23.19.233-12.567 10.624-22.58 23.19-22.347zM40.161 490.944c12.566.233 22.579 10.624 22.347 23.191-.233 12.566-10.624 22.58-23.19 22.347-12.567-.233-22.58-10.624-22.348-23.19.233-12.567 10.624-22.58 23.191-22.348zM28.26 191.751c12.566.232 22.58 10.624 22.347 23.19-.233 12.566-10.624 22.58-23.19 22.347-12.567-.233-22.58-10.624-22.347-23.19.232-12.566 10.623-22.58 23.19-22.347zM29.643 2.492c12.566.232 22.579 10.624 22.347 23.19-.233 12.566-10.624 22.58-23.191 22.347-12.566-.232-22.579-10.624-22.347-23.19.233-12.566 10.624-22.58 23.191-22.347z"/></svg>