<svg viewBox="0 0 446 521" xmlns="http://www.w3.org/2000/svg" fill-rule="evenodd" clip-rule="evenodd" stroke-linecap="round" stroke-linejoin="round" stroke-miterlimit="1.5"><path d="M428.905 483.04c1.391-27.343-17.619-37.338-25.745-37.393l-352.713-2.378c-8.126-.055-37.131.658-34.13 33.319 2.93 21.618 25.608 25.518 33.733 25.573l352.713 2.378c8.126.055 24.445-7.746 26.142-21.499z" stroke="#000" stroke-width="31.25"/><path d="M406.743 222.912a2.995 2.995 0 00-2.973-3.014l-5.987-.04a2.994 2.994 0 00-3.013 2.973l-1.69 250.673a2.994 2.994 0 002.973 3.013l5.986.04a2.995 2.995 0 003.014-2.973l1.69-250.672zM62.799 219.69a3.906 3.906 0 00-3.878-3.93l-7.808-.053a3.906 3.906 0 00-3.93 3.878l-1.678 248.851a3.906 3.906 0 003.878 3.931l7.808.052a3.905 3.905 0 003.93-3.877l1.678-248.852z" stroke="#000" stroke-width="31.25"/><path d="M9.215 196.692C16.798 153.227 55.625 9.829 214.231 3.486 372.325-2.837 452.05 146.146 443.22 193.024c-10.151 52.275-69.995 42.503-75.993 13.867-15.099-62.752-45.617-100.224-146.456-99.11-120.475 1.514-116.807 83.983-136.136 111.097C59.805 253.709.1 248.931 9.215 196.692z"/><path d="M126.685 400.064c-51.307-13.805-50.591-276.117 95.272-264.666 31.488 1.424 73.765-5.203 99.721 38.95 44.22 75.22 48.93 218.17 3.757 226.02-36.187 8.836-140.751 15.301-198.75-.304z" fill="#fff" stroke="#000" stroke-width="31.25"/><path d="M221.613 153.948l4.588 238.727" fill="none" stroke="#000" stroke-width="41.67"/><path d="M110.421 289.759c1.25.227 20.772-.433 48.108-1.495 69.106-2.684 188.146-7.941 188.146-7.941" fill="none" stroke="#000" stroke-width="37.5"/></svg>