<?xml version="1.0" encoding="UTF-8" standalone="no"?>
<!DOCTYPE svg PUBLIC "-//W3C//DTD SVG 1.1//EN" "http://www.w3.org/Graphics/SVG/1.1/DTD/svg11.dtd">
<svg width="100%" height="100%" viewBox="0 0 221 126" version="1.1" xmlns="http://www.w3.org/2000/svg" xmlns:xlink="http://www.w3.org/1999/xlink" xml:space="preserve" xmlns:serif="http://www.serif.com/" style="fill-rule:evenodd;clip-rule:evenodd;stroke-linecap:round;stroke-linejoin:round;stroke-miterlimit:1.5;">
    <g transform="matrix(1,0,0,1,-115,-70)">
        <g transform="matrix(1,0,0,1,107.533,62.3999)">
            <g id="額縁" transform="matrix(1,0,0,1,-3.59781,-0.2001)">
                <g id="はじ">
                    <g transform="matrix(0.707388,0.706825,-0.706825,0.707388,87.0892,-21.5869)">
                        <g id="くるくる" transform="matrix(0.0833419,-0.307433,-0.307433,-0.0833419,100.492,214.564)">
                            <g id="くるくる1" serif:id="くるくる" transform="matrix(-2.18461,-0.0380056,-0.0378047,2.17306,1353.51,-218.905)">
                                <path d="M483.067,212.387C489.983,215.867 502.719,206.09 505.608,203.581C512.312,198.055 523.571,198.943 521.904,208.37C522.077,210.901 521.278,211.623 519.569,212.265C517.235,212.918 512.084,213.745 511.256,210.863C510.41,207.371 514.262,205.891 515.228,208.279C516.122,210.811 513.765,209.85 513.701,209.951C513.622,210.107 514.034,210.509 515.14,210.72C519.935,210.465 520.118,209.06 519.474,205.161C518.557,199.977 509.295,202.983 505.487,206.531C503.242,208.823 500.821,210.514 498.431,211.744C490.992,215.57 483.841,214.92 483.135,213.921C483.251,213.788 483.207,212.426 483.067,212.387Z" style="fill:rgb(206,184,153);stroke:rgb(83,45,59);stroke-width:1.44px;"/>
                            </g>
                            <g id="くるくる2" serif:id="くるくる" transform="matrix(-2.37915,0.0440458,0.0440458,2.37915,1435.43,-306.817)">
                                <path d="M483.067,212.387C489.983,215.867 502.719,206.09 505.608,203.581C512.312,198.055 523.571,198.943 521.904,208.37C522.077,210.901 521.278,211.623 519.569,212.265C517.235,212.918 512.084,213.745 511.256,210.863C510.41,207.371 514.262,205.891 515.228,208.279C516.122,210.811 513.765,209.85 513.701,209.951C513.622,210.107 514.034,210.509 515.14,210.72C519.935,210.465 520.118,209.06 519.474,205.161C518.557,199.977 509.295,202.983 505.487,206.531C496.254,215.952 484.068,215.241 483.135,213.921C483.251,213.788 483.207,212.426 483.067,212.387Z" style="fill:rgb(91,81,73);stroke:rgb(83,45,59);stroke-width:1.32px;"/>
                            </g>
                            <g id="くるくる3" serif:id="くるくる" transform="matrix(-2.9558,0.0547214,0.0547214,2.9558,1729.01,-431.389)">
                                <path d="M487.773,209.516C494.227,211.814 500.935,207.699 505.608,203.581C512.312,198.055 523.164,199.193 521.497,208.62C521.171,209.357 520.92,211.533 518.525,212.269C516.191,212.921 512.084,213.745 511.256,210.863C510.41,207.371 514.262,205.891 515.228,208.279C516.122,210.811 513.765,209.85 513.701,209.951C513.622,210.107 514.034,210.509 515.14,210.72C519.935,210.465 520.118,209.06 519.474,205.161C518.557,199.977 509.295,202.983 505.487,206.531C496.329,214.543 488.491,211.739 488.386,211.62C488.182,211.623 487.184,209.922 487.773,209.516Z" style="fill:rgb(91,81,73);stroke:rgb(83,45,59);stroke-width:1.06px;"/>
                            </g>
                        </g>
                        <g id="くるくる4" serif:id="くるくる" transform="matrix(0.13255,-0.488952,-0.488952,-0.13255,128.347,266.502)">
                            <g id="くるくる5" serif:id="くるくる" transform="matrix(-2.18461,-0.0380056,-0.0378047,2.17306,1353.51,-218.905)">
                                <path d="M483.067,212.387C489.983,215.867 502.719,206.09 505.608,203.581C512.312,198.055 523.571,198.943 521.904,208.37C522.077,210.901 521.278,211.623 519.569,212.265C517.235,212.918 512.084,213.745 511.256,210.863C510.41,207.371 514.262,205.891 515.228,208.279C516.122,210.811 513.765,209.85 513.701,209.951C513.622,210.107 514.034,210.509 515.14,210.72C519.935,210.465 520.118,209.06 519.474,205.161C518.557,199.977 509.295,202.983 505.487,206.531C496.254,215.952 484.068,215.241 483.135,213.921C483.251,213.788 483.207,212.426 483.067,212.387Z" style="fill:rgb(206,184,153);stroke:rgb(83,45,59);stroke-width:0.91px;"/>
                            </g>
                            <g id="くるくる6" serif:id="くるくる" transform="matrix(-2.37915,0.0440458,0.0440458,2.37915,1435.43,-306.817)">
                                <path d="M483.067,212.387C489.983,215.867 502.719,206.09 505.608,203.581C512.312,198.055 523.571,198.943 521.904,208.37C522.077,210.901 521.278,211.623 519.569,212.265C517.235,212.918 512.084,213.745 511.256,210.863C510.41,207.371 514.262,205.891 515.228,208.279C516.122,210.811 513.765,209.85 513.701,209.951C513.622,210.107 514.034,210.509 515.14,210.72C519.935,210.465 520.118,209.06 519.474,205.161C518.557,199.977 509.295,202.983 505.487,206.531C496.254,215.952 484.068,215.241 483.135,213.921C483.251,213.788 483.207,212.426 483.067,212.387Z" style="fill:rgb(83,45,59);stroke:rgb(83,45,59);stroke-width:0.83px;"/>
                            </g>
                            <g id="くるくる7" serif:id="くるくる" transform="matrix(-2.9558,0.0547214,0.0547214,2.9558,1729.01,-431.389)">
                                <path d="M487.773,209.516C494.227,211.814 500.935,207.699 505.608,203.581C512.312,198.055 523.164,199.193 521.497,208.62C521.171,209.357 520.92,211.533 518.525,212.269C516.191,212.921 512.084,213.745 511.256,210.863C510.41,207.371 514.262,205.891 515.228,208.279C516.122,210.811 513.765,209.85 513.701,209.951C513.622,210.107 514.034,210.509 515.14,210.72C519.935,210.465 520.118,209.06 519.474,205.161C518.557,199.977 509.295,202.983 505.487,206.531C496.329,214.543 488.491,211.739 488.386,211.62C488.182,211.623 487.184,209.922 487.773,209.516Z" style="fill:rgb(91,81,73);stroke:rgb(83,45,59);stroke-width:0.67px;"/>
                            </g>
                        </g>
                        <g id="くるくる8" serif:id="くるくる" transform="matrix(0.261646,-0.965164,-0.965164,-0.261646,200.397,399.374)">
                            <g id="くるくる9" serif:id="くるくる" transform="matrix(-2.18461,-0.0380056,-0.0378047,2.17306,1353.51,-218.905)">
                                <path d="M483.067,212.387C489.983,215.867 502.719,206.09 505.608,203.581C512.312,198.055 523.571,198.943 521.904,208.37C522.077,210.901 521.278,211.623 519.569,212.265C517.235,212.918 512.084,213.745 511.256,210.863C510.41,207.371 514.262,205.891 515.228,208.279C516.122,210.811 513.765,209.85 513.701,209.951C513.622,210.107 514.034,210.509 515.14,210.72C519.935,210.465 520.118,209.06 519.474,205.161C518.557,199.977 509.295,202.983 505.487,206.531C496.254,215.952 484.068,215.241 483.135,213.921C483.251,213.788 483.207,212.426 483.067,212.387Z" style="fill:rgb(91,81,73);stroke:rgb(83,45,59);stroke-width:0.46px;"/>
                            </g>
                            <g id="くるくる10" serif:id="くるくる" transform="matrix(-2.37915,0.0440458,0.0440458,2.37915,1435.43,-306.817)">
                                <path d="M483.067,212.387C489.983,215.867 502.719,206.09 505.608,203.581C512.312,198.055 523.571,198.943 521.904,208.37C522.077,210.901 521.278,211.623 519.569,212.265C517.235,212.918 512.084,213.745 511.256,210.863C510.41,207.371 514.262,205.891 515.228,208.279C516.122,210.811 513.765,209.85 513.701,209.951C513.622,210.107 514.034,210.509 515.14,210.72C519.935,210.465 520.118,209.06 519.474,205.161C518.557,199.977 509.295,202.983 505.487,206.531C496.254,215.952 484.068,215.241 483.135,213.921C483.251,213.788 483.207,212.426 483.067,212.387Z" style="fill:rgb(200,178,115);stroke:rgb(83,45,59);stroke-width:0.42px;"/>
                            </g>
                            <g id="くるくる11" serif:id="くるくる" transform="matrix(-2.9558,0.0547214,0.0547214,2.9558,1729.01,-431.389)">
                                <path d="M487.773,209.516C494.227,211.814 500.935,207.699 505.608,203.581C512.312,198.055 523.164,199.193 521.497,208.62C521.171,209.357 520.92,211.533 518.525,212.269C516.191,212.921 512.084,213.745 511.256,210.863C510.41,207.371 514.262,205.891 515.228,208.279C516.122,210.811 513.765,209.85 513.701,209.951C513.622,210.107 514.034,210.509 515.14,210.72C519.935,210.465 520.118,209.06 519.474,205.161C518.557,199.977 509.295,202.983 505.487,206.531C496.329,214.543 488.491,211.739 488.386,211.62C488.182,211.623 487.184,209.922 487.773,209.516Z" style="fill:rgb(200,178,115);stroke:rgb(83,45,59);stroke-width:0.34px;"/>
                            </g>
                        </g>
                    </g>
                    <g transform="matrix(-0.706825,0.707388,0.707388,0.706825,155.438,-21.5633)">
                        <g id="くるくる12" serif:id="くるくる" transform="matrix(0.0833419,-0.307433,-0.307433,-0.0833419,100.492,214.564)">
                            <g id="くるくる13" serif:id="くるくる" transform="matrix(-2.18461,-0.0380056,-0.0378047,2.17306,1353.51,-218.905)">
                                <path d="M483.067,212.387C489.983,215.867 502.719,206.09 505.608,203.581C512.312,198.055 523.571,198.943 521.904,208.37C522.077,210.901 521.278,211.623 519.569,212.265C517.235,212.918 512.084,213.745 511.256,210.863C510.41,207.371 514.262,205.891 515.228,208.279C516.122,210.811 513.765,209.85 513.701,209.951C513.622,210.107 514.034,210.509 515.14,210.72C519.935,210.465 520.118,209.06 519.474,205.161C518.557,199.977 509.295,202.983 505.487,206.531C496.254,215.952 484.068,215.241 483.135,213.921C483.251,213.788 483.207,212.426 483.067,212.387Z" style="fill:rgb(205,183,152);stroke:rgb(83,45,59);stroke-width:1.44px;"/>
                            </g>
                            <g id="くるくる14" serif:id="くるくる" transform="matrix(-2.37915,0.0440458,0.0440458,2.37915,1435.43,-306.817)">
                                <path d="M483.067,212.387C489.983,215.867 502.719,206.09 505.608,203.581C512.312,198.055 523.571,198.943 521.904,208.37C522.077,210.901 521.278,211.623 519.569,212.265C517.235,212.918 512.084,213.745 511.256,210.863C510.41,207.371 514.262,205.891 515.228,208.279C516.122,210.811 513.765,209.85 513.701,209.951C513.622,210.107 514.034,210.509 515.14,210.72C519.935,210.465 520.118,209.06 519.474,205.161C518.557,199.977 509.295,202.983 505.487,206.531C496.254,215.952 484.068,215.241 483.135,213.921C483.251,213.788 483.207,212.426 483.067,212.387Z" style="fill:rgb(205,183,152);stroke:rgb(83,45,59);stroke-width:1.32px;"/>
                            </g>
                            <g id="くるくる15" serif:id="くるくる" transform="matrix(-2.9558,0.0547214,0.0547214,2.9558,1729.01,-431.389)">
                                <path d="M487.773,209.516C494.227,211.814 500.935,207.699 505.608,203.581C512.312,198.055 523.164,199.193 521.497,208.62C521.171,209.357 520.92,211.533 518.525,212.269C516.191,212.921 512.084,213.745 511.256,210.863C510.41,207.371 514.262,205.891 515.228,208.279C516.122,210.811 513.765,209.85 513.701,209.951C513.622,210.107 514.034,210.509 515.14,210.72C519.935,210.465 520.118,209.06 519.474,205.161C518.557,199.977 509.295,202.983 505.487,206.531C496.329,214.543 488.491,211.739 488.386,211.62C488.182,211.623 487.184,209.922 487.773,209.516Z" style="fill:rgb(91,81,73);stroke:rgb(83,45,59);stroke-width:1.06px;"/>
                            </g>
                        </g>
                        <g id="くるくる16" serif:id="くるくる" transform="matrix(0.13255,-0.488952,-0.488952,-0.13255,128.347,266.502)">
                            <g id="くるくる17" serif:id="くるくる" transform="matrix(-2.18461,-0.0380056,-0.0378047,2.17306,1353.51,-218.905)">
                                <path d="M483.067,212.387C489.983,215.867 502.719,206.09 505.608,203.581C512.312,198.055 523.571,198.943 521.904,208.37C522.077,210.901 521.278,211.623 519.569,212.265C517.235,212.918 512.084,213.745 511.256,210.863C510.41,207.371 514.262,205.891 515.228,208.279C516.122,210.811 513.765,209.85 513.701,209.951C513.622,210.107 514.034,210.509 515.14,210.72C519.935,210.465 520.118,209.06 519.474,205.161C518.557,199.977 509.295,202.983 505.487,206.531C496.254,215.952 484.068,215.241 483.135,213.921C483.251,213.788 483.207,212.426 483.067,212.387Z" style="fill:rgb(205,183,152);stroke:rgb(83,45,59);stroke-width:0.91px;"/>
                            </g>
                            <g id="くるくる18" serif:id="くるくる" transform="matrix(-2.37915,0.0440458,0.0440458,2.37915,1435.43,-306.817)">
                                <path d="M483.067,212.387C489.983,215.867 502.719,206.09 505.608,203.581C512.312,198.055 523.571,198.943 521.904,208.37C522.077,210.901 521.278,211.623 519.569,212.265C517.235,212.918 512.084,213.745 511.256,210.863C510.41,207.371 514.262,205.891 515.228,208.279C516.122,210.811 513.765,209.85 513.701,209.951C513.622,210.107 514.034,210.509 515.14,210.72C519.935,210.465 520.118,209.06 519.474,205.161C518.557,199.977 509.295,202.983 505.487,206.531C502.712,209.363 499.67,211.279 496.747,212.538C489.945,215.469 483.788,214.844 483.135,213.921C483.251,213.788 483.207,212.426 483.067,212.387Z" style="fill:rgb(83,45,59);stroke:rgb(83,45,59);stroke-width:0.83px;"/>
                            </g>
                            <g id="くるくる19" serif:id="くるくる" transform="matrix(-2.9558,0.0547214,0.0547214,2.9558,1729.01,-431.389)">
                                <path d="M487.773,209.516C494.227,211.814 500.935,207.699 505.608,203.581C512.312,198.055 523.164,199.193 521.497,208.62C521.171,209.357 520.92,211.533 518.525,212.269C516.191,212.921 512.084,213.745 511.256,210.863C510.41,207.371 514.262,205.891 515.228,208.279C516.122,210.811 513.765,209.85 513.701,209.951C513.622,210.107 514.034,210.509 515.14,210.72C519.935,210.465 520.118,209.06 519.474,205.161C518.557,199.977 509.295,202.983 505.487,206.531C496.329,214.543 488.491,211.739 488.386,211.62C488.182,211.623 487.184,209.922 487.773,209.516Z" style="fill:rgb(91,81,73);stroke:rgb(83,45,59);stroke-width:0.67px;"/>
                            </g>
                        </g>
                        <g id="くるくる20" serif:id="くるくる" transform="matrix(0.261646,-0.965164,-0.965164,-0.261646,200.397,399.374)">
                            <g id="くるくる21" serif:id="くるくる" transform="matrix(-2.18461,-0.0380056,-0.0378047,2.17306,1353.51,-218.905)">
                                <path d="M483.067,212.387C489.983,215.867 502.719,206.09 505.608,203.581C512.312,198.055 523.571,198.943 521.904,208.37C522.077,210.901 521.278,211.623 519.569,212.265C517.235,212.918 512.084,213.745 511.256,210.863C510.41,207.371 514.262,205.891 515.228,208.279C516.122,210.811 513.765,209.85 513.701,209.951C513.622,210.107 514.034,210.509 515.14,210.72C519.935,210.465 520.118,209.06 519.474,205.161C518.557,199.977 509.295,202.983 505.487,206.531C496.254,215.952 484.068,215.241 483.135,213.921C483.251,213.788 483.207,212.426 483.067,212.387Z" style="fill:rgb(91,81,73);stroke:rgb(83,45,59);stroke-width:0.46px;"/>
                            </g>
                            <g id="くるくる22" serif:id="くるくる" transform="matrix(-2.37915,0.0440458,0.0440458,2.37915,1435.43,-306.817)">
                                <path d="M483.067,212.387C489.983,215.867 502.719,206.09 505.608,203.581C512.312,198.055 523.571,198.943 521.904,208.37C522.077,210.901 521.278,211.623 519.569,212.265C517.235,212.918 512.084,213.745 511.256,210.863C510.41,207.371 514.262,205.891 515.228,208.279C516.122,210.811 513.765,209.85 513.701,209.951C513.622,210.107 514.034,210.509 515.14,210.72C519.935,210.465 520.118,209.06 519.474,205.161C518.557,199.977 509.295,202.983 505.487,206.531C496.254,215.952 484.068,215.241 483.135,213.921C483.251,213.788 483.207,212.426 483.067,212.387Z" style="fill:rgb(200,178,115);stroke:rgb(83,45,59);stroke-width:0.42px;"/>
                            </g>
                            <g id="くるくる23" serif:id="くるくる" transform="matrix(-2.9558,0.0547214,0.0547214,2.9558,1729.01,-431.389)">
                                <path d="M487.773,209.516C494.227,211.814 500.935,207.699 505.608,203.581C512.312,198.055 523.164,199.193 521.497,208.62C521.171,209.357 520.92,211.533 518.525,212.269C516.191,212.921 512.084,213.745 511.256,210.863C510.41,207.371 514.262,205.891 515.228,208.279C516.122,210.811 513.765,209.85 513.701,209.951C513.622,210.107 514.034,210.509 515.14,210.72C519.935,210.465 520.118,209.06 519.474,205.161C518.557,199.977 509.295,202.983 505.487,206.531C496.329,214.543 488.491,211.739 488.386,211.62C488.182,211.623 487.184,209.922 487.773,209.516Z" style="fill:rgb(200,178,115);stroke:rgb(83,45,59);stroke-width:0.34px;"/>
                            </g>
                        </g>
                    </g>
                </g>
                <g id="かざり" transform="matrix(1.47888,-1.02618e-17,1.02618e-17,1.47888,-309.562,-233.381)">
                    <g transform="matrix(0.999829,-0.0185101,0.0185101,0.999829,142.992,-102.331)">
                        <path d="M142.93,279.647C143.153,279.589 143.357,279.34 143.623,278.908C143.756,278.697 143.97,278.448 144.243,278.179C144.709,277.821 145.19,277.459 145.612,277.033C147.203,275.866 149.291,274.79 150.458,275.05C151.797,277.813 150.113,279.402 150.869,279.788C151.308,280.182 153.52,278.943 152.867,279.788C152.952,281.179 150.933,283.762 149.344,283.548C147.185,283.139 146.651,285.096 146.664,285.406C146.259,286.592 147.599,288.09 147.599,288.09C147.599,288.09 147.778,284.901 149.406,284.892C150.64,284.891 150.397,285.701 150.695,286C151.504,286.688 153.387,284.841 153.387,284.841C153.387,284.841 153.166,287.765 153.185,288.126C155.245,289.321 153.047,291.98 151.96,290.296C149.626,288.205 146.887,292.362 147.444,293.82C148.968,292.856 149.942,291.279 149.942,291.279C149.942,291.279 149.492,292.593 152.347,293.63C152.792,294.012 152.177,293.166 153.042,292.644C153.311,292.477 153.982,292.449 154.346,292.83C157.784,296.953 161.018,306.551 159.668,313.527C158.023,322.323 148.903,326.075 142.982,326.413L142.982,326.418L142.93,326.416L142.878,326.418L142.878,326.413C136.956,326.075 127.837,322.323 126.192,313.527C124.841,306.551 128.076,296.953 131.513,292.83C131.896,292.405 132.501,292.056 133.101,292.569C133.734,293.252 133.076,294.005 133.513,293.63C136.367,292.593 135.918,291.279 135.918,291.279C135.918,291.279 136.891,292.856 138.416,293.82C138.972,292.362 136.233,288.205 133.9,290.296C132.813,291.98 130.614,289.321 132.674,288.126C132.694,287.765 132.472,284.841 132.472,284.841C132.472,284.841 134.356,286.688 135.164,286C135.463,285.701 135.22,284.891 136.453,284.892C138.081,284.901 138.261,288.09 138.261,288.09C138.261,288.09 139.601,286.592 139.195,285.406C139.208,285.096 138.674,283.139 136.515,283.548C134.926,283.762 132.908,281.179 132.992,279.788C132.339,278.943 134.552,280.182 134.991,279.788C135.746,279.402 134.062,277.813 135.402,275.05C136.568,274.79 138.657,275.866 140.248,277.033C140.669,277.459 141.151,277.821 141.617,278.179C141.89,278.448 142.103,278.697 142.237,278.908C142.503,279.34 142.707,279.589 142.93,279.647ZM142.93,269.016C144.157,268.866 145.763,272.081 146.784,273.019C147.093,274.995 146.481,276.152 145.612,277.033C145.083,277.42 144.61,277.817 144.243,278.179C143.784,278.531 143.34,278.88 142.982,279.284L142.982,279.405C142.965,279.385 142.947,279.364 142.93,279.343C142.912,279.364 142.895,279.385 142.878,279.405L142.878,279.284C142.52,278.88 142.075,278.531 141.617,278.179C141.25,277.817 140.776,277.42 140.248,277.033C139.379,276.152 138.767,274.995 139.075,273.019C140.097,272.081 141.702,268.866 142.93,269.016Z" style="fill:rgb(200,178,115);stroke:rgb(83,45,59);stroke-width:0.61px;"/>
                    </g>
                    <g transform="matrix(0.999829,-0.0185101,0.0185101,0.999829,143.503,-102.331)">
                        <path d="M141.999,332.979C141.979,332.978 141.959,332.977 141.938,332.976C140.685,332.559 138.269,331.427 140.086,330.473C140.337,330.408 140.444,329.681 140.231,329.793C139.745,330.239 139.563,331.106 138.452,330.385C138.398,330.057 140.361,326.568 138.526,327.116C138.494,327.55 139.218,329.661 136.633,329.654C136.548,328.929 136.677,328.323 136.581,328.312C136.568,328.311 135.85,329.931 133.35,328.568C137.793,327.201 136.684,325.63 137.969,324.627L142.152,324.771L142.152,324.772L146.182,324.633C147.468,325.636 146.359,327.207 150.801,328.574C148.302,329.937 147.583,328.317 147.571,328.318C147.475,328.329 147.603,328.936 147.519,329.66C144.934,329.667 145.657,327.556 145.626,327.123C143.791,326.574 145.754,330.063 145.7,330.391C144.589,331.112 144.406,330.245 143.921,329.799C143.708,329.687 143.815,330.414 144.066,330.48C145.883,331.433 143.467,332.565 142.213,332.982C142.142,332.987 142.071,332.988 141.999,332.984L141.999,332.979Z" style="fill:rgb(200,178,115);stroke:rgb(83,45,59);stroke-width:0.61px;"/>
                    </g>
                    <g transform="matrix(-1.13418,0.211454,0.211454,1.13418,372.998,-169.696)">
                        <path d="M117.889,295.004C115.782,294.27 114.244,297.608 114.027,300.933C113.551,305.673 113.517,313.733 120.035,317.829C120.802,317.67 121.049,315.803 121.03,315.934C118.632,314.77 115.625,311.831 117.229,309.895C119.568,307.134 116.9,305.562 115.639,308.745C114.819,305.328 115.134,301.73 116.181,299.708C116.66,300.272 119.163,299.977 119.791,299.271C120.421,298.71 120.958,296.441 117.889,295.004Z" style="fill:rgb(91,81,73);stroke:rgb(83,45,59);stroke-width:0.59px;"/>
                    </g>
                    <g transform="matrix(1.13418,0.211454,-0.211454,1.13418,209.713,-169.696)">
                        <path d="M117.889,295.004C115.782,294.27 114.244,297.608 114.027,300.933C113.551,305.673 113.517,313.733 120.035,317.829C121.642,317.252 121.11,316.244 121.03,315.934C118.632,314.77 115.625,311.831 117.229,309.895C119.568,307.134 116.9,305.562 115.639,308.745C114.819,305.328 115.134,301.73 116.181,299.708C116.66,300.272 119.163,299.977 119.791,299.271C120.421,298.71 120.958,296.441 117.889,295.004Z" style="fill:rgb(91,81,73);stroke:rgb(83,45,59);stroke-width:0.59px;"/>
                    </g>
                    <g transform="matrix(-1,3.46945e-18,1.04083e-17,1,432.414,-109.849)">
                        <path d="M128.045,322.095C128.691,321.537 129.521,321.148 131.069,321.285C133.93,321.645 137.27,324.401 137.138,328.332L137.139,328.333L137.138,328.333C137.084,329.075 136.785,329.771 136.18,330.393C133.895,332.625 131.694,330.236 131.554,328.181C132.124,325.838 133.167,327.794 134.02,327.815C134.431,327.857 134.567,326.883 133.509,325.941C131.901,324.582 130.464,323.851 130.487,324.407C130.456,325.26 132.346,326.419 129.973,326.846C127.929,326.582 125.678,324.24 128.045,322.095Z" style="fill:rgb(200,178,115);stroke:rgb(83,45,59);stroke-width:0.68px;"/>
                    </g>
                    <g id="オーバル" transform="matrix(0.199361,0.00369081,-0.00369081,0.199361,199.026,189.414)">
                        <g transform="matrix(1.11131,-0.0205739,0.0213023,1.15065,317.145,47.7377)">
                            <ellipse cx="133.379" cy="81.683" rx="8.451" ry="11.258" style="fill:rgb(200,178,115);stroke:rgb(83,45,59);stroke-width:0.6px;"/>
                        </g>
                        <g transform="matrix(0.970267,-0.0179628,0.0185987,1.00461,336.178,59.3181)">
                            <ellipse cx="133.379" cy="81.683" rx="8.451" ry="11.258" style="fill:rgb(200,178,115);stroke:rgb(83,45,59);stroke-width:0.17px;"/>
                        </g>
                        <g transform="matrix(0.836447,-0.0154853,0.0160335,0.866057,354.237,70.3054)">
                            <ellipse cx="133.379" cy="81.683" rx="8.451" ry="11.258" style="fill:rgb(64,63,111);"/>
                        </g>
                        <g transform="matrix(0.743482,-0.0137643,0.0122455,0.661443,366.153,86.4298)">
                            <path d="M124.928,82.249C124.928,63.946 141.83,63.38 141.83,81.683C141.83,85.484 140.452,95.498 133.863,95.576C127.274,95.576 124.867,88.172 124.928,82.249Z" style="fill:rgb(83,45,59);"/>
                        </g>
                    </g>
                    <g transform="matrix(1,-3.46945e-18,1.04083e-17,1,150.065,-109.849)">
                        <path d="M128.045,322.095C128.691,321.537 129.521,321.148 131.069,321.285C133.93,321.645 137.27,324.401 137.138,328.332L137.139,328.333L137.138,328.333C137.084,329.075 136.785,329.771 136.18,330.393C133.895,332.625 131.694,330.236 131.554,328.181C132.124,325.838 133.167,327.794 134.02,327.815C134.431,327.857 134.567,326.883 133.509,325.941C131.901,324.582 130.464,323.851 130.487,324.407C130.456,325.26 132.346,326.419 129.973,326.846C127.929,326.582 125.678,324.24 128.045,322.095Z" style="fill:rgb(200,178,115);stroke:rgb(83,45,59);stroke-width:0.68px;"/>
                    </g>
                    <g transform="matrix(1,-1.83138e-17,2.22665e-17,2.13929,-80.1518,-108.04)">
                        <path d="M368.358,143.989C368.354,143.78 368.381,143.567 368.381,143.467C368.381,143.467 368.974,143.304 369.27,142.829C369.74,141.964 370.639,141.595 371.517,141.646C372.419,141.569 373.357,141.934 373.84,142.824C374.136,143.298 374.729,143.462 374.729,143.462C374.729,143.563 374.756,143.778 374.752,143.989C374.756,144.2 374.729,144.415 374.729,144.516C374.729,144.516 374.136,144.68 373.84,145.154C373.357,146.045 372.419,146.41 371.517,146.333C370.639,146.383 369.74,146.014 369.27,145.149C368.974,144.675 368.381,144.511 368.381,144.511C368.381,144.411 368.354,144.198 368.358,143.989Z" style="fill:rgb(91,81,73);stroke:rgb(83,45,59);stroke-width:0.36px;"/>
                    </g>
                    <g transform="matrix(1.00004,0,-1.54074e-33,1.00004,0.197338,-0.00806536)">
                        <g transform="matrix(-0.870072,3.01867e-18,9.00897e-18,0.865553,395.708,-47.8557)">
                            <path d="M114.987,298.08C110.212,297.247 107.22,292.034 108.469,285.048C108.743,283.518 109.337,282.82 110.045,282.343C111.396,281.545 112.901,281.165 113.781,281.789C115.104,282.719 115.957,283.633 114.568,284.877C113.194,286.195 112.481,284.847 111.634,285.307C108.719,286.905 112.091,296.296 114.596,294.74C114.86,294.178 116.573,292.912 118.025,294.328C118.654,294.931 118.82,295.504 118.47,296.409C118.029,297.993 116.534,298.358 114.987,298.08Z" style="fill:rgb(91,81,73);stroke:rgb(83,45,59);stroke-width:0.78px;"/>
                        </g>
                        <g transform="matrix(0.870072,-3.01867e-18,9.00897e-18,0.865553,187.149,-47.8557)">
                            <path d="M114.987,298.08C110.212,297.247 107.22,292.034 108.469,285.048C108.743,283.518 109.337,282.82 110.045,282.343C111.396,281.545 112.901,281.165 113.781,281.789C115.104,282.719 115.957,283.633 114.568,284.877C113.194,286.195 112.481,284.847 111.634,285.307C108.719,286.905 112.091,296.296 114.596,294.74C114.86,294.178 116.573,292.912 118.025,294.328C118.654,294.931 118.82,295.504 118.47,296.409C118.029,297.993 116.534,298.358 114.987,298.08Z" style="fill:rgb(91,81,73);stroke:rgb(83,45,59);stroke-width:0.78px;"/>
                        </g>
                    </g>
                    <g transform="matrix(0.722599,-0.697888,0.69933,0.724092,-32.2777,48.3126)">
                        <path d="M128.045,322.095C128.691,321.537 129.521,321.148 131.069,321.285C133.93,321.645 137.27,324.401 137.138,328.332L137.139,328.333L137.138,328.333C137.084,329.075 136.785,329.771 136.18,330.393C133.895,332.625 131.694,330.236 131.554,328.181C132.124,325.838 133.167,327.794 134.02,327.815C134.431,327.857 134.567,326.883 133.509,325.941C131.901,324.582 130.464,323.851 130.487,324.407C130.456,325.26 132.346,326.419 129.973,326.846C127.929,326.582 125.678,324.24 128.045,322.095Z" style="fill:rgb(91,81,73);stroke:rgb(83,45,59);stroke-width:0.67px;"/>
                    </g>
                    <g transform="matrix(0.424988,-1.47447e-18,4.31904e-18,0.414959,222.243,52.8102)">
                        <circle cx="161.748" cy="297.032" r="1.079" style="fill:rgb(91,81,73);stroke:rgb(83,45,59);stroke-width:0.48px;"/>
                    </g>
                    <g transform="matrix(0.424988,-1.47447e-18,4.31904e-18,0.414959,222.243,51.8102)">
                        <circle cx="161.748" cy="297.032" r="1.079" style="fill:rgb(91,81,73);stroke:rgb(83,45,59);stroke-width:0.48px;"/>
                    </g>
                    <g transform="matrix(0.424988,-1.47447e-18,4.31904e-18,0.414959,222.243,50.8102)">
                        <circle cx="161.748" cy="297.032" r="1.079" style="fill:rgb(91,81,73);stroke:rgb(83,45,59);stroke-width:0.48px;"/>
                    </g>
                    <g transform="matrix(0.520755,-1.80673e-18,5.29229e-18,0.508466,206.753,21.9346)">
                        <circle cx="161.748" cy="297.032" r="1.079" style="fill:rgb(91,81,73);stroke:rgb(83,45,59);stroke-width:0.39px;"/>
                    </g>
                    <g transform="matrix(0.645972,-2.24117e-18,6.56484e-18,0.630729,186.499,-15.6258)">
                        <circle cx="161.748" cy="297.032" r="1.079" style="fill:rgb(91,81,73);stroke:rgb(83,45,59);stroke-width:0.32px;"/>
                    </g>
                    <g transform="matrix(0.758564,-2.6318e-18,7.70909e-18,0.740664,168.288,-49.9055)">
                        <circle cx="161.748" cy="297.032" r="1.079" style="fill:rgb(91,81,73);stroke:rgb(83,45,59);stroke-width:0.27px;"/>
                    </g>
                </g>
                <g id="真ん中" transform="matrix(1,0,0,1,-5.36974,0)">
                    <g transform="matrix(0.178742,-1.12948,1.12948,0.178742,-6.50912,155.412)">
                        <g id="くるくる24" serif:id="くるくる" transform="matrix(-0.0833419,0.307433,0.307433,0.0833419,46.8569,-9.35267)">
                            <g id="くるくる25" serif:id="くるくる" transform="matrix(-2.18461,-0.0380056,-0.0378047,2.17306,1353.51,-218.905)">
                                <path d="M483.067,212.387C489.983,215.867 502.719,206.09 505.608,203.581C512.312,198.055 523.571,198.943 521.904,208.37C522.077,210.901 521.278,211.623 519.569,212.265C517.235,212.918 512.084,213.745 511.256,210.863C510.41,207.371 514.262,205.891 515.228,208.279C516.122,210.811 513.765,209.85 513.701,209.951C513.622,210.107 514.034,210.509 515.14,210.72C519.935,210.465 520.118,209.06 519.474,205.161C518.557,199.977 509.295,202.983 505.487,206.531C496.254,215.952 484.068,215.241 483.135,213.921C483.251,213.788 483.207,212.426 483.067,212.387Z" style="fill:rgb(83,45,59);stroke:rgb(83,45,59);stroke-width:1.26px;"/>
                            </g>
                            <g id="くるくる26" serif:id="くるくる" transform="matrix(-2.37915,0.0440458,0.0440458,2.37915,1435.43,-306.817)">
                                <path d="M483.067,212.387C489.983,215.867 502.719,206.09 505.608,203.581C512.312,198.055 523.571,198.943 521.904,208.37C522.077,210.901 521.278,211.623 519.569,212.265C517.235,212.918 512.084,213.745 511.256,210.863C510.41,207.371 514.262,205.891 515.228,208.279C516.122,210.811 513.765,209.85 513.701,209.951C513.622,210.107 514.034,210.509 515.14,210.72C519.935,210.465 520.118,209.06 519.474,205.161C519.426,204.886 519.354,204.635 519.261,204.405C517.592,200.296 509.094,203.17 505.487,206.531C496.254,215.952 484.068,215.241 483.135,213.921C483.251,213.788 483.207,212.426 483.067,212.387Z" style="fill:rgb(83,45,59);stroke:rgb(83,45,59);stroke-width:1.15px;"/>
                            </g>
                            <g id="くるくる27" serif:id="くるくる" transform="matrix(-2.9558,0.0547214,0.0547214,2.9558,1729.01,-431.389)">
                                <path d="M487.773,209.516C494.227,211.814 500.935,207.699 505.608,203.581C512.312,198.055 523.164,199.193 521.497,208.62C521.171,209.357 520.92,211.533 518.525,212.269C516.191,212.921 512.084,213.745 511.256,210.863C510.41,207.371 514.262,205.891 515.228,208.279C516.122,210.811 513.765,209.85 513.701,209.951C513.622,210.107 514.034,210.509 515.14,210.72C519.935,210.465 520.118,209.06 519.474,205.161C518.557,199.977 509.295,202.983 505.487,206.531C496.329,214.543 488.491,211.739 488.386,211.62C488.182,211.623 487.184,209.922 487.773,209.516Z" style="fill:rgb(83,45,59);stroke:rgb(83,45,59);stroke-width:0.93px;"/>
                            </g>
                        </g>
                        <g id="くるくる28" serif:id="くるくる" transform="matrix(-0.13255,0.488952,0.488952,0.13255,19.0015,-61.2907)">
                            <g id="くるくる29" serif:id="くるくる" transform="matrix(-2.18461,-0.0380056,-0.0378047,2.17306,1353.51,-218.905)">
                                <path d="M483.067,212.387C489.983,215.867 502.719,206.09 505.608,203.581C512.312,198.055 523.571,198.943 521.904,208.37C522.077,210.901 521.278,211.623 519.569,212.265C517.235,212.918 512.084,213.745 511.256,210.863C510.41,207.371 514.262,205.891 515.228,208.279C516.122,210.811 513.765,209.85 513.701,209.951C513.622,210.107 514.034,210.509 515.14,210.72C519.935,210.465 520.118,209.06 519.474,205.161C518.557,199.977 509.295,202.983 505.487,206.531C496.254,215.952 484.068,215.241 483.135,213.921C483.251,213.788 483.207,212.426 483.067,212.387Z" style="fill:rgb(206,184,153);stroke:rgb(83,45,59);stroke-width:0.79px;"/>
                            </g>
                            <g id="くるくる30" serif:id="くるくる" transform="matrix(-2.37915,0.0440458,0.0440458,2.37915,1435.43,-306.817)">
                                <path d="M483.067,212.387C489.983,215.867 502.719,206.09 505.608,203.581C512.312,198.055 523.571,198.943 521.904,208.37C522.077,210.901 521.278,211.623 519.569,212.265C517.235,212.918 512.084,213.745 511.256,210.863C510.41,207.371 514.262,205.891 515.228,208.279C516.122,210.811 513.765,209.85 513.701,209.951C513.622,210.107 514.034,210.509 515.14,210.72C519.935,210.465 520.118,209.06 519.474,205.161C519.354,204.483 519.092,203.944 518.717,203.53C516.227,200.772 508.797,203.447 505.487,206.531C496.254,215.952 484.068,215.241 483.135,213.921C483.251,213.788 483.207,212.426 483.067,212.387Z" style="fill:rgb(206,184,153);stroke:rgb(83,45,59);stroke-width:0.73px;"/>
                            </g>
                            <g id="くるくる31" serif:id="くるくる" transform="matrix(-2.9558,0.0547214,0.0547214,2.9558,1729.01,-431.389)">
                                <path d="M487.773,209.516C494.227,211.814 500.935,207.699 505.608,203.581C512.312,198.055 523.164,199.193 521.497,208.62C521.171,209.357 520.92,211.533 518.525,212.269C516.191,212.921 512.084,213.745 511.256,210.863C510.41,207.371 514.262,205.891 515.228,208.279C516.122,210.811 513.765,209.85 513.701,209.951C513.622,210.107 514.034,210.509 515.14,210.72C519.935,210.465 520.118,209.06 519.474,205.161C518.557,199.977 509.295,202.983 505.487,206.531C496.329,214.543 488.491,211.739 488.386,211.62C488.182,211.623 487.184,209.922 487.773,209.516Z" style="fill:rgb(206,184,153);stroke:rgb(83,45,59);stroke-width:0.58px;"/>
                            </g>
                        </g>
                        <g id="くるくる32" serif:id="くるくる" transform="matrix(-0.261646,0.965164,0.965164,0.261646,-53.0489,-194.162)">
                            <g id="くるくる33" serif:id="くるくる" transform="matrix(-2.18461,-0.0380056,-0.0378047,2.17306,1353.51,-218.905)">
                                <path d="M483.067,212.387C489.983,215.867 502.719,206.09 505.608,203.581C512.312,198.055 523.571,198.943 521.904,208.37C522.077,210.901 521.278,211.623 519.569,212.265C517.235,212.918 512.084,213.745 511.256,210.863C510.41,207.371 514.262,205.891 515.228,208.279C516.122,210.811 513.765,209.85 513.701,209.951C513.622,210.107 514.034,210.509 515.14,210.72C519.935,210.465 520.118,209.06 519.474,205.161C518.557,199.977 509.295,202.983 505.487,206.531C496.254,215.952 484.068,215.241 483.135,213.921C483.251,213.788 483.207,212.426 483.067,212.387Z" style="fill:rgb(91,81,73);stroke:rgb(83,45,59);stroke-width:0.4px;"/>
                            </g>
                            <g id="くるくる34" serif:id="くるくる" transform="matrix(-2.37915,0.0440458,0.0440458,2.37915,1435.43,-306.817)">
                                <path d="M483.067,212.387C489.983,215.867 502.719,206.09 505.608,203.581C512.312,198.055 523.571,198.943 521.904,208.37C522.077,210.901 521.278,211.623 519.569,212.265C517.235,212.918 512.084,213.745 511.256,210.863C510.41,207.371 514.262,205.891 515.228,208.279C516.122,210.811 513.765,209.85 513.701,209.951C513.622,210.107 514.034,210.509 515.14,210.72C519.935,210.465 520.118,209.06 519.474,205.161C518.557,199.977 509.295,202.983 505.487,206.531C496.254,215.952 484.068,215.241 483.135,213.921C483.251,213.788 483.207,212.426 483.067,212.387Z" style="fill:rgb(91,81,73);stroke:rgb(83,45,59);stroke-width:0.37px;"/>
                            </g>
                            <g id="くるくる35" serif:id="くるくる" transform="matrix(-2.9558,0.0547214,0.0547214,2.9558,1729.01,-431.389)">
                                <path d="M487.773,209.516C494.227,211.814 500.935,207.699 505.608,203.581C512.312,198.055 523.164,199.193 521.497,208.62C521.171,209.357 520.92,211.533 518.525,212.269C516.191,212.921 512.084,213.745 511.256,210.863C510.41,207.371 514.262,205.891 515.228,208.279C516.122,210.811 513.765,209.85 513.701,209.951C513.622,210.107 514.034,210.509 515.14,210.72C519.935,210.465 520.118,209.06 519.474,205.161C518.557,199.977 509.295,202.983 505.487,206.531C496.329,214.543 488.491,211.739 488.386,211.62C488.182,211.623 487.184,209.922 487.773,209.516Z" style="fill:rgb(200,178,115);stroke:rgb(83,45,59);stroke-width:0.3px;"/>
                            </g>
                        </g>
                    </g>
                    <g transform="matrix(-0.179641,-1.12934,-1.12934,0.179641,259.954,155.302)">
                        <g id="くるくる36" serif:id="くるくる" transform="matrix(-0.0833419,0.307433,0.307433,0.0833419,46.8569,-9.35267)">
                            <g id="くるくる37" serif:id="くるくる" transform="matrix(-2.18461,-0.0380056,-0.0378047,2.17306,1353.51,-218.905)">
                                <path d="M483.067,212.387C489.983,215.867 502.719,206.09 505.608,203.581C512.312,198.055 523.571,198.943 521.904,208.37C522.077,210.901 521.278,211.623 519.569,212.265C517.235,212.918 512.084,213.745 511.256,210.863C510.41,207.371 514.262,205.891 515.228,208.279C516.122,210.811 513.765,209.85 513.701,209.951C513.622,210.107 514.034,210.509 515.14,210.72C519.935,210.465 520.118,209.06 519.474,205.161C518.557,199.977 509.295,202.983 505.487,206.531C496.254,215.952 484.068,215.241 483.135,213.921C483.251,213.788 483.207,212.426 483.067,212.387Z" style="fill:rgb(83,45,59);stroke:rgb(83,45,59);stroke-width:1.26px;"/>
                            </g>
                            <g id="くるくる38" serif:id="くるくる" transform="matrix(-2.37915,0.0440458,0.0440458,2.37915,1435.43,-306.817)">
                                <path d="M483.067,212.387C489.983,215.867 502.719,206.09 505.608,203.581C512.312,198.055 523.571,198.943 521.904,208.37C522.077,210.901 521.278,211.623 519.569,212.265C517.235,212.918 512.084,213.745 511.256,210.863C510.41,207.371 514.262,205.891 515.228,208.279C516.122,210.811 513.765,209.85 513.701,209.951C513.622,210.107 514.034,210.509 515.14,210.72C519.935,210.465 520.118,209.06 519.474,205.161C518.557,199.977 509.295,202.983 505.487,206.531C496.254,215.952 484.068,215.241 483.135,213.921C483.251,213.788 483.207,212.426 483.067,212.387Z" style="fill:rgb(83,45,59);stroke:rgb(83,45,59);stroke-width:1.15px;"/>
                            </g>
                            <g id="くるくる39" serif:id="くるくる" transform="matrix(-2.9558,0.0547214,0.0547214,2.9558,1729.01,-431.389)">
                                <path d="M487.773,209.516C494.227,211.814 500.935,207.699 505.608,203.581C512.312,198.055 523.164,199.193 521.497,208.62C521.171,209.357 520.92,211.533 518.525,212.269C516.191,212.921 512.084,213.745 511.256,210.863C510.41,207.371 514.262,205.891 515.228,208.279C516.122,210.811 513.765,209.85 513.701,209.951C513.622,210.107 514.034,210.509 515.14,210.72C519.935,210.465 520.118,209.06 519.474,205.161C518.557,199.977 509.295,202.983 505.487,206.531C496.329,214.543 488.491,211.739 488.386,211.62C488.182,211.623 487.184,209.922 487.773,209.516Z" style="fill:rgb(210,194,172);stroke:rgb(83,45,59);stroke-width:0.93px;"/>
                            </g>
                        </g>
                        <g id="くるくる40" serif:id="くるくる" transform="matrix(-0.13255,0.488952,0.488952,0.13255,19.0015,-61.2907)">
                            <g id="くるくる41" serif:id="くるくる" transform="matrix(-2.18461,-0.0380056,-0.0378047,2.17306,1353.51,-218.905)">
                                <path d="M483.067,212.387C489.983,215.867 502.719,206.09 505.608,203.581C512.312,198.055 523.571,198.943 521.904,208.37C522.077,210.901 521.278,211.623 519.569,212.265C517.235,212.918 512.084,213.745 511.256,210.863C510.41,207.371 514.262,205.891 515.228,208.279C516.122,210.811 513.765,209.85 513.701,209.951C513.622,210.107 514.034,210.509 515.14,210.72C519.935,210.465 520.118,209.06 519.474,205.161C518.557,199.977 509.295,202.983 505.487,206.531C496.254,215.952 484.068,215.241 483.135,213.921C483.251,213.788 483.207,212.426 483.067,212.387Z" style="fill:rgb(205,183,152);stroke:rgb(83,45,59);stroke-width:0.79px;"/>
                            </g>
                            <g id="くるくる42" serif:id="くるくる" transform="matrix(-2.37915,0.0440458,0.0440458,2.37915,1435.43,-306.817)">
                                <path d="M483.067,212.387C489.983,215.867 502.719,206.09 505.608,203.581C512.312,198.055 523.571,198.943 521.904,208.37C522.077,210.901 521.278,211.623 519.569,212.265C517.235,212.918 512.084,213.745 511.256,210.863C510.41,207.371 514.262,205.891 515.228,208.279C516.122,210.811 513.765,209.85 513.701,209.951C513.622,210.107 514.034,210.509 515.14,210.72C519.935,210.465 520.118,209.06 519.474,205.161C518.557,199.977 509.295,202.983 505.487,206.531C496.254,215.952 484.068,215.241 483.135,213.921C483.251,213.788 483.207,212.426 483.067,212.387Z" style="fill:rgb(205,183,152);stroke:rgb(83,45,59);stroke-width:0.73px;"/>
                            </g>
                            <g id="くるくる43" serif:id="くるくる" transform="matrix(-2.9558,0.0547214,0.0547214,2.9558,1729.01,-431.389)">
                                <path d="M487.773,209.516C494.227,211.814 500.935,207.699 505.608,203.581C512.312,198.055 523.164,199.193 521.497,208.62C521.171,209.357 520.92,211.533 518.525,212.269C516.191,212.921 512.084,213.745 511.256,210.863C510.41,207.371 514.262,205.891 515.228,208.279C516.122,210.811 513.765,209.85 513.701,209.951C513.622,210.107 514.034,210.509 515.14,210.72C519.935,210.465 520.118,209.06 519.474,205.161C518.557,199.977 509.295,202.983 505.487,206.531C496.329,214.543 488.491,211.739 488.386,211.62C488.182,211.623 487.184,209.922 487.773,209.516Z" style="fill:rgb(91,81,73);stroke:rgb(83,45,59);stroke-width:0.58px;"/>
                            </g>
                        </g>
                        <g id="くるくる44" serif:id="くるくる" transform="matrix(-0.261646,0.965164,0.965164,0.261646,-53.0489,-194.162)">
                            <g id="くるくる45" serif:id="くるくる" transform="matrix(-2.18461,-0.0380056,-0.0378047,2.17306,1353.51,-218.905)">
                                <path d="M483.067,212.387C489.983,215.867 502.719,206.09 505.608,203.581C512.312,198.055 523.571,198.943 521.904,208.37C522.077,210.901 521.278,211.623 519.569,212.265C517.235,212.918 512.084,213.745 511.256,210.863C510.41,207.371 514.262,205.891 515.228,208.279C516.122,210.811 513.765,209.85 513.701,209.951C513.622,210.107 514.034,210.509 515.14,210.72C519.935,210.465 520.118,209.06 519.474,205.161C518.557,199.977 509.295,202.983 505.487,206.531C496.254,215.952 484.068,215.241 483.135,213.921C483.251,213.788 483.207,212.426 483.067,212.387Z" style="fill:rgb(91,81,73);stroke:rgb(83,45,59);stroke-width:0.4px;"/>
                            </g>
                            <g id="くるくる46" serif:id="くるくる" transform="matrix(-2.37915,0.0440458,0.0440458,2.37915,1435.43,-306.817)">
                                <path d="M483.067,212.387C489.983,215.867 502.719,206.09 505.608,203.581C512.312,198.055 523.571,198.943 521.904,208.37C522.077,210.901 521.278,211.623 519.569,212.265C517.235,212.918 512.084,213.745 511.256,210.863C510.41,207.371 514.262,205.891 515.228,208.279C516.122,210.811 513.765,209.85 513.701,209.951C513.622,210.107 514.034,210.509 515.14,210.72C519.935,210.465 520.118,209.06 519.474,205.161C518.557,199.977 509.295,202.983 505.487,206.531C496.254,215.952 484.068,215.241 483.135,213.921C483.251,213.788 483.207,212.426 483.067,212.387Z" style="fill:rgb(91,81,73);stroke:rgb(83,45,59);stroke-width:0.37px;"/>
                            </g>
                            <g id="くるくる47" serif:id="くるくる" transform="matrix(-2.9558,0.0547214,0.0547214,2.9558,1729.01,-431.389)">
                                <path d="M487.773,209.516C494.227,211.814 500.935,207.699 505.608,203.581C512.312,198.055 523.164,199.193 521.497,208.62C521.171,209.357 520.92,211.533 518.525,212.269C516.191,212.921 512.084,213.745 511.256,210.863C510.41,207.371 514.262,205.891 515.228,208.279C516.122,210.811 513.765,209.85 513.701,209.951C513.622,210.107 514.034,210.509 515.14,210.72C519.935,210.465 520.118,209.06 519.474,205.161C518.557,199.977 509.295,202.983 505.487,206.531C496.329,214.543 488.491,211.739 488.386,211.62C488.182,211.623 487.184,209.922 487.773,209.516Z" style="fill:rgb(200,178,115);stroke:rgb(83,45,59);stroke-width:0.3px;"/>
                            </g>
                        </g>
                    </g>
                </g>
            </g>
        </g>
    </g>
</svg>
