<?xml version="1.0" encoding="UTF-8" standalone="no"?><!DOCTYPE svg PUBLIC "-//W3C//DTD SVG 1.1//EN" "http://www.w3.org/Graphics/SVG/1.1/DTD/svg11.dtd"><svg width="100%" height="100%" viewBox="0 0 559 80" version="1.1" xmlns="http://www.w3.org/2000/svg" xmlns:xlink="http://www.w3.org/1999/xlink" xml:space="preserve" xmlns:serif="http://www.serif.com/" style="fill-rule:evenodd;clip-rule:evenodd;stroke-linejoin:round;stroke-miterlimit:2;"><g id="ドア扉チョコチップ2"><path d="M511.868,26.756c0.072,-12.568 10.333,-22.714 22.902,-22.643c12.568,0.072 22.714,10.334 22.643,22.902c-0.072,12.568 -10.334,22.714 -22.902,22.643c-12.568,-0.072 -22.714,-10.333 -22.643,-22.902Z"/><path d="M401.504,50.727c0.071,-12.568 10.333,-22.714 22.902,-22.643c12.568,0.072 22.714,10.334 22.642,22.902c-0.071,12.568 -10.333,22.714 -22.901,22.643c-12.569,-0.072 -22.714,-10.333 -22.643,-22.902Z"/><path d="M320.415,52.378c0.072,-12.568 10.334,-22.714 22.902,-22.643c12.568,0.072 22.714,10.334 22.643,22.902c-0.072,12.568 -10.333,22.714 -22.902,22.643c-12.568,-0.072 -22.714,-10.334 -22.643,-22.902Z"/><path d="M228.555,51.104c0.071,-12.568 10.333,-22.714 22.902,-22.643c12.568,0.072 22.714,10.334 22.642,22.902c-0.071,12.568 -10.333,22.714 -22.901,22.643c-12.568,-0.072 -22.714,-10.333 -22.643,-22.902Z"/><path d="M91.139,55.599c0.071,-12.569 10.333,-22.715 22.901,-22.643c12.568,0.071 22.714,10.333 22.643,22.901c-0.071,12.569 -10.333,22.715 -22.902,22.643c-12.568,-0.071 -22.714,-10.333 -22.642,-22.901Z"/><path d="M0.451,54.163c0.071,-12.569 10.333,-22.714 22.901,-22.643c12.569,0.071 22.715,10.333 22.643,22.902c-0.071,12.568 -10.333,22.714 -22.901,22.642c-12.569,-0.071 -22.715,-10.333 -22.643,-22.901Z"/></g></svg>