<?xml version="1.0" encoding="UTF-8" standalone="no"?><!DOCTYPE svg PUBLIC "-//W3C//DTD SVG 1.1//EN" "http://www.w3.org/Graphics/SVG/1.1/DTD/svg11.dtd"><svg width="100%" height="100%" viewBox="0 0 717 875" version="1.1" xmlns="http://www.w3.org/2000/svg" xmlns:xlink="http://www.w3.org/1999/xlink" xml:space="preserve" xmlns:serif="http://www.serif.com/" style="fill-rule:evenodd;clip-rule:evenodd;stroke-linecap:round;stroke-linejoin:round;stroke-miterlimit:1.5;"><g id="ドア扉"><path id="ドア扉右枠" d="M678.013,377.506c0.102,-15.136 -12.103,-27.507 -27.238,-27.609l-54.847,-0.37c-15.135,-0.102 -27.506,12.104 -27.608,27.239l-2.713,402.379c-0.102,15.135 12.103,27.506 27.238,27.608l54.847,0.37c15.135,0.102 27.506,-12.103 27.608,-27.239l2.713,-402.378Z" style="fill:#fff;stroke:#000;stroke-width:18.75px;"/><path id="ドア扉左枠" d="M157.006,385.514c0.11,-16.382 -13.101,-29.772 -29.484,-29.883l-59.366,-0.4c-16.382,-0.111 -29.773,13.1 -29.883,29.483l-2.473,366.685c-0.11,16.383 13.101,29.773 29.484,29.883l59.366,0.401c16.382,0.11 29.773,-13.101 29.883,-29.484l2.473,-366.685Z" style="fill:#fff;stroke:#000;stroke-width:18.75px;"/><path id="ドア扉下枠" d="M699.574,824.147c7.561,-17.376 12.046,-66.792 -48.751,-59.179c-64.034,0.697 -56.312,-34.027 -303.421,-34.066c-160,-12.548 -197.158,30.827 -276.063,27.226c-27.806,6.935 -61.639,1.091 -56.656,55.308c4.864,35.887 42.508,42.361 55.997,42.452l585.498,3.947c13.489,0.091 40.579,-12.857 43.396,-35.688Z" style="fill:#fff;stroke:#000;stroke-width:25px;"/><path id="ドア扉屋根" d="M32.285,292.977c15.693,-71.367 49.651,-268.553 312.902,-277.253c262.4,-8.672 338.454,208.056 344.673,274.962c12.85,91.239 -114.068,117.533 -130.736,46.331c-27.996,-136.304 -59.55,-182.569 -189.89,-184.169c-123.813,-1.52 -190.261,78.955 -207.036,163.271c0.057,83.881 -152.779,86.914 -129.913,-23.142Z" style="fill:#fff;stroke:#000;stroke-width:27.08px;"/></g></svg>