<?xml version="1.0" encoding="UTF-8" standalone="no"?><!DOCTYPE svg PUBLIC "-//W3C//DTD SVG 1.1//EN" "http://www.w3.org/Graphics/SVG/1.1/DTD/svg11.dtd"><svg width="100%" height="100%" viewBox="0 0 63 880" version="1.1" xmlns="http://www.w3.org/2000/svg" xmlns:xlink="http://www.w3.org/1999/xlink" xml:space="preserve" xmlns:serif="http://www.serif.com/" style="fill-rule:evenodd;clip-rule:evenodd;stroke-linejoin:round;stroke-miterlimit:2;"><g id="ドア扉チョコチップ4"><path d="M28.757,832.475c12.566,0.232 22.58,10.623 22.347,23.19c-0.232,12.566 -10.624,22.58 -23.19,22.347c-12.566,-0.233 -22.58,-10.624 -22.347,-23.19c0.233,-12.567 10.624,-22.58 23.19,-22.347Z"/><path d="M32.536,744.287c12.566,0.232 22.58,10.624 22.347,23.19c-0.232,12.566 -10.624,22.58 -23.19,22.347c-12.566,-0.233 -22.58,-10.624 -22.347,-23.19c0.233,-12.567 10.624,-22.58 23.19,-22.347Z"/><path d="M32.313,655.011c12.567,0.232 22.58,10.624 22.347,23.19c-0.232,12.566 -10.623,22.58 -23.19,22.347c-12.566,-0.232 -22.58,-10.624 -22.347,-23.19c0.233,-12.566 10.624,-22.58 23.19,-22.347Z"/><path d="M35.909,562.259c12.566,0.233 22.58,10.624 22.347,23.19c-0.233,12.567 -10.624,22.58 -23.19,22.347c-12.567,-0.232 -22.58,-10.623 -22.347,-23.19c0.232,-12.566 10.623,-22.58 23.19,-22.347Z"/><path d="M37.736,486.415c12.567,0.232 22.58,10.624 22.347,23.19c-0.232,12.566 -10.624,22.58 -23.19,22.347c-12.566,-0.233 -22.58,-10.624 -22.347,-23.19c0.233,-12.566 10.624,-22.58 23.19,-22.347Z"/><path d="M25.645,90.875c12.567,0.233 22.58,10.624 22.348,23.19c-0.233,12.567 -10.624,22.58 -23.191,22.347c-12.566,-0.232 -22.579,-10.623 -22.347,-23.19c0.233,-12.566 10.624,-22.58 23.19,-22.347Z"/><path d="M27.773,3.472c12.566,0.233 22.58,10.624 22.347,23.191c-0.232,12.566 -10.624,22.579 -23.19,22.347c-12.566,-0.233 -22.58,-10.624 -22.347,-23.19c0.232,-12.567 10.624,-22.58 23.19,-22.348Z"/></g></svg>