<?xml version="1.0" encoding="UTF-8" standalone="no"?><!DOCTYPE svg PUBLIC "-//W3C//DTD SVG 1.1//EN" "http://www.w3.org/Graphics/SVG/1.1/DTD/svg11.dtd"><svg width="100%" height="100%" viewBox="0 0 59 84" version="1.1" xmlns="http://www.w3.org/2000/svg" xmlns:xlink="http://www.w3.org/1999/xlink" xml:space="preserve" xmlns:serif="http://www.serif.com/" style="fill-rule:evenodd;clip-rule:evenodd;stroke-linejoin:round;stroke-miterlimit:2;"><g id="道-1" serif:id="道♪1"><path d="M15.31,58.456c6.718,-1.054 14.409,4.086 13.503,13.054c-0.316,3.735 -1.13,11.276 -13.029,11.608c-6.795,0.229 -12.313,-4.454 -12.333,-10.963c-0.229,-6.796 6.23,-12.816 11.859,-13.699Z"/><path d="M16.102,67.196c0.73,-0.115 1.551,0.425 1.387,1.398c-0.012,0.527 -0.618,1.231 -1.363,1.254c-0.738,0.025 -1.31,-0.457 -1.312,-1.164c-0.025,-0.738 0.676,-1.392 1.288,-1.488Z" style="fill:#fff;"/><path d="M46.544,55.685c5.299,-4.895 4.686,-15.889 -2.212,-23.035c-2.233,-3.336 -10.486,-8.991 -10.486,-8.991c0,0 1.572,27.037 1.82,37.944c-0.009,5.261 -0.941,7.204 -1.415,8.381c-1.834,2.539 -6.423,1.885 -5.39,1.112c0.707,-1.439 1.262,0.477 3.31,-2.121c2.841,-2.56 -0.728,-45.639 -0.728,-45.639c0,0 -0.603,0.138 -0.62,-0.146c-0.275,-0.517 -0.51,-19.558 -0.51,-19.558c0.011,-0.322 0.025,-1.433 0.687,-1.92c0.696,-0.5 2.914,-0.972 3.375,-0.018c0.434,0.93 -0.204,6.026 -0.043,6.145c0.54,1.16 3.916,3.585 3.916,3.585c0,0 1.55,1.253 4.838,3.582c13.052,6.827 14.933,16.892 14.921,27.032c-0.322,5.021 -1.228,10.054 -4.917,13.286c-2.643,2.43 -9.071,4.857 -11.444,3.356c0.249,-0.733 2.081,-0.087 4.898,-2.995Z"/></g></svg>