<?xml version="1.0" encoding="UTF-8" standalone="no"?><!DOCTYPE svg PUBLIC "-//W3C//DTD SVG 1.1//EN" "http://www.w3.org/Graphics/SVG/1.1/DTD/svg11.dtd"><svg width="100%" height="100%" viewBox="0 0 88 109" version="1.1" xmlns="http://www.w3.org/2000/svg" xmlns:xlink="http://www.w3.org/1999/xlink" xml:space="preserve" xmlns:serif="http://www.serif.com/" style="fill-rule:evenodd;clip-rule:evenodd;stroke-linejoin:round;stroke-miterlimit:2;"><g id="道-2" serif:id="道♪2"><path d="M22.491,70.381c9.726,-0.06 19.51,8.848 16.32,21.341c-1.242,5.214 -3.999,15.708 -20.901,13.644c-9.661,-1.123 -16.468,-8.922 -15.111,-18.132c1.123,-9.662 11.541,-16.802 19.692,-16.853Z"/><path d="M20.321,91.343c1.056,-0.007 2.103,0.931 1.664,2.273c-0.13,0.743 -1.136,1.61 -2.195,1.483c-1.049,-0.122 -1.756,-0.925 -1.609,-1.925c0.122,-1.05 1.254,-1.826 2.14,-1.831Z" style="fill:#fff;"/><path d="M65.831,81.543c8.538,-5.796 10.012,-21.478 1.776,-33.054c-2.448,-5.194 -12.918,-14.95 -12.918,-14.95c0,0 -3.532,38.577 -5.505,54.058c-1.133,7.44 -2.864,9.989 -3.785,11.554c-3.135,3.2 -9.487,1.298 -7.862,0.425c1.307,-1.885 1.684,0.943 5.134,-2.295c4.564,-3.017 8.688,-64.711 8.688,-64.711c0,0 -0.882,0.067 -0.846,-0.339c-0.279,-0.789 3.443,-27.772 3.443,-27.772c0.084,-0.454 0.341,-2.022 1.381,-2.57c1.09,-0.56 4.328,-0.755 4.777,0.693c0.415,1.408 -1.572,8.48 -1.37,8.682c0.517,1.756 4.777,5.906 4.777,5.906c0,0 1.925,2.102 6.08,6.095c17.009,12.436 17.527,27.074 15.35,41.414c-1.525,7.034 -3.877,13.96 -9.783,17.747c-4.257,2.874 -13.865,4.938 -16.903,2.31c0.509,-0.984 2.962,0.32 7.566,-3.193Z"/></g></svg>