<?xml version="1.0" encoding="UTF-8" standalone="no"?><!DOCTYPE svg PUBLIC "-//W3C//DTD SVG 1.1//EN" "http://www.w3.org/Graphics/SVG/1.1/DTD/svg11.dtd"><svg width="100%" height="100%" viewBox="0 0 217 230" version="1.1" xmlns="http://www.w3.org/2000/svg" xmlns:xlink="http://www.w3.org/1999/xlink" xml:space="preserve" xmlns:serif="http://www.serif.com/" style="fill-rule:evenodd;clip-rule:evenodd;stroke-linejoin:round;stroke-miterlimit:2;"><g id="道-3" serif:id="道♫3"><path d="M143.769,56.429c13.85,-6.006 22.166,-24.784 9.813,-40.528c-5.031,-6.627 -15.518,-19.803 -38.228,-6.288c-13.017,7.646 -17.8,22.985 -10.104,35.215c7.645,13.017 26.912,16.633 38.519,11.601Z"/><path d="M126.538,29.192c1.629,-0.186 3.068,-1.825 2.142,-3.811c-0.337,-1.121 -2.05,-2.27 -3.657,-1.878c-1.595,0.383 -2.535,1.751 -2.122,3.265c0.383,1.595 2.271,2.58 3.637,2.424Z" style="fill:#fff;"/><path d="M45.386,91.682c12.613,-7.747 18.086,-27.126 3.915,-40.699c-5.801,-5.736 -17.805,-17.074 -37.979,-0.811c-11.577,9.224 -14.097,24.776 -4.933,35.582c9.224,11.577 28.427,12.42 38.997,5.928Z"/><path d="M18.309,69.775c1.37,-0.841 1.968,-2.895 0.321,-4.275c-0.765,-0.856 -2.763,-1.166 -4.029,-0.15c-1.257,1.002 -1.524,2.607 -0.529,3.781c1.002,1.258 3.088,1.349 4.237,0.644Z" style="fill:#fff;"/><path d="M104.308,188.079c1.062,3.679 1.657,5.77 1.657,5.77c0,0 -1.743,0.585 -1.524,1.349c0.482,1.186 7.187,25.55 7.187,25.55c0.331,0.838 1.405,3.746 3.599,4.409c2.296,0.666 8.568,-0.162 8.891,-3.101c0.26,-2.725 72.44,-28.082 79.077,-30.718c0.168,0.248 0.373,0.429 0.623,0.525c2.243,0.829 8.557,0.452 9.091,-2.456c-2.077,-7.713 -3.699,-13.285 -4.342,-16.585c-1.099,-5.912 -29.226,-115.976 -36.656,-145.493c-3.93,-14.143 -7.876,-18.676 -10.025,-21.491c-6.818,-5.466 -18.675,-0.301 -15.323,1.01c2.971,3.347 3.04,-2.219 10.476,3.248c9.072,4.541 28.858,104.729 30.928,115.263c-11.492,5.625 -78.344,31.232 -78.344,31.232l-9.092,3.873c-9.278,-32.154 -22.914,-78.933 -28.91,-97.134c-4.933,-13.825 -9.194,-18.064 -11.538,-20.718c-7.193,-4.964 -18.649,1.037 -15.212,2.104c3.203,3.126 2.874,-2.43 10.682,2.49c6.869,2.843 28.636,72.904 41.206,115.134c-0.989,0.589 -1.871,1.223 -1.786,1.573c-0.347,1.622 5.302,19.113 5.302,19.113c0.718,4.534 0.535,5.307 2.924,4.985c0.325,0.097 0.699,0.113 1.109,0.068Zm92.22,-27.466c-9.391,4.331 -86.586,32.629 -86.586,32.629c0,0 -0.674,-2.361 -1.849,-6.468c1.9,-0.885 3.851,-1.935 5.236,-2.216c2.525,-1.024 4.737,-0.484 14.311,-3.87c7.721,-2.864 37.666,-17.099 45.605,-18.605c9.459,-1.326 20.283,-6.904 20.945,-7.23c0.26,-0.129 0.497,-0.276 0.713,-0.443c0.543,2.086 1.088,4.168 1.625,6.203Z"/></g></svg>