<?xml version="1.0" encoding="UTF-8" standalone="no"?>
<!DOCTYPE svg PUBLIC "-//W3C//DTD SVG 1.1//EN" "http://www.w3.org/Graphics/SVG/1.1/DTD/svg11.dtd">
<svg width="100%" height="100%" viewBox="0 0 440 150" version="1.1" xmlns="http://www.w3.org/2000/svg" xmlns:xlink="http://www.w3.org/1999/xlink" xml:space="preserve" xmlns:serif="http://www.serif.com/" style="fill-rule:evenodd;clip-rule:evenodd;stroke-linecap:round;stroke-linejoin:round;stroke-miterlimit:1.5;">
    <g transform="matrix(1,0,0,1,-368,-600)">
        <g id="道" transform="matrix(0.691822,0.0128079,-0.0128079,0.691822,403.396,97.0442)">
            <g opacity="0.7">
                <g id="道1" serif:id="道">
                    <g id="道11" serif:id="道1" transform="matrix(1,6.93889e-18,-6.93889e-18,1,-0.104456,0.00193381)">
                        <g id="道12" serif:id="道1" transform="matrix(1.45388,-0.026916,0.0262,1.4152,-249.492,-95.7478)">
                            <path d="M248.385,649.964C274.739,626.731 301.332,629.417 349.212,636.396C382.041,640.953 364.857,624.248 414.687,617.406C416.957,602.862 438.773,598.288 442.743,597.222C454.318,594.013 530.966,584.377 557.106,613.187C588.439,637.124 558.534,649.95 564.223,662.53C567.312,673.603 557.767,685.932 524.72,691.172C514.934,692.87 490.328,706.617 465.08,697.742C412.645,685.678 415.263,704.164 382.984,714.052C329.374,728.227 311.047,692.487 295.322,714.565C281.945,739.75 235.393,739.406 135.597,733.774L135.692,648.798C209.331,674.012 228.121,667.828 248.385,649.964Z" style="fill:rgb(64,63,111);"/>
                            <path d="M248.385,649.964C274.739,626.731 301.332,629.417 349.212,636.396C382.041,640.953 364.857,624.248 414.687,617.406C416.957,602.862 438.773,598.288 442.743,597.222C454.318,594.013 530.966,584.377 557.106,613.187C588.439,637.124 558.534,649.95 564.223,662.53C567.312,673.603 557.767,685.932 524.72,691.172C514.934,692.87 490.328,706.617 465.08,697.742C412.645,685.678 415.263,704.164 382.984,714.052C329.374,728.227 311.047,692.487 295.322,714.565C281.945,739.75 235.393,739.406 135.597,733.774L135.692,648.798C209.331,674.012 228.121,667.828 248.385,649.964ZM558.575,664.548C556.433,659.239 557.881,653.792 560.81,648.017C561.916,645.837 563.207,643.569 564.228,641.153C565.342,638.515 566.175,635.663 565.371,632.44C564.305,628.166 560.759,623.612 553.547,618.103L552.744,617.364C543.128,606.766 525.938,602.214 508.263,600.289C480.383,597.253 451.013,601.275 444.251,603.15C442.085,603.731 434.049,605.384 427.544,609.531C424.245,611.634 421.203,614.352 420.575,618.375C420.159,621.046 418.087,623.12 415.477,623.478C387.251,627.353 381.808,634.6 375.269,638.833C369.84,642.349 363.856,644.611 348.374,642.462C302.781,635.815 277.364,632.49 252.268,654.613C231.705,672.741 212.581,680.566 141.646,657.24L141.567,727.971C197.715,731.092 236.23,732.395 261.002,727.8C275.944,725.028 285.453,720.356 290.088,711.631L290.51,710.947C293.895,706.194 297.467,703.556 301.212,702.192C306.45,700.285 312.273,700.961 319.211,703.05C332.351,707.009 350.835,716.193 381.387,708.148C393.708,704.357 400.694,699.205 407.871,695.186C419.988,688.4 432.504,683.969 466.384,691.763L467.011,691.945C480.854,696.812 494.482,694.066 505.105,690.892C513.139,688.491 519.669,685.835 523.811,685.118C538.879,682.728 548.669,678.956 554.26,674.285C557.937,671.213 559.356,667.871 558.575,664.548Z" style="fill:rgb(200,178,115);"/>
                        </g>
                        <g id="道13" serif:id="道1" transform="matrix(1.3948,-0.0258222,0.0188853,1.0201,-236.42,172.855)">
                            <path d="M240.162,660.048C266.516,636.815 301.332,629.417 349.212,636.396C382.041,640.953 364.857,624.248 414.687,617.406C416.957,602.862 438.773,598.288 442.743,597.222C454.318,594.013 530.966,584.377 557.106,613.187C588.439,637.124 558.534,649.95 564.223,662.53C567.312,673.603 553.064,677.289 520.018,682.529C510.231,684.227 490.528,695.064 465.281,686.188C412.845,674.125 415.263,704.164 382.984,714.052C329.374,728.227 311.047,692.487 295.322,714.565C281.945,739.75 235.393,751.892 135.597,746.26L135.692,644.636C167.125,662.861 219.898,677.912 240.162,660.048Z" style="fill:rgb(64,63,111);"/>
                        </g>
                    </g>
                    <g id="道4" transform="matrix(1.48072,8.60672e-18,-2.12908e-18,1.61367,-274.845,-295.741)">
                        <path d="M163.136,740.902C163.136,740.902 253.032,766.585 298.905,744.244C316.933,735.808 326.249,718.37 348.01,725.832C370.422,735.229 385.378,737.446 409.129,722.385C431.161,708.413 456.951,708.948 497.678,715.642C513.782,718.289 525.345,702.361 540.602,703.081C556.38,706.06 556.862,698.769 553.971,690.047C551.704,681.042 567.488,678.425 562.815,668.432C545.99,650.443 526.429,661.005 531.966,642.771" style="fill:none;stroke:rgb(200,178,115);stroke-width:0.84px;"/>
                    </g>
                    <g id="道3" transform="matrix(1.48072,8.60672e-18,-2.12908e-18,1.61367,-294.145,-307.529)">
                        <path d="M175.861,730.284C175.861,730.284 259.58,760.356 299.096,738.806C312.429,731.535 328.457,717.765 344.462,716.607C348.656,716.304 359.747,718.802 363.347,720.21C379.58,726.826 395.383,729.883 408.94,720.796C440.51,702.144 470.426,701.896 484.171,706.773C498.089,712.321 549.655,703.043 514.553,679.115C504.312,674.66 521.875,667.851 520.03,660.721C518.307,654.062 518.79,648.511 518.765,648.316" style="fill:none;stroke:rgb(200,178,115);stroke-width:0.84px;"/>
                    </g>
                    <g id="道2" transform="matrix(1.48072,8.60672e-18,-2.12908e-18,1.61367,-235.773,-325.046)">
                        <path d="M136.215,726.156C174.424,741.9 223.512,747.945 244.83,738.717C257.516,733.749 283.971,713.707 303.301,713.489C328.486,711.067 351.999,728.173 374.894,710.741C377.604,708.674 389.587,701.665 393.373,700.635C408.851,696.421 416.348,704.413 430.043,703.785C440.063,703.325 450.018,695.966 443.845,691.134C424.853,674.004 454.323,679.997 456.191,661.063" style="fill:none;stroke:rgb(200,178,115);stroke-width:0.84px;"/>
                    </g>
                </g>
                <g id="音符">
                    <g id="音符-7" serif:id="音符♪7" transform="matrix(0.452068,-0.108677,0.108677,0.452068,396.025,707.431)">
                        <g transform="matrix(0.913081,0.0766108,-0.0766108,0.913081,-280.205,-467.234)">
                            <path d="M497.161,651.724C511.854,649.924 528.21,661.671 525.583,681.117C524.621,689.219 522.297,705.566 496.384,705.417C481.582,705.417 469.92,694.823 470.354,680.661C470.354,665.858 484.849,653.233 497.161,651.724Z" style="fill:rgb(247,202,201);stroke:rgb(83,45,59);stroke-width:2.71px;"/>
                        </g>
                        <g transform="matrix(0.0991911,0.00832249,-0.00832249,0.0991911,77.8351,126.461)">
                            <path d="M497.161,651.724C511.854,649.924 527.939,661.276 523.995,680.661C523.398,691.211 510.79,704.903 495.856,704.852C481.053,704.852 469.92,694.823 470.354,680.661C470.354,665.858 484.849,653.233 497.161,651.724Z" style="fill:rgb(247,202,201);stroke:rgb(83,45,59);stroke-width:24.98px;"/>
                        </g>
                        <g transform="matrix(1.23997,0.211555,-0.211555,1.23997,14.0516,-787.249)">
                            <path d="M263.009,734.826C271.001,726.641 269.132,709.279 257.623,698.527C253.814,693.426 240.281,685.146 240.281,685.146C240.281,685.146 244.983,727.834 246.266,745.086C246.682,753.419 245.366,756.572 244.712,758.475C242.014,762.646 234.693,761.986 236.266,760.678C237.268,758.34 238.304,761.329 241.334,757.048C245.625,752.761 236.45,684.83 236.45,684.83C236.45,684.83 235.506,685.098 235.455,684.649C234.978,683.854 233.049,653.719 233.049,653.719C233.04,653.207 232.972,651.447 233.98,650.621C235.041,649.772 238.514,648.843 239.323,650.317C240.086,651.754 239.492,659.876 239.757,660.052C240.707,661.845 246.253,665.41 246.253,665.41C246.253,665.41 248.809,667.267 254.206,670.685C275.436,680.43 279.237,696.216 280.047,712.275C279.948,720.254 278.925,728.298 273.347,733.719C269.36,737.783 259.38,742.152 255.498,739.969C255.833,738.788 258.786,739.661 263.009,734.826Z" style="fill:rgb(247,202,201);stroke:rgb(83,45,59);stroke-width:1.98px;"/>
                        </g>
                    </g>
                    <g id="音符-6" serif:id="音符♫6" transform="matrix(0.158362,-0.122429,0.122429,0.158362,283.924,801.903)">
                        <g transform="matrix(0.677365,0.26988,-0.26988,0.677365,-22.1216,-404.416)">
                            <path d="M497.161,651.724C511.854,649.924 528.21,661.671 525.583,681.117C524.621,689.219 522.297,705.566 496.384,705.417C481.582,705.417 469.92,694.823 470.354,680.661C470.354,665.858 484.849,653.233 497.161,651.724Z" style="fill:rgb(146,168,209);stroke:rgb(83,45,59);stroke-width:7.92px;"/>
                        </g>
                        <g transform="matrix(0.0789326,0.00662273,-0.00662273,0.0789326,94.5933,137.591)">
                            <path d="M497.161,651.724C511.854,649.924 527.939,661.276 523.995,680.661C523.398,691.211 510.79,704.903 495.856,704.852C481.053,704.852 469.92,694.823 470.354,680.661C470.354,665.858 484.849,653.233 497.161,651.724Z" style="fill:rgb(146,168,209);stroke:rgb(83,45,59);stroke-width:72.92px;"/>
                        </g>
                        <g transform="matrix(0.620158,0.355756,-0.355756,0.620158,-11.0575,-424.098)">
                            <path d="M497.161,651.724C511.854,649.924 528.21,661.671 525.583,681.117C524.621,689.219 522.297,705.566 496.384,705.417C481.582,705.417 469.92,694.823 470.354,680.661C470.354,665.858 484.849,653.233 497.161,651.724Z" style="fill:rgb(146,168,209);stroke:rgb(83,45,59);stroke-width:8.08px;"/>
                        </g>
                        <g transform="matrix(0.0673699,0.0386469,-0.0386469,0.0673699,40.3335,112.233)">
                            <path d="M497.161,651.724C511.854,649.924 527.939,661.276 523.995,680.661C523.398,691.211 510.79,704.903 495.856,704.852C481.053,704.852 469.92,694.823 470.354,680.661C470.354,665.858 484.849,653.233 497.161,651.724Z" style="fill:rgb(146,168,209);stroke:rgb(83,45,59);stroke-width:74.37px;"/>
                        </g>
                        <g transform="matrix(5.37896,0.979033,-0.979033,5.37896,-1627.43,-4004.89)">
                            <path d="M444.11,679.041C444.085,678.541 444.069,678.257 444.069,678.257C444.069,678.257 443.829,678.259 443.823,678.155C443.832,677.988 443.623,674.69 443.623,674.69C443.628,674.572 443.637,674.167 443.88,673.991C444.136,673.811 444.946,673.646 445.112,673.996C445.26,674.322 455.264,674.381 456.197,674.424C456.207,674.386 456.225,674.355 456.252,674.332C456.494,674.134 457.29,673.912 457.48,674.249C457.552,675.29 457.589,676.048 457.65,676.484C457.766,677.262 458.979,692.068 459.319,696.034C459.435,697.95 459.141,698.678 458.995,699.118C458.385,700.084 456.699,699.951 457.058,699.646C457.282,699.105 457.528,699.791 458.214,698.798C459.142,697.85 457.319,684.62 457.126,683.23C455.466,683.024 446.109,682.707 446.109,682.707L444.82,682.616C445.043,686.986 445.351,693.351 445.385,695.857C445.365,697.776 445.019,698.482 444.842,698.91C444.164,699.83 442.492,699.576 442.871,699.298C443.134,698.775 443.33,699.476 444.086,698.535C444.814,697.89 444.52,688.301 444.274,682.544C444.127,682.514 443.991,682.473 443.986,682.426C443.874,682.24 443.827,679.837 443.827,679.837C443.723,679.246 443.667,679.158 443.976,679.096C444.012,679.071 444.058,679.053 444.11,679.041ZM456.682,678.506C455.336,678.371 444.587,678.162 444.587,678.162C444.587,678.162 444.604,678.483 444.634,679.041C444.907,679.069 445.192,679.116 445.376,679.092C445.731,679.111 445.982,678.949 447.31,678.96C448.386,678.985 452.695,679.469 453.741,679.317C454.967,679.078 456.543,679.306 456.638,679.318C456.676,679.323 456.712,679.331 456.746,679.342C456.724,679.061 456.702,678.781 456.682,678.506Z" style="fill:rgb(146,168,209);stroke:rgb(83,45,59);stroke-width:1.06px;"/>
                        </g>
                    </g>
                    <g id="音符-5" serif:id="音符♪5" transform="matrix(0.472911,-0.0646682,0.0646682,0.472911,414.332,731.045)">
                        <g transform="matrix(0.630102,0.149603,-0.149603,0.630102,32.3557,-312.6)">
                            <path d="M497.161,651.724C511.854,649.924 528.21,661.671 525.583,681.117C524.621,689.219 522.297,705.566 496.384,705.417C481.582,705.417 469.92,694.823 470.354,680.661C470.354,665.858 484.849,653.233 497.161,651.724Z" style="fill:rgb(146,168,209);stroke:rgb(83,45,59);stroke-width:3.51px;"/>
                        </g>
                        <g transform="matrix(0.0684501,0.0162519,-0.0162519,0.0684501,220.135,140.006)">
                            <path d="M497.161,651.724C511.854,649.924 527.939,661.276 523.995,680.661C523.398,691.211 510.79,704.903 495.856,704.852C481.053,704.852 469.92,694.823 470.354,680.661C470.354,665.858 484.849,653.233 497.161,651.724Z" style="fill:rgb(146,168,209);stroke:rgb(83,45,59);stroke-width:32.28px;"/>
                        </g>
                        <g transform="matrix(0.84437,0.278306,-0.278306,0.84437,271.681,-505.305)">
                            <path d="M263.009,734.826C271.001,726.641 269.132,709.279 257.623,698.527C253.814,693.426 240.281,685.146 240.281,685.146C240.281,685.146 244.983,727.834 246.266,745.086C246.682,753.419 245.366,756.572 244.712,758.475C242.014,762.646 234.693,761.986 236.266,760.678C237.268,758.34 238.304,761.329 241.334,757.048C245.625,752.761 236.45,684.83 236.45,684.83C236.45,684.83 235.506,685.098 235.455,684.649C234.978,683.854 233.049,653.719 233.049,653.719C233.04,653.207 232.972,651.447 233.98,650.621C235.041,649.772 238.514,648.843 239.323,650.317C240.086,651.754 239.492,659.876 239.757,660.052C240.707,661.845 246.253,665.41 246.253,665.41C246.253,665.41 248.809,667.267 254.206,670.685C275.436,680.43 279.237,696.216 280.047,712.275C279.948,720.254 278.925,728.298 273.347,733.719C269.36,737.783 259.38,742.152 255.498,739.969C255.833,738.788 258.786,739.661 263.009,734.826Z" style="fill:rgb(146,168,209);stroke:rgb(83,45,59);stroke-width:2.55px;"/>
                        </g>
                    </g>
                    <g id="音符--4" serif:id="音符♪♪4" transform="matrix(0.241109,0.156833,0.156833,-0.241109,-4.80464,914.633)">
                        <g transform="matrix(0.915744,0.0316124,-0.0316124,0.915744,-246.763,-435.573)">
                            <path d="M497.161,651.724C511.854,649.924 528.21,661.671 525.583,681.117C524.621,689.219 522.297,705.566 496.384,705.417C481.582,705.417 469.92,694.823 470.354,680.661C470.354,665.858 484.849,653.233 497.161,651.724Z" style="fill:rgb(247,202,201);stroke:rgb(83,45,59);stroke-width:4.11px;"/>
                        </g>
                        <g transform="matrix(0.0994804,0.00343417,-0.00343417,0.0994804,140.042,139.796)">
                            <path d="M497.161,651.724C511.854,649.924 527.939,661.276 523.995,680.661C523.398,691.211 510.79,704.903 495.856,704.852C481.053,704.852 469.92,694.823 470.354,680.661C470.354,665.858 484.849,653.233 497.161,651.724Z" style="fill:rgb(247,202,201);stroke:rgb(83,45,59);stroke-width:37.86px;"/>
                        </g>
                        <g transform="matrix(1.24887,0.150316,-0.150316,1.24887,31.399,-769.672)">
                            <path d="M263.009,734.826C271.001,726.641 269.132,709.279 257.623,698.527C253.814,693.426 240.281,685.146 240.281,685.146C240.281,685.146 244.983,727.834 246.266,745.086C246.682,753.419 245.366,756.572 244.712,758.475C242.014,762.646 234.693,761.986 236.266,760.678C237.268,758.34 238.304,761.329 241.334,757.048C245.625,752.761 236.45,684.83 236.45,684.83C236.45,684.83 235.506,685.098 235.455,684.649C234.978,683.854 233.049,653.719 233.049,653.719C233.04,653.207 232.972,651.447 233.98,650.621C235.041,649.772 238.514,648.843 239.323,650.317C240.086,651.754 239.492,659.876 239.757,660.052C240.707,661.845 246.253,665.41 246.253,665.41C246.253,665.41 248.809,667.267 254.206,670.685C275.436,680.43 279.237,696.216 280.047,712.275C279.948,720.254 278.925,728.298 273.347,733.719C269.36,737.783 259.38,742.152 255.498,739.969C255.833,738.788 258.786,739.661 263.009,734.826Z" style="fill:rgb(247,202,201);stroke:rgb(83,45,59);stroke-width:3px;"/>
                        </g>
                        <g transform="matrix(0.916006,-0.0227805,0.0227805,0.916006,-338.921,-434.674)">
                            <path d="M497.161,651.724C511.854,649.924 528.21,661.671 525.583,681.117C524.621,689.219 522.297,705.566 496.384,705.417C481.582,705.417 469.92,694.823 470.354,680.661C470.354,665.858 484.849,653.233 497.161,651.724Z" style="fill:rgb(247,202,201);stroke:rgb(83,45,59);stroke-width:4.11px;"/>
                        </g>
                        <g transform="matrix(0.0995089,-0.00247472,0.00247472,0.0995089,81.3435,116.729)">
                            <path d="M497.161,651.724C511.854,649.924 527.939,661.276 523.995,680.661C523.398,691.211 510.79,704.903 495.856,704.852C481.053,704.852 469.92,694.823 470.354,680.661C470.354,665.858 484.849,653.233 497.161,651.724Z" style="fill:rgb(247,202,201);stroke:rgb(83,45,59);stroke-width:37.86px;"/>
                        </g>
                        <g transform="matrix(1.25559,0.0759477,-0.0759477,1.25559,-81.0726,-784.689)">
                            <path d="M263.009,734.826C271.001,726.641 269.132,709.279 257.623,698.527C253.814,693.426 240.281,685.146 240.281,685.146C240.281,685.146 244.983,727.834 246.266,745.086C246.682,753.419 245.366,756.572 244.712,758.475C242.014,762.646 234.693,761.986 236.266,760.678C237.268,758.34 238.304,761.329 241.334,757.048C245.625,752.761 236.45,684.83 236.45,684.83C236.45,684.83 235.506,685.098 235.455,684.649C234.978,683.854 233.049,653.719 233.049,653.719C233.04,653.207 232.972,651.447 233.98,650.621C235.041,649.772 238.514,648.843 239.323,650.317C240.086,651.754 239.492,659.876 239.757,660.052C240.707,661.845 246.253,665.41 246.253,665.41C246.253,665.41 248.809,667.267 254.206,670.685C275.436,680.43 279.237,696.216 280.047,712.275C279.948,720.254 278.925,728.298 273.347,733.719C269.36,737.783 259.38,742.152 255.498,739.969C255.833,738.788 258.786,739.661 263.009,734.826Z" style="fill:rgb(247,202,201);stroke:rgb(83,45,59);stroke-width:3px;"/>
                        </g>
                    </g>
                    <g id="音符-3" serif:id="音符♩3" transform="matrix(0.303315,-0.0192403,0.0195171,0.307679,185.869,766.221)">
                        <g transform="matrix(0.913081,0.0766108,-0.0766108,0.913081,-278.814,-474.437)">
                            <path d="M497.161,651.724C511.854,649.924 528.21,661.671 525.583,681.117C524.621,689.219 522.297,705.566 496.384,705.417C481.582,705.417 469.92,694.823 470.354,680.661C470.354,665.858 484.849,653.233 497.161,651.724Z" style="fill:rgb(247,202,201);stroke:rgb(83,45,59);stroke-width:4.12px;"/>
                        </g>
                        <g transform="matrix(0.0991911,0.00832249,-0.00832249,0.0991911,79.2263,119.258)">
                            <path d="M497.161,651.724C511.854,649.924 527.939,661.276 523.995,680.661C523.398,691.211 510.79,704.903 495.856,704.852C481.053,704.852 469.92,694.823 470.354,680.661C470.354,665.858 484.849,653.233 497.161,651.724Z" style="fill:rgb(247,202,201);stroke:rgb(83,45,59);stroke-width:37.9px;"/>
                        </g>
                        <g transform="matrix(1.62969,0.681674,-0.485402,1.16046,133.717,-844.15)">
                            <path d="M232.843,650.29C233.032,649.325 234.419,648.693 235.254,649.863C237.042,652.797 237.826,687.958 246.12,742.78C247.175,748.195 247.51,756.013 246.332,758.079C244.919,760.459 237.016,761.62 236.154,760.65C234.753,759.15 244.242,759.846 243.383,753.557C243.19,752.151 231.661,655.228 232.843,650.29Z" style="fill:rgb(247,202,201);stroke:rgb(83,45,59);stroke-width:2.46px;"/>
                        </g>
                    </g>
                    <g id="音符-2" serif:id="音符♫2" transform="matrix(0.261852,-0.0450594,-0.0450594,-0.261852,161.45,948.903)">
                        <g transform="matrix(0.677365,0.26988,-0.26988,0.677365,-22.1216,-404.416)">
                            <path d="M497.161,651.724C511.854,649.924 528.21,661.671 525.583,681.117C524.621,689.219 522.297,705.566 496.384,705.417C481.582,705.417 469.92,694.823 470.354,680.661C470.354,665.858 484.849,653.233 497.161,651.724Z" style="fill:rgb(134,161,169);stroke:rgb(83,45,59);stroke-width:5.97px;"/>
                        </g>
                        <g transform="matrix(0.0789326,0.00662273,-0.00662273,0.0789326,94.5933,137.591)">
                            <path d="M497.161,651.724C511.854,649.924 527.939,661.276 523.995,680.661C523.398,691.211 510.79,704.903 495.856,704.852C481.053,704.852 469.92,694.823 470.354,680.661C470.354,665.858 484.849,653.233 497.161,651.724Z" style="fill:rgb(134,161,169);stroke:rgb(83,45,59);stroke-width:54.93px;"/>
                        </g>
                        <g transform="matrix(0.620158,0.355756,-0.355756,0.620158,-11.0575,-424.098)">
                            <path d="M497.161,651.724C511.854,649.924 528.21,661.671 525.583,681.117C524.621,689.219 522.297,705.566 496.384,705.417C481.582,705.417 469.92,694.823 470.354,680.661C470.354,665.858 484.849,653.233 497.161,651.724Z" style="fill:rgb(134,161,169);stroke:rgb(83,45,59);stroke-width:6.09px;"/>
                        </g>
                        <g transform="matrix(0.0673699,0.0386469,-0.0386469,0.0673699,40.3335,112.233)">
                            <path d="M497.161,651.724C511.854,649.924 527.939,661.276 523.995,680.661C523.398,691.211 510.79,704.903 495.856,704.852C481.053,704.852 469.92,694.823 470.354,680.661C470.354,665.858 484.849,653.233 497.161,651.724Z" style="fill:rgb(134,161,169);stroke:rgb(83,45,59);stroke-width:56.03px;"/>
                        </g>
                        <g transform="matrix(5.37896,0.979033,-0.979033,5.37896,-1627.43,-4004.89)">
                            <path d="M444.11,679.041C444.085,678.541 444.069,678.257 444.069,678.257C444.069,678.257 443.829,678.259 443.823,678.155C443.832,677.988 443.623,674.69 443.623,674.69C443.628,674.572 443.637,674.167 443.88,673.991C444.136,673.811 444.946,673.646 445.112,673.996C445.26,674.322 455.264,674.381 456.197,674.424C456.207,674.386 456.225,674.355 456.252,674.332C456.494,674.134 457.29,673.912 457.48,674.249C457.552,675.29 457.589,676.048 457.65,676.484C457.766,677.262 458.979,692.068 459.319,696.034C459.435,697.95 459.141,698.678 458.995,699.118C458.385,700.084 456.699,699.951 457.058,699.646C457.282,699.105 457.528,699.791 458.214,698.798C459.142,697.85 457.319,684.62 457.126,683.23C455.466,683.024 446.109,682.707 446.109,682.707L444.82,682.616C445.043,686.986 445.351,693.351 445.385,695.857C445.365,697.776 445.019,698.482 444.842,698.91C444.164,699.83 442.492,699.576 442.871,699.298C443.134,698.775 443.33,699.476 444.086,698.535C444.814,697.89 444.52,688.301 444.274,682.544C444.127,682.514 443.991,682.473 443.986,682.426C443.874,682.24 443.827,679.837 443.827,679.837C443.723,679.246 443.667,679.158 443.976,679.096C444.012,679.071 444.058,679.053 444.11,679.041ZM456.682,678.506C455.336,678.371 444.587,678.162 444.587,678.162C444.587,678.162 444.604,678.483 444.634,679.041C444.907,679.069 445.192,679.116 445.376,679.092C445.731,679.111 445.982,678.949 447.31,678.96C448.386,678.985 452.695,679.469 453.741,679.317C454.967,679.078 456.543,679.306 456.638,679.318C456.676,679.323 456.712,679.331 456.746,679.342C456.724,679.061 456.702,678.781 456.682,678.506Z" style="fill:rgb(134,161,169);stroke:rgb(83,45,59);stroke-width:0.8px;"/>
                        </g>
                    </g>
                    <g id="音符-1" serif:id="音符♪1" transform="matrix(0.408784,-0.0558991,0.0558991,0.408784,-41.4081,763.369)">
                        <g transform="matrix(0.617962,0.0518492,-0.0518492,0.617962,-167.733,-146.741)">
                            <path d="M497.161,651.724C511.854,649.924 528.21,661.671 525.583,681.117C524.621,689.219 522.297,705.566 496.384,705.417C481.582,705.417 469.92,694.823 470.354,680.661C470.354,665.858 484.849,653.233 497.161,651.724Z" style="fill:rgb(134,161,169);stroke:rgb(83,45,59);stroke-width:4.52px;"/>
                        </g>
                        <g transform="matrix(0.0671314,0.00563256,-0.00563256,0.0671314,75.6774,247.069)">
                            <path d="M497.161,651.724C511.854,649.924 527.939,661.276 523.995,680.661C523.398,691.211 510.79,704.903 495.856,704.852C481.053,704.852 469.92,694.823 470.354,680.661C470.354,665.858 484.849,653.233 497.161,651.724Z" style="fill:rgb(134,161,169);stroke:rgb(83,45,59);stroke-width:41.6px;"/>
                        </g>
                        <g transform="matrix(0.839196,0.143178,-0.143178,0.839196,32.5095,-371.318)">
                            <path d="M263.009,734.826C271.001,726.641 269.132,709.279 257.623,698.527C253.814,693.426 240.281,685.146 240.281,685.146C240.281,685.146 244.983,727.834 246.266,745.086C246.682,753.419 245.366,756.572 244.712,758.475C242.014,762.646 234.693,761.986 236.266,760.678C237.268,758.34 238.304,761.329 241.334,757.048C245.625,752.761 236.45,684.83 236.45,684.83C236.45,684.83 235.506,685.098 235.455,684.649C234.978,683.854 233.049,653.719 233.049,653.719C233.04,653.207 232.972,651.447 233.98,650.621C235.041,649.772 238.514,648.843 239.323,650.317C240.086,651.754 239.492,659.876 239.757,660.052C240.707,661.845 246.253,665.41 246.253,665.41C246.253,665.41 248.809,667.267 254.206,670.685C275.436,680.43 279.237,696.216 280.047,712.275C279.948,720.254 278.925,728.298 273.347,733.719C269.36,737.783 259.38,742.152 255.498,739.969C255.833,738.788 258.786,739.661 263.009,734.826Z" style="fill:rgb(134,161,169);stroke:rgb(83,45,59);stroke-width:3.29px;"/>
                        </g>
                    </g>
                </g>
            </g>
        </g>
    </g>
</svg>
