<?xml version="1.0" encoding="UTF-8" standalone="no"?><!DOCTYPE svg PUBLIC "-//W3C//DTD SVG 1.1//EN" "http://www.w3.org/Graphics/SVG/1.1/DTD/svg11.dtd"><svg width="100%" height="100%" viewBox="0 0 267 271" version="1.1" xmlns="http://www.w3.org/2000/svg" xmlns:xlink="http://www.w3.org/1999/xlink" xml:space="preserve" xmlns:serif="http://www.serif.com/" style="fill-rule:evenodd;clip-rule:evenodd;stroke-linecap:round;stroke-linejoin:round;stroke-miterlimit:1.5;"><g id="ケーキの扉"><path d="M264.298,186.779c10.345,-105.64 -12.96,-172.404 -119.398,-184.755c-116.315,-9.84 -132.982,130.342 -132.982,130.342c-9.629,66.621 -35.814,104.816 111.175,123.789c111.668,14.241 127.465,17.914 141.205,-69.376Z" style="fill:#fff;"/><path d="M254.291,190.538c9.53,-97.215 -11.858,-158.646 -109.619,-169.983c-106.834,-9.025 -122.179,119.977 -122.179,119.977c-8.863,61.309 -32.924,96.463 102.082,113.883c102.564,13.075 117.072,16.451 129.716,-63.877Z" style="fill:none;stroke:#000;stroke-width:14.58px;stroke-dasharray:43.75,14.58,0,29.17;"/><path d="M233.738,192.265c8.322,-83.624 -9.359,-136.369 -91.134,-145.769c-89.376,-7.38 -102.677,103.596 -102.677,103.596c-7.635,52.747 -27.896,83.06 85.026,97.559c85.789,10.877 97.919,13.729 108.785,-55.386Z" style="fill:none;stroke:#000;stroke-width:10.42px;stroke-dasharray:31.25,31.25,10.42,0;"/><path d="M191.302,195.903c7.672,-68.822 -2.106,-111.582 -53.967,-116.977c-56.764,-3.523 -68.384,87.873 -68.384,87.873c-6.36,43.479 -20.133,68.914 51.439,77.61c54.378,6.493 62.029,8.488 70.912,-48.506Z" style="fill:none;stroke:#000;stroke-width:14.58px;stroke-dasharray:29.17,29.17,0,14.58;"/><path d="M169.138,214.735c5.022,-45.793 -1.962,-74.31 -38.015,-78.134c-39.451,-2.599 -47.115,58.208 -47.115,58.208c-4.224,28.923 -13.679,45.798 36.082,51.908c37.806,4.566 43.131,5.929 49.048,-31.982Z" style="fill:none;stroke:#000;stroke-width:14.58px;stroke-dasharray:29.17,29.17,0,14.58;"/><path d="M151.47,233.447c2.887,-27.254 -1.857,-44.306 -25.218,-46.87c-25.549,-1.862 -30.027,34.32 -30.027,34.32c-2.505,17.205 -8.49,27.189 23.759,31.224c24.501,3.021 27.957,3.875 31.486,-18.674Z" style="fill:none;stroke:#000;stroke-width:14.58px;stroke-dasharray:29.17,29.17,0,14.58;"/></g></svg>