<?xml version="1.0" encoding="UTF-8" standalone="no"?><!DOCTYPE svg PUBLIC "-//W3C//DTD SVG 1.1//EN" "http://www.w3.org/Graphics/SVG/1.1/DTD/svg11.dtd"><svg width="100%" height="100%" viewBox="0 0 492 455" version="1.1" xmlns="http://www.w3.org/2000/svg" xmlns:xlink="http://www.w3.org/1999/xlink" xml:space="preserve" xmlns:serif="http://www.serif.com/" style="fill-rule:evenodd;clip-rule:evenodd;stroke-linejoin:round;stroke-miterlimit:2;"><g id="ケーキのチョコ"><path d="M17.697,353.037c9.04,0.167 16.224,8.713 16.032,19.072c-0.191,10.359 -7.687,18.634 -16.727,18.467c-9.041,-0.168 -16.225,-8.714 -16.033,-19.073c0.192,-10.359 7.687,-18.634 16.728,-18.466Z"/><path d="M78.999,273.841c9.04,0.168 16.224,8.714 16.032,19.073c-0.191,10.359 -7.687,18.633 -16.727,18.466c-9.041,-0.167 -16.225,-8.714 -16.033,-19.073c0.192,-10.359 7.687,-18.633 16.728,-18.466Z"/><path d="M351.273,415.233c9.04,0.167 16.224,8.713 16.032,19.072c-0.191,10.36 -7.687,18.634 -16.727,18.467c-9.041,-0.168 -16.225,-8.714 -16.033,-19.073c0.192,-10.359 7.687,-18.634 16.728,-18.466Z"/><path d="M472.624,410.717c9.04,0.167 16.224,8.714 16.032,19.073c-0.191,10.359 -7.687,18.633 -16.727,18.466c-9.041,-0.167 -16.224,-8.714 -16.033,-19.073c0.192,-10.359 7.687,-18.633 16.728,-18.466Z"/><path d="M346.259,267.469c9.04,0.167 16.224,8.714 16.032,19.073c-0.191,10.359 -7.687,18.633 -16.727,18.466c-9.041,-0.167 -16.225,-8.714 -16.033,-19.073c0.192,-10.359 7.687,-18.633 16.728,-18.466Z"/><path d="M159.151,374.48c9.041,0.167 16.224,8.713 16.033,19.073c-0.192,10.359 -7.687,18.633 -16.728,18.466c-9.04,-0.168 -16.224,-8.714 -16.032,-19.073c0.191,-10.359 7.687,-18.634 16.727,-18.466Z"/><path d="M283.134,0.495c9.04,0.167 16.224,8.713 16.032,19.072c-0.192,10.359 -7.687,18.634 -16.727,18.466c-9.041,-0.167 -16.225,-8.713 -16.033,-19.072c0.192,-10.359 7.687,-18.634 16.728,-18.466Z"/><path d="M394.135,238.361c9.04,0.167 16.224,8.713 16.032,19.072c-0.192,10.359 -7.687,18.634 -16.727,18.467c-9.041,-0.168 -16.225,-8.714 -16.033,-19.073c0.192,-10.359 7.687,-18.634 16.728,-18.466Z"/><path d="M113.796,55.792c9.04,0.168 16.224,8.714 16.033,19.073c-0.192,10.359 -7.688,18.634 -16.728,18.466c-9.04,-0.167 -16.224,-8.713 -16.033,-19.072c0.192,-10.359 7.688,-18.634 16.728,-18.467Z"/></g></svg>