<?xml version="1.0" encoding="UTF-8" standalone="no"?><!DOCTYPE svg PUBLIC "-//W3C//DTD SVG 1.1//EN" "http://www.w3.org/Graphics/SVG/1.1/DTD/svg11.dtd"><svg width="100%" height="100%" viewBox="0 0 1359 1259" version="1.1" xmlns="http://www.w3.org/2000/svg" xmlns:xlink="http://www.w3.org/1999/xlink" xml:space="preserve" xmlns:serif="http://www.serif.com/" style="fill-rule:evenodd;clip-rule:evenodd;stroke-miterlimit:10;"><path id="ケーキのスポンジ" d="M991.984,668.554c96.682,151.953 -56.023,296.102 -154.325,240.477c-11.663,-16.874 -42.289,-22.225 -61.078,-13.995c-63.751,27.936 -91.296,-37.059 -109.602,-32.335c-70.249,18.131 -80.415,43.615 -154.693,-8.276c-13.847,-9.673 -68.743,11.103 -85.552,12.766c-11.392,1.126 -53.16,6.96 -77.591,-25.147c-14.999,-19.712 -12.506,-58.348 1.584,-80.697c11.884,-34.13 2.481,-38.229 1.441,-56.744c-1.023,-18.203 -5.638,-42.694 9.269,-61.007c4.991,-6.13 10.228,-8.603 12.16,-11.097c0,0 -33.374,-88.274 41.724,-125.43c10.043,-16.256 5.146,-65.827 50.97,-78.183c14.992,-4.044 27.51,-14.395 34.766,-28.126c42.38,-80.185 134.469,-61.082 186.332,-59.764c90.282,-3.157 264.53,143.187 304.595,327.558Z" style="fill:#fff;fill-rule:nonzero;stroke:#000;stroke-width:66.67px;"/></svg>