<?xml version="1.0" encoding="UTF-8" standalone="no"?><!DOCTYPE svg PUBLIC "-//W3C//DTD SVG 1.1//EN" "http://www.w3.org/Graphics/SVG/1.1/DTD/svg11.dtd"><svg width="100%" height="100%" viewBox="0 0 96 1130" version="1.1" xmlns="http://www.w3.org/2000/svg" xmlns:xlink="http://www.w3.org/1999/xlink" xml:space="preserve" xmlns:serif="http://www.serif.com/" style="fill-rule:evenodd;clip-rule:evenodd;stroke-linejoin:round;stroke-miterlimit:2;"><g id="壁チョコチップ1"><path d="M40.005,1051.27c21.228,0.393 38.144,17.947 37.751,39.176c-0.393,21.229 -17.947,38.144 -39.176,37.751c-21.228,-0.393 -38.144,-17.947 -37.751,-39.175c0.393,-21.229 17.947,-38.145 39.176,-37.752Z"/><path d="M41.958,932.289c21.229,0.393 38.145,17.947 37.752,39.175c-0.393,21.229 -17.947,38.145 -39.176,37.752c-21.229,-0.393 -38.145,-17.947 -37.752,-39.176c0.394,-21.228 17.948,-38.144 39.176,-37.751Z"/><path d="M43.854,774.684c21.229,0.393 38.145,17.947 37.751,39.176c-0.393,21.228 -17.947,38.144 -39.175,37.751c-21.229,-0.393 -38.145,-17.947 -37.752,-39.176c0.393,-21.228 17.947,-38.144 39.176,-37.751Z"/><path d="M43.037,638.717c21.229,0.393 38.145,17.947 37.752,39.176c-0.393,21.229 -17.947,38.144 -39.176,37.751c-21.229,-0.393 -38.145,-17.947 -37.752,-39.175c0.393,-21.229 17.947,-38.145 39.176,-37.752Z"/><path d="M54.554,3.162c21.229,0.393 38.145,17.947 37.752,39.176c-0.393,21.229 -17.947,38.145 -39.176,37.752c-21.229,-0.393 -38.145,-17.947 -37.752,-39.176c0.393,-21.229 17.947,-38.145 39.176,-37.752Z"/></g></svg>