<?xml version="1.0" encoding="UTF-8" standalone="no"?><!DOCTYPE svg PUBLIC "-//W3C//DTD SVG 1.1//EN" "http://www.w3.org/Graphics/SVG/1.1/DTD/svg11.dtd"><svg width="100%" height="100%" viewBox="0 0 475 584" version="1.1" xmlns="http://www.w3.org/2000/svg" xmlns:xlink="http://www.w3.org/1999/xlink" xml:space="preserve" xmlns:serif="http://www.serif.com/" style="fill-rule:evenodd;clip-rule:evenodd;stroke-linecap:round;stroke-linejoin:round;stroke-miterlimit:1.5;"><g id="_2階窓" serif:id="2階窓"><path id="_2階ドア下枠" serif:id="2階ドア下枠" d="M442.379,545.983c1.391,-27.343 -17.619,-37.338 -25.745,-37.392c0,0 -352.58,-2.378 -352.713,-2.378c0,0 0,0 0,0c-8.126,-0.055 -37.131,0.657 -34.13,33.318c2.93,21.619 25.608,25.519 33.733,25.573l352.713,2.378c8.126,0.055 24.445,-7.745 26.142,-21.499Z" style="stroke:#000;stroke-width:31.25px;"/><path id="_2階ドア右枠" serif:id="2階ドア右枠" d="M420.217,285.855c0.011,-1.652 -1.321,-3.002 -2.973,-3.013l-5.987,-0.041c-1.652,-0.011 -3.002,1.321 -3.013,2.973l-1.69,250.673c-0.012,1.652 1.321,3.003 2.973,3.014l5.986,0.04c1.652,0.011 3.003,-1.321 3.014,-2.973l1.69,-250.673Z" style="stroke:#000;stroke-width:31.25px;"/><path id="_2階ドア左枠" serif:id="2階ドア左枠" d="M76.273,282.634c0.014,-2.155 -1.723,-3.916 -3.878,-3.931l-7.808,-0.052c-2.155,-0.015 -3.916,1.723 -3.93,3.878l-1.678,248.851c-0.015,2.155 1.723,3.916 3.878,3.93l7.808,0.053c2.154,0.014 3.916,-1.723 3.93,-3.878l1.678,-248.851Z" style="stroke:#000;stroke-width:31.25px;"/><path id="_2階ドア真ん中模様" serif:id="2階ドア真ん中模様" d="M139.88,457.035c-37.271,-29.185 -21.745,-184.061 -2.462,-160.837c1.078,1.298 61.565,0.767 58.427,-85.41c1.632,-75.752 -0.219,-129.538 44.803,-133.846c50.686,-4.85 42.496,79.485 40.362,136.018c-2.179,48.61 20.658,75.161 67.032,78.739c16.671,91.432 22.14,134.576 -12.606,163.055c-34.234,25.617 -176.102,19.033 -195.556,2.281Z" style="fill:none;stroke:#000;stroke-width:31.25px;"/><path id="_2階ドア4番目ドア" serif:id="2階ドア4番目ドア" d="M179.976,418.544c-25.161,-4.817 -23.671,-125.518 51.765,-124.973c86.981,-2.15 85.765,116.703 55.676,124.862c-59.521,16.14 -103.673,2.225 -107.441,0.111Z"/><path id="_2階ドア3番目ドア" serif:id="2階ドア3番目ドア" d="M223.103,249.036c-7.551,-1.446 -7.104,-37.668 15.534,-37.504c26.103,-0.645 25.738,35.022 16.709,37.471c-17.862,4.843 -31.112,0.667 -32.243,0.033Z"/><path id="_2階ドア2番目ドア" serif:id="2階ドア2番目ドア" d="M229.181,196.061c-5.336,-1.022 -5.02,-26.621 10.979,-26.506c18.447,-0.455 18.189,24.752 11.808,26.482c-12.624,3.423 -21.988,0.472 -22.787,0.024Z"/><path id="_2階ドア1番目ドア" serif:id="2階ドア1番目ドア" d="M232.608,153.525c-3.553,-0.681 -3.343,-17.726 7.31,-17.649c12.283,-0.303 12.111,16.481 7.862,17.633c-8.405,2.279 -14.64,0.314 -15.172,0.016Z"/><path id="_2階ドア上くるくる" serif:id="2階ドア上くるくる" d="M239.217,50.653c-57.383,4.087 -57.321,31.678 -57.748,64.754c-4.444,98.675 -22.549,146.577 -75.83,162.182c-34.346,9.661 -61.175,4.604 -81.583,-10.117c-48.885,-41.381 -17.801,-117.245 52.191,-105.179c19.796,0.999 40.316,17.353 44.154,41.645c12.117,44.886 -79.126,72.873 -84.077,17.014c4.426,-38.278 53.584,-32.903 57.185,-11.129c2.241,13.549 -6.974,25.249 -18.807,20.177c-7.364,-4.579 -2.903,-10.857 -2.365,-11.865c1.865,-3.491 6.153,-9.084 -2.376,-9.479c-15.861,-0.733 -18.106,23.878 -4.267,26.617c53.5,3.859 37.067,-49.565 2.46,-54.768c-59.598,-9.236 -68.455,116.431 37.237,73.525c84.907,-51.523 28.798,-166.612 39.818,-198.4c7.946,-22.921 21.929,-32.083 26.321,-35.385c17.232,-16.855 51.366,-18.707 68.665,-18.986c23.008,0.374 33.228,1.219 64.809,18.638c13.683,10.36 24.404,29.068 27.287,37.616c14.034,46.171 -49.438,146.055 34.766,198.719c105.104,44.327 97.943,-81.448 38.226,-73.017c-34.675,4.737 -51.827,57.934 1.721,54.796c13.875,-2.551 11.961,-27.191 -3.908,-26.671c-8.533,0.28 -4.321,5.93 -2.504,9.446c0.525,1.015 4.9,7.353 -2.525,11.832c-11.9,4.912 -20.957,-6.911 -18.533,-20.429c3.895,-21.723 53.12,-26.435 57.03,11.899c-5.704,55.788 -96.561,26.573 -83.84,-18.145c4.165,-24.239 24.904,-40.315 44.712,-41.047c70.148,-11.121 100.207,65.155 50.767,105.874c-20.604,14.444 -47.499,19.139 -81.712,9.015c-53.065,-16.322 -60.89,-61.878 -64.004,-160.604c0.02,-34.396 -7.476,-72.502 -63.27,-68.528Z"/></g></svg>