<?xml version="1.0" encoding="UTF-8" standalone="no"?>
<!DOCTYPE svg PUBLIC "-//W3C//DTD SVG 1.1//EN" "http://www.w3.org/Graphics/SVG/1.1/DTD/svg11.dtd">
<svg width="100%" height="100%" viewBox="0 0 86 77" version="1.1" xmlns="http://www.w3.org/2000/svg" xmlns:xlink="http://www.w3.org/1999/xlink" xml:space="preserve" xmlns:serif="http://www.serif.com/" style="fill-rule:evenodd;clip-rule:evenodd;stroke-linecap:round;stroke-linejoin:round;stroke-miterlimit:1.5;">
    <g transform="matrix(1,0,0,1,-441,-184)">
        <g transform="matrix(0.999829,0.0185101,-0.0185101,0.999829,33.6237,-72.364)">
            <g id="_2階ドア" serif:id="2階ドア" transform="matrix(0.627729,-0.00613542,0.00524053,0.53617,168.495,153.944)">
                <g id="_2階ドア下枠" serif:id="2階ドア下枠" transform="matrix(1.19346,0,6.93889e-18,0.842649,30.6744,186.558)">
                    <path d="M397.502,147.699C397.749,141.008 393.839,138.595 392.174,138.595L319.88,138.595C318.215,138.595 312.271,138.817 312.931,146.801C313.561,152.084 318.215,153.001 319.88,153.001L392.174,153.001C393.839,153.001 397.173,151.066 397.502,147.699Z" style="stroke:black;stroke-width:12.12px;"/>
                </g>
                <g id="_2階ドア右枠" serif:id="2階ドア右枠" transform="matrix(0.886483,0,1.44524e-17,0.952477,176.03,135.098)">
                    <path d="M364.421,119.197C364.421,118.7 364.051,118.297 363.595,118.297L361.943,118.297C361.487,118.297 361.117,118.7 361.117,119.197L361.117,172.94C361.117,173.437 361.487,173.84 361.943,173.84L363.595,173.84C364.051,173.84 364.421,173.437 364.421,172.94L364.421,119.197Z" style="stroke:black;stroke-width:14.04px;"/>
                </g>
                <g id="_2階ドア左枠" serif:id="2階ドア左枠" transform="matrix(1.15621,0,1.7757e-17,0.952477,-6.37433,136.231)">
                    <path d="M364.421,119.471C364.421,118.823 364.051,118.297 363.595,118.297L361.943,118.297C361.487,118.297 361.117,118.823 361.117,119.471L361.117,172.667C361.117,173.314 361.487,173.84 361.943,173.84L363.595,173.84C364.051,173.84 364.421,173.314 364.421,172.667L364.421,119.471Z" style="stroke:black;stroke-width:11.95px;"/>
                </g>
                <g id="_2階ドア真ん中模様" serif:id="2階ドア真ん中模様" transform="matrix(1,0,1.27859e-17,0.842649,-0.0952991,27.7365)">
                    <path d="M430.937,307.767C421.772,300.689 425.314,262.78 430.069,268.429C430.335,268.745 445.13,268.515 444.22,247.441C444.494,228.909 443.953,215.756 454.958,214.628C467.348,213.358 465.484,234 465.055,247.832C464.602,259.726 470.232,266.183 481.582,266.981C485.81,289.319 487.219,299.863 478.767,306.886C470.435,313.209 435.723,311.832 430.937,307.767Z" style="fill:none;stroke:black;stroke-width:13.71px;"/>
                </g>
                <g id="_2階ドア4番目ドア" serif:id="2階ドア4番目ドア" transform="matrix(1,0,9.86242e-18,0.842649,-0.0714743,29.2432)">
                    <path d="M440.681,298.286C434.518,297.149 434.684,267.622 453.137,267.631C474.409,266.962 474.308,296.036 466.961,298.081C452.429,302.127 441.606,298.796 440.681,298.286Z"/>
                </g>
                <g id="_2階ドア3番目ドア" serif:id="2階ドア3番目ドア" transform="matrix(0.300098,0,2.9597e-18,0.252877,318.631,170.165)">
                    <path d="M440.681,298.286C434.518,297.149 434.684,267.622 453.137,267.631C474.409,266.962 474.308,296.036 466.961,298.081C452.429,302.127 441.606,298.796 440.681,298.286Z"/>
                </g>
                <g id="_2階ドア2番目ドア" serif:id="2階ドア2番目ドア" transform="matrix(0.212086,0,2.09168e-18,0.178714,358.816,181.36)">
                    <path d="M440.681,298.286C434.518,297.149 434.684,267.622 453.137,267.631C474.409,266.962 474.308,296.036 466.961,298.081C452.429,302.127 441.606,298.796 440.681,298.286Z"/>
                </g>
                <g id="_2階ドア1番目ドア" serif:id="2階ドア1番目ドア" transform="matrix(0.141216,0,1.39273e-18,0.118995,390.815,190.401)">
                    <path d="M440.681,298.286C434.518,297.149 434.684,267.622 453.137,267.631C474.409,266.962 474.308,296.036 466.961,298.081C452.429,302.127 441.606,298.796 440.681,298.286Z"/>
                </g>
                <g id="_2階ドア上くるくる" serif:id="2階ドア上くるくる" transform="matrix(0.615755,5.46567e-18,7.78787e-18,0.376532,355.191,153.926)">
                    <path d="M161.797,114.997C142.261,114.434 136.504,144.315 135.213,158.378C134.485,168.131 133.764,179.203 132.945,189.236C132.152,198.96 131.268,207.708 130.198,213.33C126.551,228.996 121.535,232.024 112.351,241.458C96.409,254.597 74.92,254.247 59.851,226.563C40.939,191.39 63.426,132.966 86.481,141.807C106.993,148.745 110.482,174.689 110.651,186.744C112.7,235.23 64.906,252.311 67.405,203.52C70.763,164.232 95.674,175.537 96.137,198.647C96.217,211.087 91.1,221.032 85.84,217.699C82.396,215.369 82.851,209.56 83.098,209.039C86.626,215.223 94.173,200.367 83.42,197.109C76.029,196.787 74.972,220.332 81.427,221.692C106.359,223.492 104.799,172.074 81.064,167.964C53.61,163.997 57.577,262.498 100.211,229.954C107.431,225.679 111.838,216.842 114.89,209.387C123.908,181.322 115.227,156.444 124.569,108.184C132.133,63.466 192.635,58.513 204.23,112.145C211.037,143.625 207.822,159.711 206.414,179.61C204.749,201.863 215.012,220.49 224.776,227.317C269.814,253.649 270.626,165.5 242.836,170.045C226.7,172.602 215.72,222.467 240.653,220.667C247.108,219.307 248.863,197.83 241.472,198.152C237.498,198.326 236.254,205.493 237.112,207.296C237.359,207.816 243.34,214.163 236.473,217.924C224.442,206.397 230.892,187.286 238.894,182.322C244.344,179.44 257.094,177.579 257.225,206.768C257.735,235.232 211.551,239.361 218.114,182.587C221.695,159.829 233.181,148.028 242.405,147.583C275.046,141.619 282.848,216.258 259.947,237.376C250.394,244.878 237.881,247.387 221.913,242.298C197.144,234.085 192.133,213.586 190.373,162.81C190.274,145.115 182.143,114.269 161.797,114.997Z"/>
                </g>
            </g>
        </g>
    </g>
</svg>
