<?xml version="1.0" encoding="UTF-8" standalone="no"?><!DOCTYPE svg PUBLIC "-//W3C//DTD SVG 1.1//EN" "http://www.w3.org/Graphics/SVG/1.1/DTD/svg11.dtd"><svg width="100%" height="100%" viewBox="0 0 359 321" version="1.1" xmlns="http://www.w3.org/2000/svg" xmlns:xlink="http://www.w3.org/1999/xlink" xml:space="preserve" xmlns:serif="http://www.serif.com/" style="fill-rule:evenodd;clip-rule:evenodd;stroke-linecap:round;stroke-linejoin:round;stroke-miterlimit:1.5;"><g id="屋根裏"><path id="_2階ドア下枠" serif:id="2階ドア下枠" d="M307.656,292.505c0.882,-12.588 -11.284,-17.238 -16.483,-17.283l-225.668,-1.972c-5.199,-0.046 -23.757,0.21 -21.827,15.258c1.881,9.963 16.391,11.816 21.59,11.861l225.668,1.972c5.199,0.045 15.638,-3.506 16.72,-9.836Z" style="stroke:#000;stroke-width:31.25px;"/><path id="_2階ドア右枠" serif:id="2階ドア右枠" d="M293.199,152.995c0.009,-1.057 -0.842,-1.922 -1.899,-1.932l-3.83,-0.033c-1.057,-0.009 -1.922,0.841 -1.932,1.898l-0.999,114.361c-0.009,1.057 0.841,1.923 1.898,1.932l3.831,0.033c1.057,0.009 1.922,-0.841 1.932,-1.898l0.999,-114.361Z" style="stroke:#000;stroke-width:31.25px;"/><path id="_2階ドア左枠" serif:id="2階ドア左枠" d="M73.172,154.187c0.012,-1.379 -1.097,-2.508 -2.476,-2.52l-4.996,-0.044c-1.378,-0.012 -2.507,1.098 -2.519,2.476l-0.989,113.196c-0.013,1.378 1.097,2.507 2.476,2.519l4.995,0.044c1.379,0.012 2.508,-1.097 2.52,-2.476l0.989,-113.195Z" style="stroke:#000;stroke-width:31.25px;"/><path id="_2階ドア真ん中模様" serif:id="2階ドア真ん中模様" d="M113.958,237.325c-23.855,-13.532 -13.967,-84.816 -1.622,-74.073c0.69,0.6 39.389,0.506 37.357,-39.188c1.022,-34.88 -0.178,-59.654 28.627,-61.526c32.427,-2.108 27.212,36.71 25.863,62.738c-1.381,22.381 13.238,34.664 42.91,36.428c10.693,42.147 14.205,62.028 -8.018,75.057c-21.896,11.712 -112.666,8.327 -125.117,0.564Z" style="fill:none;stroke:#000;stroke-width:31.25px;"/><path id="_2階ドア4番目ドア" serif:id="2階ドア4番目ドア" d="M139.633,223.066c-16.099,-2.281 -15.181,-57.861 33.083,-57.423c55.651,-0.774 54.907,53.957 35.659,57.639c-38.078,7.285 -66.33,0.767 -68.742,-0.216Z"/><path id="_2階ドア3番目ドア" serif:id="2階ドア3番目ドア" d="M166.582,145.107c-4.951,-0.685 -4.672,-17.365 10.169,-17.23c17.112,-0.229 16.887,16.196 10.969,17.3c-11.709,2.183 -20.397,0.225 -21.138,-0.07Z"/><path id="_2階ドア2番目ドア" serif:id="2階ドア2番目ドア" d="M171.05,120.732c-3.414,-0.484 -3.22,-12.272 7.017,-12.179c11.802,-0.164 11.645,11.443 7.562,12.224c-8.075,1.545 -14.067,0.163 -14.579,-0.045Z"/><path id="_2階ドア1番目ドア" serif:id="2階ドア1番目ドア" d="M173.23,101.152c-2.273,-0.322 -2.144,-8.171 4.672,-8.109c7.859,-0.11 7.754,7.619 5.036,8.139c-5.377,1.029 -9.367,0.109 -9.708,-0.03Z"/><path id="_2階ドア上くるくる" serif:id="2階ドア上くるくる" d="M178.425,37.143c-31.461,-0.749 -40.953,24.306 -43.135,36.118c-1.243,8.193 -2.487,17.497 -3.879,25.925c-1.349,8.169 -2.837,15.515 -4.601,20.229c-5.99,13.127 -14.09,15.604 -28.95,23.41c-25.772,10.829 -60.379,10.232 -84.445,-13.268c-30.199,-29.853 6.446,-78.683 43.512,-70.922c32.985,6.125 38.413,27.998 38.597,38.141c2.944,40.816 -74.157,54.512 -69.773,13.504c5.697,-33.002 45.734,-23.141 46.309,-3.695c0.039,10.465 -8.276,18.759 -16.722,15.881c-5.531,-2.008 -4.755,-6.888 -4.353,-7.322c5.637,5.251 17.901,-7.14 0.605,-10.032c-11.9,-0.375 -13.776,19.416 -3.39,20.652c40.142,1.864 38.007,-41.41 -0.19,-45.201c-44.187,-3.724 -38.521,79.191 30.382,52.415c11.659,-3.495 18.823,-10.866 23.793,-17.095c14.729,-23.481 0.931,-44.53 16.332,-84.995c12.511,-37.51 109.988,-40.826 128.269,4.452c10.731,26.578 5.435,40.064 3.02,56.783c-2.845,18.696 13.548,34.509 29.223,40.389c72.342,22.785 74.298,-51.354 29.508,-47.923c-26.008,1.924 -44.057,43.716 -3.889,42.553c10.406,-1.054 13.391,-19.095 1.486,-18.928c-6.402,0.09 -8.459,6.102 -7.091,7.63c0.395,0.441 9.982,5.864 -1.106,8.931c-19.291,-9.865 -8.764,-25.851 4.161,-29.914c8.799,-2.347 29.347,-3.734 29.343,20.822c0.612,23.951 -73.8,26.775 -62.813,-20.892c5.934,-19.092 24.521,-28.858 39.38,-29.103c52.613,-4.557 64.629,58.339 27.591,75.781c-15.439,6.176 -35.611,8.11 -61.291,3.605c-39.832,-7.257 -47.751,-24.571 -50.213,-67.309c-0.029,-14.886 -12.897,-40.948 -45.67,-40.622Z"/></g></svg>