<svg id="attic" width="85.2" height="71.8" viewBox="0 0 359 321" xmlns="http://www.w3.org/2000/svg" fill-rule="evenodd" clip-rule="evenodd" stroke-linecap="round" stroke-linejoin="round" stroke-miterlimit="1.5"><path d="M307.656 292.505c.882-12.588-11.284-17.238-16.483-17.283L65.505 273.25c-5.199-.046-23.757.21-21.827 15.258 1.881 9.963 16.391 11.816 21.59 11.861l225.668 1.972c5.199.045 15.638-3.506 16.72-9.836zM293.199 152.995a1.917 1.917 0 00-1.899-1.932l-3.83-.033a1.917 1.917 0 00-1.932 1.898l-.999 114.361a1.916 1.916 0 001.898 1.932l3.831.033a1.917 1.917 0 001.932-1.898l.999-114.361zM73.172 154.187a2.499 2.499 0 00-2.476-2.52l-4.996-.044a2.5 2.5 0 00-2.519 2.476l-.989 113.196a2.498 2.498 0 002.476 2.519l4.995.044a2.499 2.499 0 002.52-2.476l.989-113.195z" stroke="red" stroke-width="31.25"/><path d="M113.958 237.325c-23.855-13.532-13.967-84.816-1.622-74.073.69.6 39.389.506 37.357-39.188 1.022-34.88-.178-59.654 28.627-61.526 32.427-2.108 27.212 36.71 25.863 62.738-1.381 22.381 13.238 34.664 42.91 36.428 10.693 42.147 14.205 62.028-8.018 75.057-21.896 11.712-112.666 8.327-125.117.564z" fill="red" stroke="red" stroke-width="31.25"/><path d="M139.633 223.066c-16.099-2.281-15.181-57.861 33.083-57.423 55.651-.774 54.907 53.957 35.659 57.639-38.078 7.285-66.33.767-68.742-.216zM166.582 145.107c-4.951-.685-4.672-17.365 10.169-17.23 17.112-.229 16.887 16.196 10.969 17.3-11.709 2.183-20.397.225-21.138-.07zM171.05 120.732c-3.414-.484-3.22-12.272 7.017-12.179 11.802-.164 11.645 11.443 7.562 12.224-8.075 1.545-14.067.163-14.579-.045zM173.23 101.152c-2.273-.322-2.144-8.171 4.672-8.109 7.859-.11 7.754 7.619 5.036 8.139-5.377 1.029-9.367.109-9.708-.03z" fill="red" stroke="red"/><path d="M178.425 37.143c-31.461-.749-40.953 24.306-43.135 36.118-1.243 8.193-2.487 17.497-3.879 25.925-1.349 8.169-2.837 15.515-4.601 20.229-5.99 13.127-14.09 15.604-28.95 23.41-25.772 10.829-60.379 10.232-84.445-13.268-30.199-29.853 6.446-78.683 43.512-70.922C89.912 64.76 95.34 86.633 95.524 96.776c2.944 40.816-74.157 54.512-69.773 13.504 5.697-33.002 45.734-23.141 46.309-3.695.039 10.465-8.276 18.759-16.722 15.881-5.531-2.008-4.755-6.888-4.353-7.322 5.637 5.251 17.901-7.14.605-10.032-11.9-.375-13.776 19.416-3.39 20.652 40.142 1.864 38.007-41.41-.19-45.201-44.187-3.724-38.521 79.191 30.382 52.415 11.659-3.495 18.823-10.866 23.793-17.095 14.729-23.481.931-44.53 16.332-84.995 12.511-37.51 109.988-40.826 128.269 4.452 10.731 26.578 5.435 40.064 3.02 56.783-2.845 18.696 13.548 34.509 29.223 40.389 72.342 22.785 74.298-51.354 29.508-47.923-26.008 1.924-44.057 43.716-3.889 42.553 10.406-1.054 13.391-19.095 1.486-18.928-6.402.09-8.459 6.102-7.091 7.63.395.441 9.982 5.864-1.106 8.931-19.291-9.865-8.764-25.851 4.161-29.914 8.799-2.347 29.347-3.734 29.343 20.822.612 23.951-73.8 26.775-62.813-20.892 5.934-19.092 24.521-28.858 39.38-29.103 52.613-4.557 64.629 58.339 27.591 75.781-15.439 6.176-35.611 8.11-61.291 3.605-39.832-7.257-47.751-24.571-50.213-67.309-.029-14.886-12.897-40.948-45.67-40.622z" fill="red" stroke="red"/></svg>