<svg id="entrance" width="165.5" height="203.1" viewBox="0 0 717 875" xmlns="http://www.w3.org/2000/svg" fill-rule="evenodd" clip-rule="evenodd" stroke-linecap="round" stroke-linejoin="round" stroke-miterlimit="1.5"><g fill="#fff" stroke="#f4f4f4"><path d="M678.013 377.506c.102-15.136-12.103-27.507-27.238-27.609l-54.847-.37c-15.135-.102-27.506 12.104-27.608 27.239l-2.713 402.379c-.102 15.135 12.103 27.506 27.238 27.608l54.847.37c15.135.102 27.506-12.103 27.608-27.239l2.713-402.378zM157.006 385.514c.11-16.382-13.101-29.772-29.484-29.883l-59.366-.4c-16.382-.111-29.773 13.1-29.883 29.483L35.8 751.399c-.11 16.383 13.101 29.773 29.484 29.883l59.366.401c16.382.11 29.773-13.101 29.883-29.484l2.473-366.685z" stroke-width="18.75"/><path d="M699.574 824.147c7.561-17.376 12.046-66.792-48.751-59.179-64.034.697-56.312-34.027-303.421-34.066-160-12.548-197.158 30.827-276.063 27.226-27.806 6.935-61.639 1.091-56.656 55.308 4.864 35.887 42.508 42.361 55.997 42.452l585.498 3.947c13.489.091 40.579-12.857 43.396-35.688z" stroke-width="25"/><path d="M32.285 292.977C47.978 221.61 81.936 24.424 345.187 15.724c262.4-8.672 338.454 208.056 344.673 274.962 12.85 91.239-114.068 117.533-130.736 46.331-27.996-136.304-59.55-182.569-189.89-184.169-123.813-1.52-190.261 78.955-207.036 163.271.057 83.881-152.779 86.914-129.913-23.142z" stroke-width="27.08" fill="#fff"/></g></svg>