<?xml version="1.0" encoding="UTF-8" standalone="no"?>
<!DOCTYPE svg PUBLIC "-//W3C//DTD SVG 1.1//EN" "http://www.w3.org/Graphics/SVG/1.1/DTD/svg11.dtd">
<svg width="100%" height="100%" viewBox="0 0 199 210" version="1.1" xmlns="http://www.w3.org/2000/svg" xmlns:xlink="http://www.w3.org/1999/xlink" xml:space="preserve" xmlns:serif="http://www.serif.com/" style="fill-rule:evenodd;clip-rule:evenodd;stroke-linejoin:round;stroke-miterlimit:2;">
    <g transform="matrix(1,0,0,1,-385,-465)">
        <g transform="matrix(0.794848,0.0147152,-0.0147152,0.794848,123.983,69.1282)">
            <g id="ドア扉マーブル5">
                <g transform="matrix(1.21106,0.114626,-0.109228,1.15402,382.785,550.934)">
                    <path d="M0,48C-13.255,48 -24,37.255 -24,24C-24,10.745 -13.255,0 0,0C13.255,0 24,10.745 24,24C24,37.255 13.255,48 0,48" style="fill-rule:nonzero;"/>
                </g>
                <g transform="matrix(1.21106,0.114626,-0.109703,1.15904,372.986,601.777)">
                    <path d="M0,48C-13.255,48 -24,37.255 -24,24C-24,10.745 -13.255,0 0,0C13.255,0 24,10.745 24,24C24,37.255 13.255,48 0,48" style="fill-rule:nonzero;"/>
                </g>
                <g transform="matrix(1.21106,0.114626,-0.109156,1.15327,377.955,649.426)">
                    <path d="M0,48C-13.255,48 -24,37.255 -24,24C-24,10.745 -13.255,0 0,0C13.255,0 24,10.745 24,24C24,37.255 13.255,48 0,48" style="fill-rule:nonzero;"/>
                </g>
                <g transform="matrix(-0.0898281,-1.21315,-1.21315,0.0898281,378.105,696.726)">
                    <path d="M-24,-24C-37.255,-24 -48,-13.255 -48,0C-48,13.255 -37.255,24 -24,24C-10.745,24 0,13.255 0,0C0,-13.255 -10.745,-24 -24,-24" style="fill-rule:nonzero;"/>
                </g>
                <g transform="matrix(-0.0876536,-1.18378,-1.21315,0.0898281,557.858,691.331)">
                    <path d="M-24,-24C-37.255,-24 -48,-13.255 -48,0C-48,13.255 -37.255,24 -24,24C-10.745,24 0,13.255 0,0C0,-13.255 -10.745,-24 -24,-24" style="fill-rule:nonzero;"/>
                </g>
                <g transform="matrix(1.20398,-0.173876,0.170534,1.18084,556.155,638.868)">
                    <path d="M0,48C-13.255,48 -24,37.255 -24,24C-24,10.745 -13.255,0 0,0C13.255,0 24,10.745 24,24C24,37.255 13.255,48 0,48" style="fill-rule:nonzero;"/>
                </g>
                <g transform="matrix(1.20398,-0.173876,0.170374,1.17972,555.777,588.891)">
                    <path d="M0,48C-13.255,48 -24,37.255 -24,24C-24,10.745 -13.255,0 0,0C13.255,0 24,10.745 24,24C24,37.255 13.255,48 0,48" style="fill-rule:nonzero;"/>
                </g>
                <g transform="matrix(1.05192,-0.151916,0.158754,1.09927,554.547,541.527)">
                    <path d="M0,48C-13.255,48 -24,37.255 -24,24C-24,10.745 -13.255,0 0,0C13.255,0 24,10.745 24,24C24,37.255 13.255,48 0,48" style="fill-rule:nonzero;"/>
                </g>
                <g transform="matrix(1.20398,-0.173876,0.177423,1.22854,528.746,503.13)">
                    <path d="M0,48C-13.255,48 -24,37.255 -24,24C-24,10.745 -13.255,0 0,0C13.255,0 24,10.745 24,24C24,37.255 13.255,48 0,48" style="fill-rule:nonzero;"/>
                </g>
                <g transform="matrix(-0.0342611,-1.04048,-1.06819,0.0351732,487.24,489.892)">
                    <path d="M-24,-24C-37.255,-24 -48,-13.255 -48,0C-48,13.255 -37.255,24 -24,24C-10.745,24 0,13.255 0,0C0,-13.255 -10.745,-24 -24,-24" style="fill-rule:nonzero;"/>
                </g>
                <g transform="matrix(-0.0332886,-1.01095,-1.09823,0.0361626,440.047,489.947)">
                    <path d="M-24,-24C-37.255,-24 -48,-13.255 -48,0C-48,13.255 -37.255,24 -24,24C-10.745,24 0,13.255 0,0C0,-13.255 -10.745,-24 -24,-24" style="fill-rule:nonzero;"/>
                </g>
                <g transform="matrix(-0.0371483,-1.12817,-1.21581,0.0400342,391.625,504.734)">
                    <path d="M-24,-24C-37.255,-24 -48,-13.255 -48,0C-48,13.255 -37.255,24 -24,24C-10.745,24 0,13.255 0,0C0,-13.255 -10.745,-24 -24,-24" style="fill-rule:nonzero;"/>
                </g>
            </g>
        </g>
    </g>
</svg>
