<?xml version="1.0" encoding="UTF-8" standalone="no"?>
<!DOCTYPE svg PUBLIC "-//W3C//DTD SVG 1.1//EN" "http://www.w3.org/Graphics/SVG/1.1/DTD/svg11.dtd">
<svg width="100%" height="100%" viewBox="0 0 134 19" version="1.1" xmlns="http://www.w3.org/2000/svg" xmlns:xlink="http://www.w3.org/1999/xlink" xml:space="preserve" xmlns:serif="http://www.serif.com/" style="fill-rule:evenodd;clip-rule:evenodd;stroke-linejoin:round;stroke-miterlimit:2;">
    <g transform="matrix(1,0,0,1,-442,-612)">
        <g transform="matrix(0.794848,0.0147152,-0.0147152,0.794848,123.983,69.1282)">
            <g id="ドア扉チョコチップ1" transform="matrix(-0.0161392,-1.25778,1.25778,-0.0161392,-330.455,1156.06)">
                <g transform="matrix(0.591954,0,0,0.591954,176.172,328.53)">
                    <circle cx="325.519" cy="668.03" r="9.233"/>
                </g>
                <g transform="matrix(0.591954,0,0,0.591954,170.269,302.076)">
                    <circle cx="325.519" cy="668.03" r="9.233"/>
                </g>
                <g transform="matrix(0.591954,0,0,0.591954,169.762,282.617)">
                    <circle cx="325.519" cy="668.03" r="9.233"/>
                </g>
                <g transform="matrix(0.591954,0,0,0.591954,169.942,260.569)">
                    <circle cx="325.519" cy="668.03" r="9.233"/>
                </g>
                <g transform="matrix(0.591954,0,0,0.591954,168.676,227.596)">
                    <circle cx="325.519" cy="668.03" r="9.233"/>
                </g>
                <g transform="matrix(0.591954,0,0,0.591954,168.897,205.829)">
                    <circle cx="325.519" cy="668.03" r="9.233"/>
                </g>
            </g>
        </g>
    </g>
</svg>
