<?xml version="1.0" encoding="UTF-8" standalone="no"?>
<!DOCTYPE svg PUBLIC "-//W3C//DTD SVG 1.1//EN" "http://www.w3.org/Graphics/SVG/1.1/DTD/svg11.dtd">
<svg width="100%" height="100%" viewBox="0 0 15 211" version="1.1" xmlns="http://www.w3.org/2000/svg" xmlns:xlink="http://www.w3.org/1999/xlink" xml:space="preserve" xmlns:serif="http://www.serif.com/" style="fill-rule:evenodd;clip-rule:evenodd;stroke-linejoin:round;stroke-miterlimit:2;">
    <g transform="matrix(1,0,0,1,-479,-441)">
        <g transform="matrix(0.794848,0.0147152,-0.0147152,0.794848,123.983,69.1282)">
            <g id="ドア扉チョコチップ4" transform="matrix(1.25789,0,0,1.25789,5.07814,-134.336)">
                <g transform="matrix(0.591954,0,0,0.591954,175.709,281.686)">
                    <circle cx="325.519" cy="668.03" r="9.233"/>
                </g>
                <g transform="matrix(0.591954,0,0,0.591954,176.224,260.508)">
                    <circle cx="325.519" cy="668.03" r="9.233"/>
                </g>
                <g transform="matrix(0.591954,0,0,0.591954,175.774,239.086)">
                    <circle cx="325.519" cy="668.03" r="9.233"/>
                </g>
                <g transform="matrix(0.591954,0,0,0.591954,176.224,216.814)">
                    <circle cx="325.519" cy="668.03" r="9.233"/>
                </g>
                <g transform="matrix(0.591954,0,0,0.591954,176.326,198.606)">
                    <circle cx="325.519" cy="668.03" r="9.233"/>
                </g>
                <g transform="matrix(0.591954,0,0,0.591954,171.668,103.747)">
                    <circle cx="325.519" cy="668.03" r="9.233"/>
                </g>
                <g transform="matrix(0.591954,0,0,0.591954,171.79,82.764)">
                    <circle cx="325.519" cy="668.03" r="9.233"/>
                </g>
            </g>
        </g>
    </g>
</svg>
