<?xml version="1.0" encoding="UTF-8" standalone="no"?>
<!DOCTYPE svg PUBLIC "-//W3C//DTD SVG 1.1//EN" "http://www.w3.org/Graphics/SVG/1.1/DTD/svg11.dtd">
<svg width="100%" height="100%" viewBox="0 0 172 210" version="1.1" xmlns="http://www.w3.org/2000/svg" xmlns:xlink="http://www.w3.org/1999/xlink" xml:space="preserve" xmlns:serif="http://www.serif.com/" style="fill-rule:evenodd;clip-rule:evenodd;stroke-linecap:round;stroke-linejoin:round;stroke-miterlimit:1.5;">
    <g transform="matrix(1,0,0,1,-400,-476)">
        <g transform="matrix(0.794848,0.0147152,-0.0147152,0.794848,123.983,69.1282)">
            <g id="ドア扉1" transform="matrix(2.04858,-0.0241105,0.0241105,2.04858,-474.017,88.2805)">
                <g id="ドア扉右枠" transform="matrix(4.89257,-4.51362e-17,2.21052e-17,1.21304,-1279.66,115.714)">
                    <path d="M364.421,121.628C364.421,119.79 364.051,118.297 363.595,118.297L361.943,118.297C361.487,118.297 361.117,119.79 361.117,121.628L361.117,170.509C361.117,172.348 361.487,173.84 361.943,173.84L363.595,173.84C364.051,173.84 364.421,172.348 364.421,170.509L364.421,121.628Z" style="fill:white;stroke:black;stroke-width:0.78px;"/>
                </g>
                <g id="ドア扉左枠" transform="matrix(5.29574,-2.67431e-17,3.29856e-18,1.13034,-1503.35,126.862)">
                    <path d="M364.421,122.167C364.421,120.031 364.051,118.297 363.595,118.297L361.943,118.297C361.487,118.297 361.117,120.031 361.117,122.167L361.117,169.971C361.117,172.106 361.487,173.84 361.943,173.84L363.595,173.84C364.051,173.84 364.421,172.106 364.421,169.971L364.421,122.167Z" style="fill:white;stroke:black;stroke-width:0.72px;"/>
                </g>
                <g id="ドア扉下枠" transform="matrix(1.19346,0,3.85186e-34,1,32.5162,181.348)">
                    <path d="M397.502,147.699C398.421,145.131 398.934,137.845 391.433,139.027C383.528,139.193 384.452,134.069 353.942,134.309C334.177,132.619 329.625,139.047 319.88,138.595C316.453,139.644 312.271,138.817 312.931,146.801C313.561,152.084 318.215,153.001 319.88,153.001L392.174,153.001C393.839,153.001 397.173,151.066 397.502,147.699Z" style="fill:white;stroke:black;stroke-width:3.35px;"/>
                </g>
                <g id="ドア扉屋根" transform="matrix(1.01914,0.0119946,-0.010569,0.898008,132.917,-235.723)">
                    <path d="M275.567,538.812C277.645,527.056 282.026,494.604 320.056,492.377C357.964,490.158 369.538,525.482 370.616,536.439C372.718,551.368 354.442,556.067 351.842,544.437C347.43,522.161 342.745,514.667 323.9,514.8C305.998,514.927 296.608,528.331 294.408,542.214C294.641,555.975 272.556,556.937 275.567,538.812Z" style="fill:white;stroke:black;stroke-width:4.15px;"/>
                </g>
            </g>
        </g>
    </g>
</svg>
