<?xml version="1.0" encoding="UTF-8" standalone="no"?><!DOCTYPE svg PUBLIC "-//W3C//DTD SVG 1.1//EN" "http://www.w3.org/Graphics/SVG/1.1/DTD/svg11.dtd"><svg width="100%" height="100%" viewBox="0 0 509 84" version="1.1" xmlns="http://www.w3.org/2000/svg" xmlns:xlink="http://www.w3.org/1999/xlink" xml:space="preserve" xmlns:serif="http://www.serif.com/" style="fill-rule:evenodd;clip-rule:evenodd;stroke-linejoin:round;stroke-miterlimit:2;"><g id="ドア扉チョコチップ3"><path d="M460.492,25.369c0.072,-12.568 10.334,-22.714 22.902,-22.643c12.568,0.072 22.714,10.334 22.643,22.902c-0.072,12.568 -10.333,22.714 -22.902,22.643c-12.568,-0.072 -22.714,-10.333 -22.643,-22.902Z"/><path d="M350.128,49.34c0.072,-12.568 10.333,-22.714 22.902,-22.643c12.568,0.072 22.714,10.334 22.643,22.902c-0.072,12.568 -10.334,22.714 -22.902,22.643c-12.568,-0.071 -22.714,-10.333 -22.643,-22.902Z"/><path d="M269.04,50.991c0.071,-12.568 10.333,-22.714 22.901,-22.643c12.569,0.072 22.714,10.334 22.643,22.902c-0.071,12.568 -10.333,22.714 -22.901,22.643c-12.569,-0.072 -22.715,-10.333 -22.643,-22.902Z"/><path d="M177.179,49.717c0.072,-12.568 10.333,-22.714 22.902,-22.642c12.568,0.071 22.714,10.333 22.643,22.901c-0.072,12.568 -10.334,22.714 -22.902,22.643c-12.568,-0.071 -22.714,-10.333 -22.643,-22.902Z"/><path d="M83.302,54.971c0.071,-12.569 10.333,-22.715 22.901,-22.643c12.569,0.071 22.715,10.333 22.643,22.901c-0.071,12.569 -10.333,22.715 -22.901,22.643c-12.569,-0.071 -22.715,-10.333 -22.643,-22.901Z"/><path d="M1.565,57.64c0.071,-12.568 10.333,-22.714 22.901,-22.643c12.569,0.072 22.715,10.334 22.643,22.902c-0.071,12.568 -10.333,22.714 -22.901,22.643c-12.569,-0.071 -22.715,-10.333 -22.643,-22.902Z"/></g></svg>