<?xml version="1.0" encoding="UTF-8" standalone="no"?>
<!DOCTYPE svg PUBLIC "-//W3C//DTD SVG 1.1//EN" "http://www.w3.org/Graphics/SVG/1.1/DTD/svg11.dtd">
<svg width="100%" height="100%" viewBox="0 0 30 466" version="1.1" xmlns="http://www.w3.org/2000/svg" xmlns:xlink="http://www.w3.org/1999/xlink" xml:space="preserve" xmlns:serif="http://www.serif.com/" style="fill-rule:evenodd;clip-rule:evenodd;stroke-linejoin:round;stroke-miterlimit:2;">
    <g transform="matrix(1,0,0,1,-620,-268)">
        <g transform="matrix(0.999829,0.0185101,-0.0185101,0.999829,64.2194,-71.5911)">
            <g id="はしご手すり2" transform="matrix(0.329224,-0.0163503,0.035069,0.706139,545.912,287.786)">
                <path d="M45.682,67.902C49.391,91.178 50.295,120.383 52.817,168.427C57.294,196.736 33.686,250.749 36.313,319.725C41.79,355.87 25.25,363.812 31.068,434.285C44.381,500.243 24.134,554.318 35.048,630.955C43.595,690.974 22.07,713.136 45.59,718.094L82.008,717.564C98.667,713.469 77.704,604.344 80.726,479.453C65.777,442.689 81.312,353.908 82.491,317.421C82.841,267.316 101.641,212.508 95.637,159.165L82.034,61.642C82.034,61.642 38.874,62.747 45.682,67.902Z"/>
            </g>
        </g>
    </g>
</svg>
