<?xml version="1.0" encoding="UTF-8" standalone="no"?><!DOCTYPE svg PUBLIC "-//W3C//DTD SVG 1.1//EN" "http://www.w3.org/Graphics/SVG/1.1/DTD/svg11.dtd"><svg width="100%" height="100%" viewBox="0 0 284 1955" version="1.1" xmlns="http://www.w3.org/2000/svg" xmlns:xlink="http://www.w3.org/1999/xlink" xml:space="preserve" xmlns:serif="http://www.serif.com/" style="fill-rule:evenodd;clip-rule:evenodd;stroke-linejoin:round;stroke-miterlimit:2;"><g id="はしご手すり"><path id="はしご手すり2" d="M5.229,36.526c7.225,68.377 11.142,154.33 19.006,295.687c8.74,83.161 -18.718,243.208 -8.791,446.194c10.83,106.193 -11.149,130.284 3.296,337.539c24.321,193.639 1.481,353.727 23.486,578.914c17.233,176.358 -10.285,242.532 22.457,256.126l49.945,-3.118c22.495,-12.767 -16.283,-333.184 -23.579,-701.05c-23.89,-107.611 -10.699,-369.685 -12.425,-477.168c-4.11,-147.547 16.676,-309.731 3.546,-466.539l-27.61,-286.569c0,0 -59.15,5.096 -49.331,19.984Z"/><path id="はしご手すり1" d="M146.608,22.365c7.329,67.01 11.73,151.273 20.294,289.842c-33.895,107.973 -15.683,329.89 -4.282,437.574c-14.923,100.839 -32.707,163.931 6.027,330.966c24.35,189.749 -17.867,378.555 26.946,567.544c18.675,78.758 -7.456,237.876 23.162,251.032l37.656,7.554c71.095,4.488 -31.325,-237.663 -19.263,-698.185c-25.376,-189.486 -55.008,-341.941 -15.752,-467.834c-38.497,-146.932 -20.283,-326.966 -0.783,-457.496l-28.228,-280.856c0,0 -55.053,5.313 -45.777,19.859Z"/></g></svg>