<?xml version="1.0" encoding="UTF-8" standalone="no"?>
<!DOCTYPE svg PUBLIC "-//W3C//DTD SVG 1.1//EN" "http://www.w3.org/Graphics/SVG/1.1/DTD/svg11.dtd">
<svg width="100%" height="100%" viewBox="0 0 34 458" version="1.1" xmlns="http://www.w3.org/2000/svg" xmlns:xlink="http://www.w3.org/1999/xlink" xml:space="preserve" xmlns:serif="http://www.serif.com/" style="fill-rule:evenodd;clip-rule:evenodd;stroke-linejoin:round;stroke-miterlimit:2;">
    <g transform="matrix(1,0,0,1,-654,-265)">
        <g transform="matrix(0.999829,0.0185101,-0.0185101,0.999829,64.2194,-71.5911)">
            <g id="はしご手すり1" transform="matrix(0.306539,-0.0174895,0.0394939,0.692211,580.51,284.758)">
                <path d="M45.682,67.902C49.391,91.178 50.295,120.383 52.817,168.427C23.095,205.323 30.647,282.326 36.313,319.725C21.624,354.406 5.837,375.992 31.068,434.285C44.381,500.243 5.729,564.988 35.048,630.955C47.266,658.446 22.07,713.136 45.59,718.094L74.775,721.208C130.172,723.708 57.455,638.585 80.726,479.453C66.603,413.572 48.042,360.444 82.491,317.421C56.84,266.086 76.481,204.055 95.637,159.165L82.034,61.642C82.034,61.642 38.874,62.747 45.682,67.902Z"/>
            </g>
        </g>
    </g>
</svg>
