<?xml version="1.0" encoding="UTF-8" standalone="no"?>
<!DOCTYPE svg PUBLIC "-//W3C//DTD SVG 1.1//EN" "http://www.w3.org/Graphics/SVG/1.1/DTD/svg11.dtd">
<svg width="100%" height="100%" viewBox="0 0 76 120" version="1.1" xmlns="http://www.w3.org/2000/svg" xmlns:xlink="http://www.w3.org/1999/xlink" xml:space="preserve" xmlns:serif="http://www.serif.com/" style="fill-rule:evenodd;clip-rule:evenodd;stroke-linecap:round;stroke-linejoin:round;stroke-miterlimit:1.5;">
    <g transform="matrix(1,0,0,1,-117,-675)">
        <g transform="matrix(0.999829,0.0185101,-0.0185101,0.999829,33.6237,-72.364)">
            <g id="はてな" transform="matrix(0.653948,0.0915718,-0.0915718,0.653948,115.169,298.872)">
                <g transform="matrix(1,0,0,1,93.1361,374.095)">
                    <circle cx="51.923" cy="454.788" r="14.615" style="stroke:black;stroke-width:3.03px;"/>
                </g>
                <g transform="matrix(0.447396,-0.0763679,0.0744179,0.435971,60.3678,655.884)">
                    <path d="M23.777,100.481C34.038,81.874 59.842,49.873 115.148,48.263C174.854,46.624 211.462,73.644 228.578,89.942C314.051,189.813 172.34,249.038 134.855,263.383C82.331,283.483 156.778,326.878 133.723,357.256C129.299,363.343 76.213,380.176 71.221,328.892C68.512,301.058 82.094,252.753 120.667,234.568C152.163,219.719 190.691,213.959 203.62,159.619C207.755,124.645 179.487,91.076 122.569,90.994C49.997,88.987 39.995,158.29 81.579,170.751C107.428,176.785 98.46,148.666 107.154,142.139C121.403,127.217 151.288,143.422 145.512,167.165C141.29,203.187 65.541,214.444 36.242,190.51C0.743,166.41 12.623,120.646 23.777,100.481Z" style="stroke:black;stroke-width:6.76px;"/>
                </g>
            </g>
        </g>
    </g>
</svg>
