<?xml version="1.0" encoding="UTF-8" standalone="no"?>
<!DOCTYPE svg PUBLIC "-//W3C//DTD SVG 1.1//EN" "http://www.w3.org/Graphics/SVG/1.1/DTD/svg11.dtd">
<svg width="100%" height="100%" viewBox="0 0 83 21" version="1.1" xmlns="http://www.w3.org/2000/svg" xmlns:xlink="http://www.w3.org/1999/xlink" xml:space="preserve" xmlns:serif="http://www.serif.com/" style="fill-rule:evenodd;clip-rule:evenodd;stroke-linejoin:round;stroke-miterlimit:2;">
    <g transform="matrix(1,0,0,1,-608,-460)">
        <g transform="matrix(0.999829,0.0185101,-0.0185101,0.999829,64.2194,-71.5911)">
            <g id="はしご階段4" transform="matrix(-0.503265,-0.00658727,0.00396995,-0.33308,645.684,619.916)">
                <path d="M184.11,247.467L168.18,234.672L127.739,232.04C127.739,232.04 68.295,236.819 37.79,239.271C33.186,239.642 28.88,242.832 25.864,248.105C22.848,253.379 21.384,260.28 21.811,267.215C21.811,267.216 21.811,267.216 21.811,267.217C22.458,277.748 27.976,286.082 34.946,287.054C50.633,289.322 77.808,292.971 92.583,293.257C115.178,293.694 158.487,287.863 158.487,287.863L183.328,272.752L184.11,247.467Z"/>
            </g>
        </g>
    </g>
</svg>
