<?xml version="1.0" encoding="UTF-8" standalone="no"?>
<!DOCTYPE svg PUBLIC "-//W3C//DTD SVG 1.1//EN" "http://www.w3.org/Graphics/SVG/1.1/DTD/svg11.dtd">
<svg width="100%" height="100%" viewBox="0 0 79 15" version="1.1" xmlns="http://www.w3.org/2000/svg" xmlns:xlink="http://www.w3.org/1999/xlink" xml:space="preserve" xmlns:serif="http://www.serif.com/" style="fill-rule:evenodd;clip-rule:evenodd;stroke-linejoin:round;stroke-miterlimit:2;">
    <g transform="matrix(1,0,0,1,-605,-378)">
        <g transform="matrix(0.999829,0.0185101,-0.0185101,0.999829,64.2194,-71.5911)">
            <g id="はしご階段5" transform="matrix(0.44843,0,2.60209e-18,0.22887,543.563,384.962)">
                <path d="M186.186,233.107C186.186,233.107 62.671,238.747 28.723,240.297C23.756,240.524 19.561,247.59 18.7,257.178C18.7,257.183 18.7,257.187 18.699,257.192C17.711,268.205 19.368,279.495 23.191,287.797C27.014,296.098 32.576,300.484 38.269,299.686C78.29,294.717 157.116,284.19 178.185,275.669C191.567,270.256 186.186,233.107 186.186,233.107Z"/>
            </g>
        </g>
    </g>
</svg>
