<?xml version="1.0" encoding="UTF-8" standalone="no"?>
<!DOCTYPE svg PUBLIC "-//W3C//DTD SVG 1.1//EN" "http://www.w3.org/Graphics/SVG/1.1/DTD/svg11.dtd">
<svg width="100%" height="100%" viewBox="0 0 82 17" version="1.1" xmlns="http://www.w3.org/2000/svg" xmlns:xlink="http://www.w3.org/1999/xlink" xml:space="preserve" xmlns:serif="http://www.serif.com/" style="fill-rule:evenodd;clip-rule:evenodd;stroke-linejoin:round;stroke-miterlimit:2;">
    <g transform="matrix(1,0,0,1,-601,-316)">
        <g transform="matrix(0.999829,0.0185101,-0.0185101,0.999829,64.2194,-71.5911)">
            <g id="はしご階段6" transform="matrix(0.44843,0,3.46945e-18,0.22887,537.711,324.722)">
                <path d="M187.589,228.838C163.641,222.077 58.449,235.513 28.289,239.574C23.535,240.187 19.61,247.086 18.785,256.281C18.781,256.283 18.78,256.286 18.78,256.29C17.849,266.675 19.524,277.305 23.281,284.854C27.039,292.403 32.42,295.951 37.742,294.388C48.443,291.063 61.422,287.804 73.405,286.696C101.677,300.248 110.136,280.905 124.546,279.865C152.728,276.648 188.388,288.175 188.388,288.175C188.388,288.175 206.626,234.212 187.589,228.838Z"/>
            </g>
        </g>
    </g>
</svg>
