<?xml version="1.0" encoding="UTF-8" standalone="no"?>
<!DOCTYPE svg PUBLIC "-//W3C//DTD SVG 1.1//EN" "http://www.w3.org/Graphics/SVG/1.1/DTD/svg11.dtd">
<svg width="100%" height="100%" viewBox="0 0 79 21" version="1.1" xmlns="http://www.w3.org/2000/svg" xmlns:xlink="http://www.w3.org/1999/xlink" xml:space="preserve" xmlns:serif="http://www.serif.com/" style="fill-rule:evenodd;clip-rule:evenodd;stroke-linejoin:round;stroke-miterlimit:2;">
    <g transform="matrix(1,0,0,1,-601,-257)">
        <g transform="matrix(0.999829,0.0185101,-0.0185101,0.999829,64.2194,-71.5911)">
            <g id="はしご階段7" transform="matrix(0.44843,0,1.28725e-18,0.22887,536.601,264.732)">
                <path d="M186.186,233.107C186.186,233.107 62.662,238.747 28.72,240.297C23.754,240.524 19.561,247.587 18.701,257.171C18.701,257.172 18.701,257.173 18.701,257.174C17.631,269.094 19.061,281.355 22.665,291.183C26.27,301.011 31.745,307.575 37.852,309.39C58.056,315.395 84.126,323.142 84.126,323.142L188.455,306.271L186.186,233.107Z"/>
            </g>
        </g>
    </g>
</svg>
