<?xml version="1.0" encoding="UTF-8" standalone="no"?><!DOCTYPE svg PUBLIC "-//W3C//DTD SVG 1.1//EN" "http://www.w3.org/Graphics/SVG/1.1/DTD/svg11.dtd"><svg width="100%" height="100%" viewBox="0 0 134 200" version="1.1" xmlns="http://www.w3.org/2000/svg" xmlns:xlink="http://www.w3.org/1999/xlink" xml:space="preserve" xmlns:serif="http://www.serif.com/" style="fill-rule:evenodd;clip-rule:evenodd;stroke-linejoin:round;stroke-miterlimit:2;"><g id="道-6" serif:id="道♪6"><path d="M29.513,135.035c16.354,-4.274 36.653,6.53 36.64,28.938c0.144,9.315 0.003,28.17 -29.346,31.945c-16.752,2.254 -31.562,-7.96 -33.227,-24.054c-2.253,-16.753 12.228,-33.248 25.933,-36.829Z"/><path d="M34.85,171.267c1.777,-0.464 3.942,0.666 3.778,3.114c0.101,1.307 -1.223,3.199 -3.059,3.44c-1.82,0.244 -3.355,-0.804 -3.536,-2.553c-0.244,-1.82 1.329,-3.612 2.817,-4.001Z" style="fill:#fff;"/><path d="M107.29,135.24c11.893,-13.423 7.648,-40.466 -11.188,-56.428c-6.351,-7.698 -28.17,-19.636 -28.17,-19.636c0,0 10.602,66.484 13.921,93.4c1.283,13.016 -0.538,18.052 -1.418,21.082c-3.908,6.735 -15.421,6.257 -13.058,4.089c1.392,-3.736 3.24,0.866 7.661,-6.068c6.393,-7.038 -13.128,-112.707 -13.128,-112.707c0,0 -1.458,0.492 -1.571,-0.207c-0.808,-1.209 -6.116,-48.248 -6.116,-48.248c-0.052,-0.801 -0.293,-3.552 1.223,-4.921c1.597,-1.41 6.965,-3.128 8.344,-0.882c1.303,2.193 0.99,14.956 1.417,15.21c1.624,2.735 10.578,7.897 10.578,7.897c0,0 4.144,2.713 12.854,7.657c33.98,13.646 41.131,38.075 43.616,63.16c0.451,12.499 -0.54,25.173 -8.862,34.083c-5.935,6.667 -21.23,14.265 -27.475,11.141c0.436,-1.874 5.126,-0.731 11.372,-8.622Z"/></g></svg>