<?xml version="1.0" encoding="UTF-8" standalone="no"?><!DOCTYPE svg PUBLIC "-//W3C//DTD SVG 1.1//EN" "http://www.w3.org/Graphics/SVG/1.1/DTD/svg11.dtd"><svg width="100%" height="100%" viewBox="0 0 88 121" version="1.1" xmlns="http://www.w3.org/2000/svg" xmlns:xlink="http://www.w3.org/1999/xlink" xml:space="preserve" xmlns:serif="http://www.serif.com/" style="fill-rule:evenodd;clip-rule:evenodd;stroke-linejoin:round;stroke-miterlimit:2;"><g id="道-5" serif:id="道♩5"><path d="M25.053,79.682c11.153,-0.934 23.171,8.563 20.625,23.386c-0.961,6.179 -3.19,18.637 -22.764,17.737c-11.184,-0.448 -19.688,-8.92 -18.951,-19.76c0.427,-11.343 11.743,-20.58 21.09,-21.363Z"/><path d="M24.43,104.271c1.212,-0.102 2.496,0.896 2.112,2.497c-0.082,0.876 -1.16,1.975 -2.386,1.921c-1.215,-0.049 -2.097,-0.92 -2.017,-2.098c0.047,-1.232 1.276,-2.235 2.291,-2.32Z" style="fill:#fff;"/><path d="M81.31,2.152c0.603,-0.858 2.726,-0.775 3.453,0.807c1.402,3.811 -10.063,38.961 -18.258,97.369c-0.487,5.89 -2.816,13.787 -5.165,15.229c-2.783,1.632 -14.017,-1.25 -14.851,-2.648c-1.383,-2.196 11.36,3.328 12.425,-3.325c0.239,-1.488 19.017,-103.155 22.396,-107.432Z"/></g></svg>