<?xml version="1.0" encoding="UTF-8" standalone="no"?><!DOCTYPE svg PUBLIC "-//W3C//DTD SVG 1.1//EN" "http://www.w3.org/Graphics/SVG/1.1/DTD/svg11.dtd"><svg width="100%" height="100%" viewBox="0 0 192 221" version="1.1" xmlns="http://www.w3.org/2000/svg" xmlns:xlink="http://www.w3.org/1999/xlink" xml:space="preserve" xmlns:serif="http://www.serif.com/" style="fill-rule:evenodd;clip-rule:evenodd;stroke-linejoin:round;stroke-miterlimit:2;"><g id="道-4" serif:id="道♫4"><path d="M145.465,163.832c14.652,3.635 25.957,20.781 16.374,38.349c-3.867,7.368 -12.032,22.095 -36.663,12.518c-14.102,-5.39 -21.354,-19.727 -15.784,-33.061c5.39,-14.101 23.794,-20.852 36.073,-17.806Z"/><path d="M132.97,193.541c1.638,-0.085 3.328,1.293 2.743,3.405c-0.147,1.162 -1.646,2.578 -3.296,2.457c-1.636,-0.114 -2.789,-1.308 -2.632,-2.87c0.114,-1.636 1.813,-2.92 3.185,-2.992Z" style="fill:#fff;"/><path d="M42.61,145.318c13.719,5.557 22.319,23.766 10.585,39.493c-4.774,6.616 -14.739,19.781 -37.323,7.075c-12.942,-7.184 -17.996,-22.106 -10.744,-34.278c7.184,-12.942 25.985,-16.947 37.482,-12.29Z"/><path d="M19.524,171.398c1.49,0.603 2.42,2.53 1.023,4.163c-0.613,0.97 -2.532,1.606 -3.948,0.814c-1.406,-0.78 -1.935,-2.32 -1.147,-3.642c0.781,-1.406 2.823,-1.841 4.072,-1.335Z" style="fill:#fff;"/><path d="M84.795,40.511c0.44,-3.804 0.681,-5.964 0.681,-5.964c0,0 -1.816,-0.289 -1.725,-1.079c0.278,-1.249 2.866,-26.387 2.866,-26.387c0.188,-0.881 0.767,-3.926 2.821,-4.942c2.155,-1.037 8.477,-1.257 9.281,1.589c0.707,2.644 76.084,15.728 83.065,17.231c0.125,-0.272 0.298,-0.485 0.529,-0.621c2.074,-1.188 8.365,-1.86 9.371,0.921c-0.774,7.949 -1.453,13.712 -1.542,17.074c-0.107,6.012 -9.662,119.211 -12.114,149.549c-1.539,14.598 -4.682,19.721 -6.336,22.852c-5.822,6.518 -18.369,3.383 -15.28,1.536c2.377,-3.792 3.365,1.686 9.796,-4.934c8.197,-5.978 11.158,-108.058 11.459,-118.789c-12.264,-3.649 -82.427,-17.859 -82.427,-17.859l-9.607,-2.317c-3.838,33.245 -9.558,81.634 -12.465,100.575c-2.58,14.45 -6.082,19.335 -7.956,22.34c-6.274,6.084 -18.564,2.058 -15.351,0.438c2.643,-3.612 3.236,1.922 10.124,-4.221c6.305,-3.939 16.198,-76.633 21.618,-120.36c-1.073,-0.417 -2.047,-0.896 -2.022,-1.256c-0.61,-1.542 2.071,-19.726 2.071,-19.726c-0.041,-4.591 -0.348,-5.323 2.061,-5.399c0.304,-0.15 0.67,-0.228 1.082,-0.251Zm95.49,11.852c-9.977,-2.72 -90.787,-17.875 -90.787,-17.875c0,0 -0.273,2.44 -0.754,6.685c2.02,0.559 4.118,1.272 5.53,1.32c2.66,0.593 4.752,-0.305 14.754,1.453c8.088,1.548 39.973,10.641 48.052,10.814c9.548,-0.255 21.145,3.458 21.851,3.671c0.278,0.083 0.536,0.189 0.777,0.318c0.191,-2.147 0.385,-4.29 0.577,-6.386Z"/></g></svg>