<?xml version="1.0" encoding="UTF-8" standalone="no"?>
<!DOCTYPE svg PUBLIC "-//W3C//DTD SVG 1.1//EN" "http://www.w3.org/Graphics/SVG/1.1/DTD/svg11.dtd">
<svg width="100%" height="100%" viewBox="0 0 52 55" version="1.1" xmlns="http://www.w3.org/2000/svg" xmlns:xlink="http://www.w3.org/1999/xlink" xml:space="preserve" xmlns:serif="http://www.serif.com/" style="fill-rule:evenodd;clip-rule:evenodd;stroke-linejoin:round;stroke-miterlimit:2;">
    <g transform="matrix(1,0,0,1,-270,-746)">
        <g transform="matrix(0.999829,0.0185101,-0.0185101,0.999829,33.6237,-72.364)">
            <g id="道-3" serif:id="道♫3" transform="matrix(0.330819,-0.0569271,-0.0569271,-0.330819,250.078,891.289)">
                <g transform="matrix(0.677365,0.26988,-0.26988,0.677365,-22.1216,-404.416)">
                    <path d="M497.161,651.724C511.854,649.924 528.21,661.671 525.583,681.117C524.621,689.219 522.297,705.566 496.384,705.417C481.582,705.417 469.92,694.823 470.354,680.661C470.354,665.858 484.849,653.233 497.161,651.724Z"/>
                </g>
                <g transform="matrix(0.0789326,0.00662273,-0.00662273,0.0789326,94.5933,137.591)">
                    <path d="M497.161,651.724C511.854,649.924 527.939,661.276 523.995,680.661C523.398,691.211 510.79,704.903 495.856,704.852C481.053,704.852 469.92,694.823 470.354,680.661C470.354,665.858 484.849,653.233 497.161,651.724Z" style="fill:white;"/>
                </g>
                <g transform="matrix(0.620158,0.355756,-0.355756,0.620158,-11.0575,-424.098)">
                    <path d="M497.161,651.724C511.854,649.924 528.21,661.671 525.583,681.117C524.621,689.219 522.297,705.566 496.384,705.417C481.582,705.417 469.92,694.823 470.354,680.661C470.354,665.858 484.849,653.233 497.161,651.724Z"/>
                </g>
                <g transform="matrix(0.0673699,0.0386469,-0.0386469,0.0673699,40.3335,112.233)">
                    <path d="M497.161,651.724C511.854,649.924 527.939,661.276 523.995,680.661C523.398,691.211 510.79,704.903 495.856,704.852C481.053,704.852 469.92,694.823 470.354,680.661C470.354,665.858 484.849,653.233 497.161,651.724Z" style="fill:white;"/>
                </g>
                <g transform="matrix(5.37896,0.979033,-0.979033,5.37896,-1627.43,-4004.89)">
                    <path d="M444.11,679.041C444.085,678.541 444.069,678.257 444.069,678.257C444.069,678.257 443.829,678.259 443.823,678.155C443.832,677.988 443.623,674.69 443.623,674.69C443.628,674.572 443.637,674.167 443.88,673.991C444.136,673.811 444.946,673.646 445.112,673.996C445.26,674.322 455.264,674.381 456.197,674.424C456.207,674.386 456.225,674.355 456.252,674.332C456.494,674.134 457.29,673.912 457.48,674.249C457.552,675.29 457.589,676.048 457.65,676.484C457.766,677.262 458.979,692.068 459.319,696.034C459.435,697.95 459.141,698.678 458.995,699.118C458.385,700.084 456.699,699.951 457.058,699.646C457.282,699.105 457.528,699.791 458.214,698.798C459.142,697.85 457.319,684.62 457.126,683.23C455.466,683.024 446.109,682.707 446.109,682.707L444.82,682.616C445.043,686.986 445.351,693.351 445.385,695.857C445.365,697.776 445.019,698.482 444.842,698.91C444.164,699.83 442.492,699.576 442.871,699.298C443.134,698.775 443.33,699.476 444.086,698.535C444.814,697.89 444.52,688.301 444.274,682.544C444.127,682.514 443.991,682.473 443.986,682.426C443.874,682.24 443.827,679.837 443.827,679.837C443.723,679.246 443.667,679.158 443.976,679.096C444.012,679.071 444.058,679.053 444.11,679.041ZM456.682,678.506C455.336,678.371 444.587,678.162 444.587,678.162C444.587,678.162 444.604,678.483 444.634,679.041C444.907,679.069 445.192,679.116 445.376,679.092C445.731,679.111 445.982,678.949 447.31,678.96C448.386,678.985 452.695,679.469 453.741,679.317C454.967,679.078 456.543,679.306 456.638,679.318C456.676,679.323 456.712,679.331 456.746,679.342C456.724,679.061 456.702,678.781 456.682,678.506Z"/>
                </g>
            </g>
        </g>
    </g>
</svg>
