<?xml version="1.0" encoding="UTF-8" standalone="no"?>
<!DOCTYPE svg PUBLIC "-//W3C//DTD SVG 1.1//EN" "http://www.w3.org/Graphics/SVG/1.1/DTD/svg11.dtd">
<svg width="100%" height="100%" viewBox="0 0 37 37" version="1.1" xmlns="http://www.w3.org/2000/svg" xmlns:xlink="http://www.w3.org/1999/xlink" xml:space="preserve" xmlns:serif="http://www.serif.com/" style="fill-rule:evenodd;clip-rule:evenodd;stroke-linejoin:round;stroke-miterlimit:2;">
    <g transform="matrix(1,0,0,1,-527,-686)">
        <g transform="matrix(0.999829,0.0185101,-0.0185101,0.999829,33.6237,-72.364)">
            <g id="道--7" serif:id="道♪♪7" transform="matrix(0.196577,0.110844,0.110844,-0.196577,471.006,775.175)">
                <g transform="matrix(0.915744,0.0316124,-0.0316124,0.915744,-246.763,-435.573)">
                    <path d="M497.161,651.724C511.854,649.924 528.21,661.671 525.583,681.117C524.621,689.219 522.297,705.566 496.384,705.417C481.582,705.417 469.92,694.823 470.354,680.661C470.354,665.858 484.849,653.233 497.161,651.724Z"/>
                </g>
                <g transform="matrix(0.0994804,0.00343417,-0.00343417,0.0994804,140.042,139.796)">
                    <path d="M497.161,651.724C511.854,649.924 527.939,661.276 523.995,680.661C523.398,691.211 510.79,704.903 495.856,704.852C481.053,704.852 469.92,694.823 470.354,680.661C470.354,665.858 484.849,653.233 497.161,651.724Z" style="fill:white;"/>
                </g>
                <g transform="matrix(1.24887,0.150316,-0.150316,1.24887,31.399,-769.672)">
                    <path d="M263.009,734.826C271.001,726.641 269.132,709.279 257.623,698.527C253.814,693.426 240.281,685.146 240.281,685.146C240.281,685.146 244.983,727.834 246.266,745.086C246.682,753.419 245.366,756.572 244.712,758.475C242.014,762.646 234.693,761.986 236.266,760.678C237.268,758.34 238.304,761.329 241.334,757.048C245.625,752.761 236.45,684.83 236.45,684.83C236.45,684.83 235.506,685.098 235.455,684.649C234.978,683.854 233.049,653.719 233.049,653.719C233.04,653.207 232.972,651.447 233.98,650.621C235.041,649.772 238.514,648.843 239.323,650.317C240.086,651.754 239.492,659.876 239.757,660.052C240.707,661.845 246.253,665.41 246.253,665.41C246.253,665.41 248.809,667.267 254.206,670.685C275.436,680.43 279.237,696.216 280.047,712.275C279.948,720.254 278.925,728.298 273.347,733.719C269.36,737.783 259.38,742.152 255.498,739.969C255.833,738.788 258.786,739.661 263.009,734.826Z"/>
                </g>
                <g transform="matrix(0.916006,-0.0227805,0.0227805,0.916006,-338.921,-434.674)">
                    <path d="M497.161,651.724C511.854,649.924 528.21,661.671 525.583,681.117C524.621,689.219 522.297,705.566 496.384,705.417C481.582,705.417 469.92,694.823 470.354,680.661C470.354,665.858 484.849,653.233 497.161,651.724Z"/>
                </g>
                <g transform="matrix(0.0995089,-0.00247472,0.00247472,0.0995089,81.3435,116.729)">
                    <path d="M497.161,651.724C511.854,649.924 527.939,661.276 523.995,680.661C523.398,691.211 510.79,704.903 495.856,704.852C481.053,704.852 469.92,694.823 470.354,680.661C470.354,665.858 484.849,653.233 497.161,651.724Z" style="fill:white;"/>
                </g>
                <g transform="matrix(1.25559,0.0759477,-0.0759477,1.25559,-81.0726,-784.689)">
                    <path d="M263.009,734.826C271.001,726.641 269.132,709.279 257.623,698.527C253.814,693.426 240.281,685.146 240.281,685.146C240.281,685.146 244.983,727.834 246.266,745.086C246.682,753.419 245.366,756.572 244.712,758.475C242.014,762.646 234.693,761.986 236.266,760.678C237.268,758.34 238.304,761.329 241.334,757.048C245.625,752.761 236.45,684.83 236.45,684.83C236.45,684.83 235.506,685.098 235.455,684.649C234.978,683.854 233.049,653.719 233.049,653.719C233.04,653.207 232.972,651.447 233.98,650.621C235.041,649.772 238.514,648.843 239.323,650.317C240.086,651.754 239.492,659.876 239.757,660.052C240.707,661.845 246.253,665.41 246.253,665.41C246.253,665.41 248.809,667.267 254.206,670.685C275.436,680.43 279.237,696.216 280.047,712.275C279.948,720.254 278.925,728.298 273.347,733.719C269.36,737.783 259.38,742.152 255.498,739.969C255.833,738.788 258.786,739.661 263.009,734.826Z"/>
                </g>
            </g>
        </g>
    </g>
</svg>
