<?xml version="1.0" encoding="UTF-8" standalone="no"?>
<!DOCTYPE svg PUBLIC "-//W3C//DTD SVG 1.1//EN" "http://www.w3.org/Graphics/SVG/1.1/DTD/svg11.dtd">
<svg width="100%" height="100%" viewBox="0 0 21 29" version="1.1" xmlns="http://www.w3.org/2000/svg" xmlns:xlink="http://www.w3.org/1999/xlink" xml:space="preserve" xmlns:serif="http://www.serif.com/" style="fill-rule:evenodd;clip-rule:evenodd;stroke-linejoin:round;stroke-miterlimit:2;">
    <g transform="matrix(1,0,0,1,-425,-697)">
        <g transform="matrix(0.999829,0.0185101,-0.0185101,0.999829,33.6237,-72.364)">
            <g id="道-5" serif:id="道♩5" transform="matrix(0.19764,-0.0125369,0.0127173,0.200483,385.152,750.744)">
                <g transform="matrix(0.913081,0.0766108,-0.0766108,0.913081,-278.814,-474.437)">
                    <path d="M497.161,651.724C511.854,649.924 528.21,661.671 525.583,681.117C524.621,689.219 522.297,705.566 496.384,705.417C481.582,705.417 469.92,694.823 470.354,680.661C470.354,665.858 484.849,653.233 497.161,651.724Z"/>
                </g>
                <g transform="matrix(0.0991911,0.00832249,-0.00832249,0.0991911,79.2263,119.258)">
                    <path d="M497.161,651.724C511.854,649.924 527.939,661.276 523.995,680.661C523.398,691.211 510.79,704.903 495.856,704.852C481.053,704.852 469.92,694.823 470.354,680.661C470.354,665.858 484.849,653.233 497.161,651.724Z" style="fill:white;"/>
                </g>
                <g transform="matrix(1.62969,0.681674,-0.485402,1.16046,133.717,-844.15)">
                    <path d="M232.843,650.29C233.032,649.325 234.419,648.693 235.254,649.863C237.042,652.797 237.826,687.958 246.12,742.78C247.175,748.195 247.51,756.013 246.332,758.079C244.919,760.459 237.016,761.62 236.154,760.65C234.753,759.15 244.242,759.846 243.383,753.557C243.19,752.151 231.661,655.228 232.843,650.29Z"/>
                </g>
            </g>
        </g>
    </g>
</svg>
