<?xml version="1.0" encoding="UTF-8" standalone="no"?>
<!DOCTYPE svg PUBLIC "-//W3C//DTD SVG 1.1//EN" "http://www.w3.org/Graphics/SVG/1.1/DTD/svg11.dtd">
<svg width="100%" height="100%" viewBox="0 0 92 269" version="1.1" xmlns="http://www.w3.org/2000/svg" xmlns:xlink="http://www.w3.org/1999/xlink" xml:space="preserve" xmlns:serif="http://www.serif.com/" style="fill-rule:evenodd;clip-rule:evenodd;stroke-linecap:round;stroke-linejoin:round;stroke-miterlimit:1.5;">
    <g transform="matrix(1,0,0,1,-708,-442)">
        <g transform="matrix(0.999829,0.0185101,-0.0185101,0.999829,33.6237,-72.364)">
            <g id="柱2" transform="matrix(-1,0,0,-1,962.988,1269.36)">
                <g transform="matrix(2.23946,0,0,0.598681,87.2334,620.082)">
                    <path d="M78.859,178.462C78.859,169.826 75.056,163.844 72.747,163.844L57.1,163.844C54.792,163.844 51.686,174.969 50.49,182.689C46.061,209.55 53.391,219.141 57.1,226.431C59.833,228.791 67.921,231.534 71.226,228.926C74.531,226.319 80.071,213.474 80.071,204.838L78.859,178.462Z" style="fill:white;stroke:black;stroke-width:12.2px;"/>
                </g>
                <g transform="matrix(2.10678,0,0,0.513296,97.8914,600.305)">
                    <path d="M77.702,222.156C84.07,190.879 77.974,163.168 73.118,163.844L60.145,164.67C47.867,157.125 49.291,196.087 49.291,196.087C49.12,227.75 56.053,225.594 56.73,226.431L73.118,226.431C74.9,226.431 77.285,228.939 77.702,222.156Z" style="fill:white;stroke:black;stroke-width:13.04px;"/>
                </g>
                <g transform="matrix(2.2649,0,0,0.518962,84.1856,568.146)">
                    <path d="M76.93,179.491C76.93,170.855 75.324,163.844 73.345,163.844L56.503,163.844C54.524,163.844 52.917,170.855 52.917,179.491L52.422,197.47C52.422,206.106 54.524,226.431 56.503,226.431L68.375,226.373C72.173,224.856 76.318,217.452 76.93,210.784L76.93,179.491Z" style="fill:white;stroke:black;stroke-width:12.17px;"/>
                </g>
                <g transform="matrix(2.20383,0,0,0.551953,89.4594,525.307)">
                    <path d="M76.93,179.491C76.93,170.855 75.174,163.844 73.012,163.844L56.836,163.844C54.673,163.844 52.917,170.855 52.917,179.491L52.917,210.784C52.917,219.42 54.673,226.431 56.836,226.431L73.012,226.431C75.174,226.431 76.93,219.42 76.93,210.784L76.93,179.491Z" style="fill:white;stroke:black;stroke-width:12.45px;"/>
                </g>
                <g transform="matrix(2.19596,0,0,0.552785,88.5523,492.333)">
                    <path d="M78.09,196.815C78.09,188.18 75.165,163.844 72.992,163.844L59.877,168.534C55.424,174.155 53.41,184.936 53.475,192.221L54.303,214.989C54.303,223.625 55.853,234.081 58.027,234.081L72.992,226.431C75.165,226.431 76.93,219.42 76.93,210.784L78.09,196.815Z" style="fill:white;stroke:black;stroke-width:12.49px;"/>
                </g>
                <g transform="matrix(1.95088,0,0,0.557275,104.031,458.558)">
                    <path d="M81.236,178.109C81.236,169.473 74.928,163.844 72.461,163.844L57.387,163.844C54.92,163.844 49.748,171.912 49.748,180.548L51.511,219.16C51.511,227.796 61.576,226.858 64.043,226.858C64.043,226.858 70.051,227.876 72.461,226.431C75.566,225.078 80.449,225.655 80.449,217.019L81.236,178.109Z" style="fill:white;stroke:black;stroke-width:13.94px;"/>
                </g>
                <g transform="matrix(2.28895,0,0,0.681653,82.1065,398.266)">
                    <path d="M76.93,179.491C76.93,170.855 74.842,163.844 72.271,163.844L57.577,163.844C55.005,163.844 52.917,170.855 52.917,179.491L52.917,210.784C52.917,219.42 55.005,226.431 57.577,226.431L72.071,219.702C75.484,215.333 77.421,206.848 77.421,198.212L76.93,179.491Z" style="fill:white;stroke:black;stroke-width:11.84px;"/>
                </g>
            </g>
        </g>
    </g>
</svg>
