<?xml version="1.0" encoding="UTF-8" standalone="no"?>
<!DOCTYPE svg PUBLIC "-//W3C//DTD SVG 1.1//EN" "http://www.w3.org/Graphics/SVG/1.1/DTD/svg11.dtd">
<svg width="100%" height="100%" viewBox="0 0 403 102" version="1.1" xmlns="http://www.w3.org/2000/svg" xmlns:xlink="http://www.w3.org/1999/xlink" xml:space="preserve" xmlns:serif="http://www.serif.com/" style="fill-rule:evenodd;clip-rule:evenodd;stroke-linecap:round;stroke-linejoin:round;stroke-miterlimit:1.5;">
    <g transform="matrix(1,0,0,1,-179,-685)">
        <g transform="matrix(0.999829,0.0185101,-0.0185101,0.999829,33.6237,-72.364)">
            <g id="é“5" transform="matrix(1,0,0,1,9.87095,102.901)">
                <path d="M152.333,740.916C202.336,766.049 233.312,740.615 263.793,729.356C301.804,715.316 303.311,724.534 366.972,737.069C428.799,735.563 403.935,707.983 475.327,716.225C501.71,718.385 489.319,688.954 521.769,695.082C537.547,698.062 552.536,688.999 551.819,682.871C552.343,664.699 528.665,667.344 506.675,674.211C461.497,665.388 502.686,651.392 504.411,646.352" style="fill:none;stroke:black;stroke-width:0.9px;"/>
            </g>
        </g>
    </g>
</svg>
