<?xml version="1.0" encoding="UTF-8" standalone="no"?><!DOCTYPE svg PUBLIC "-//W3C//DTD SVG 1.1//EN" "http://www.w3.org/Graphics/SVG/1.1/DTD/svg11.dtd"><svg width="100%" height="100%" viewBox="0 0 2355 1330" version="1.1" xmlns="http://www.w3.org/2000/svg" xmlns:xlink="http://www.w3.org/1999/xlink" xml:space="preserve" xmlns:serif="http://www.serif.com/" style="fill-rule:evenodd;clip-rule:evenodd;stroke-linejoin:round;stroke-miterlimit:2;"><g id="ナッツ的な"><path d="M158.038,1016.78l-32.965,-11.768l-24.764,55.731l40.434,17.438l17.295,-61.401Z"/><path d="M64.155,991.719l-56.44,-6.304l-6.831,62.406l62.561,-2.034l0.71,-54.068Z"/><path d="M365.468,917.578l-51.115,-17.563l-27.8,53.436l52.991,21.181l25.924,-57.054Z"/><path d="M153.573,805.246l64.371,-24.718l11.383,53.164l-43.049,31.575l-24.401,-18.45l-8.304,-41.571Z"/><path d="M327.132,741.039l-28.069,10.145l13.521,46.547l36.039,-10.633l-21.491,-46.059Z"/><path d="M456.805,668.464l-51.236,-3.777l4.065,42.399l50.663,-0.809l-3.492,-37.813Z"/><path d="M606.457,822.266l47.129,5.61l-11.636,34.014l-54.899,-0.818l19.406,-38.806Z"/><path d="M678.235,750.597l-36.478,12.486l15.192,50.708l46.724,-13.393l-25.438,-49.801Z"/><path d="M737.708,597.272l-42.406,-16.501l-18.855,37.954l44.162,19.321l17.099,-40.774Z"/><path d="M639.178,381.056l41.673,8.69l-10.335,53.091l-48.551,-1.206l17.213,-60.575Z"/><path d="M772.682,309.332l50.508,-22.608l7.645,39.572l-55.587,31.823l-2.566,-48.787Z"/><path d="M931.691,23.76l28.053,5.86l-6.957,35.795l-32.683,-0.812l11.587,-40.843Z"/><path d="M2198.83,1268.16l65.372,-23.285l12.605,75.895l-46.902,5.857l-31.075,-58.467Z"/><path d="M2277.65,1128.16l54.609,-2.025l18.648,39.712l-46.869,10.264l-26.388,-47.951Z"/><path d="M2314.33,997.591l-55.101,-9.955l0.083,61.834l62.514,9.767l-7.496,-61.646Z"/><path d="M2045.26,1039.48l47.898,10.996l-11.892,67.233l-43.584,-17.991l7.578,-60.238Z"/><path d="M2119.25,854.844l47.898,10.996l-11.892,67.232l-46.894,-23.12l10.888,-55.108Z"/><path d="M1998.24,776.632l-48.675,7.49l20.112,64.056l45.259,-21.054l-16.696,-50.492Z"/><path d="M1447.13,703.093l33.173,-11.638l14.025,40.487l-35.055,19.63l-12.143,-48.479Z"/><path d="M1341.99,599.393l47.898,10.997l-17.903,47.29l-35.14,-3.427l5.145,-54.86Z"/><path d="M1425.18,446.601l41.229,-15.553l14.378,45.405l-44.061,24.828l-11.546,-54.68Z"/><path d="M1384.15,299.386l-53.524,-4.068l1.112,39.589l35.392,8.033l17.02,-43.554Z"/><path d="M1370.23,251.578l19.686,-5.428l12.468,30.7l-20.134,11.063l-12.02,-36.335Z"/><path d="M1195.22,19.342l48.642,-16.692l5.454,15.406l-2.543,25.827l-36.736,24.404l-14.817,-48.945Z"/></g></svg>