<?xml version="1.0" encoding="UTF-8" standalone="no"?>
<!DOCTYPE svg PUBLIC "-//W3C//DTD SVG 1.1//EN" "http://www.w3.org/Graphics/SVG/1.1/DTD/svg11.dtd">
<svg width="100%" height="100%" viewBox="0 0 641 394" version="1.1" xmlns="http://www.w3.org/2000/svg" xmlns:xlink="http://www.w3.org/1999/xlink" xml:space="preserve" xmlns:serif="http://www.serif.com/" style="fill-rule:evenodd;clip-rule:evenodd;stroke-linejoin:round;stroke-miterlimit:2;">
    <g transform="matrix(1,0,0,1,-183,-110)">
        <g transform="matrix(0.999829,0.0185101,-0.0185101,0.999829,33.6237,-72.364)">
            <g id="屋根" transform="matrix(1,0,0,1,455.751,512.073)">
                <path d="M2.207,-328.928C-38.78,-328.859 -73.37,-295.902 -114.044,-222.072C-123.859,-210.856 -145.802,-226.172 -160.76,-177.207C-160.76,-177.207 -205.689,-175.725 -224.629,-117.544C-255.283,-109.246 -271.127,-62.288 -271.127,-62.288C-310.108,1.147 -271.938,20.759 -246.106,4.355C-210.934,4.355 -195.361,-63.114 -174.305,-52.235C-173.578,-52.235 -124.948,-28.449 -113.566,-74.76C-73.947,-62.728 -71.331,-84.335 -70.46,-84.698C-54.161,-84.698 -69.039,-138.313 -33.785,-122.376C-10.717,-124.286 -18.691,-184.313 1.384,-183.945C21.506,-188.379 15.28,-101.517 49.45,-122.422C78.087,-138.638 63.293,-58.424 110.723,-83.181C163.775,-108.207 140.629,-41.451 183.997,-43.793C244.38,-86.098 199.228,-12.652 235.581,-25.044C285.327,90.008 360.256,35.662 327.115,-39.883C320.735,-79.936 304.183,-101.121 259.851,-124.816C216.816,-141.083 203.583,-146.563 197.356,-170.029C174.138,-215.916 163.694,-185.282 131.878,-222.484C90.808,-283.955 43.194,-328.996 2.207,-328.928Z" style="fill:white;fill-rule:nonzero;stroke:black;stroke-width:17px;"/>
            </g>
        </g>
    </g>
</svg>
