<?xml version="1.0" encoding="UTF-8" standalone="no"?>
<!DOCTYPE svg PUBLIC "-//W3C//DTD SVG 1.1//EN" "http://www.w3.org/Graphics/SVG/1.1/DTD/svg11.dtd">
<svg width="100%" height="100%" viewBox="0 0 565 319" version="1.1" xmlns="http://www.w3.org/2000/svg" xmlns:xlink="http://www.w3.org/1999/xlink" xml:space="preserve" xmlns:serif="http://www.serif.com/" style="fill-rule:evenodd;clip-rule:evenodd;stroke-linejoin:round;stroke-miterlimit:2;">
    <g transform="matrix(1,0,0,1,-226,-144)">
        <g transform="matrix(0.999829,0.0185101,-0.0185101,0.999829,33.6237,-72.364)">
            <g id="ナッツ的な" transform="matrix(1,0,0,1,-260.972,-274.631)">
                <g transform="matrix(2.83283,1.34002,-0.997216,2.10814,-1080.4,-447.692)">
                    <path d="M616.598,167.028L613.936,167.45L614.133,173.721L617.501,173.48L616.598,167.028Z"/>
                </g>
                <g transform="matrix(4.43851,1.05207,-0.652917,2.75456,-2149.33,-385.604)">
                    <path d="M616.423,167.783L613.465,168.455L613.933,173.724L617.094,172.238L616.423,167.783Z"/>
                </g>
                <g transform="matrix(3.08808,1.89698,-0.995298,1.62024,-1190.86,-733.19)">
                    <path d="M616.923,165.934L613.445,167.545L613.802,175.117L617.514,173.763L616.923,165.934Z"/>
                </g>
                <g transform="matrix(-3.3626,2.06562,1.11539,1.81573,2387.13,-895.677)">
                    <path d="M616.923,165.934L612.787,167.215L613.832,173.025L617.062,173.628L617.771,170.443L616.923,165.934Z"/>
                </g>
                <g transform="matrix(2.58752,-0.676942,0.469065,1.79294,-1134.7,781.693)">
                    <path d="M616.598,167.028L613.936,167.45L614.133,173.721L617.501,173.48L616.598,167.028Z"/>
                </g>
                <g transform="matrix(2.90656,0.540658,-0.226153,1.21579,-1185.7,110.486)">
                    <path d="M616.923,165.934L612.787,167.215L613.802,175.117L617.818,172.987L616.923,165.934Z"/>
                </g>
                <g transform="matrix(-2.735,0.0453514,0.0171397,1.03364,2290.94,482.519)">
                    <path d="M616.923,165.934L612.787,167.215L613.802,175.117L618.619,174.952L616.923,165.934Z"/>
                </g>
                <g transform="matrix(3.34838,-0.875996,0.512051,1.95725,-1526.73,877.719)">
                    <path d="M616.598,167.028L613.936,167.45L614.133,173.721L617.501,173.48L616.598,167.028Z"/>
                </g>
                <g transform="matrix(2.62312,1.61136,-0.69897,1.13785,-865.29,-555.455)">
                    <path d="M616.923,165.934L613.445,167.545L613.802,175.117L617.514,173.763L616.923,165.934Z"/>
                </g>
                <g transform="matrix(-2.41879,0.0401081,0.026744,1.61285,2100.16,283.626)">
                    <path d="M616.923,165.934L612.787,167.215L613.802,175.117L618.619,174.952L616.923,165.934Z"/>
                </g>
                <g transform="matrix(-2.71905,1.67029,0.603719,0.982789,2221.38,-635.329)">
                    <path d="M616.923,165.934L612.787,167.215L613.802,175.117L618.619,174.952L616.923,165.934Z"/>
                </g>
                <g transform="matrix(-1.62825,0.0269993,0.018032,1.08746,1682.5,291.857)">
                    <path d="M616.923,165.934L612.787,167.215L613.802,175.117L618.619,174.952L616.923,165.934Z"/>
                </g>
                <g transform="matrix(-3.36926,2.06971,1.28628,2.09392,2855.72,-842.37)">
                    <path d="M616.923,165.934L612.787,167.215L614.466,174.227L617.099,172.395L616.923,165.934Z"/>
                </g>
                <g transform="matrix(-3.36926,2.06971,1.28628,2.09392,2874.01,-876.316)">
                    <path d="M616.923,165.934L614.005,168.471L614.253,172.737L617.02,171.277L616.923,165.934Z"/>
                </g>
                <g transform="matrix(5.29037,1.25398,-0.391749,1.65273,-2181.65,-331.359)">
                    <path d="M616.923,165.934L614.458,166.507L615.14,174.967L617.92,174.108L616.923,165.934Z"/>
                </g>
                <g transform="matrix(-2.78022,0.0461011,0.0338669,2.04241,2662.28,360.397)">
                    <path d="M616.923,165.934L612.787,167.215L613.802,175.117L617.567,173.013L616.923,165.934Z"/>
                </g>
                <g transform="matrix(-2.78022,0.0461011,0.0338669,2.04241,2679.21,315.764)">
                    <path d="M616.923,165.934L612.787,167.215L613.802,175.117L617.854,172.412L616.923,165.934Z"/>
                </g>
                <g transform="matrix(5.28464,-1.38256,0.648936,2.48047,-2424.48,1100.34)">
                    <path d="M616.092,167.84L613.936,167.45L614.133,173.721L616.284,172.802L616.092,167.84Z"/>
                </g>
                <g transform="matrix(-1.7053,1.04755,0.667743,1.08701,1748.93,-176.949)">
                    <path d="M616.923,165.934L612.787,167.215L613.802,175.117L618.619,174.952L616.923,165.934Z"/>
                </g>
                <g transform="matrix(-2.78022,0.0461011,0.0338669,2.04241,2491.56,257.919)">
                    <path d="M616.923,165.934L612.787,167.215L614.325,172.776L617.358,172.381L616.923,165.934Z"/>
                </g>
                <g transform="matrix(-2.14673,1.31872,0.737955,1.20131,2003.21,-424.656)">
                    <path d="M616.923,165.934L612.787,167.215L613.802,175.117L618.619,174.952L616.923,165.934Z"/>
                </g>
                <g transform="matrix(2.98433,0.707381,-0.40472,1.70745,-983.156,-166.636)">
                    <path d="M616.923,165.934L612.787,167.215L613.642,172.422L616.48,172.283L616.923,165.934Z"/>
                </g>
                <g transform="matrix(-0.974869,0.598854,0.521121,0.848328,1302.18,31.465)">
                    <path d="M616.923,165.934L612.787,167.215L613.802,175.117L618.619,174.952L616.923,165.934Z"/>
                </g>
                <g transform="matrix(-2.4911,1.53026,1.01068,1.64527,2113.32,-730.333)">
                    <path d="M616.923,165.934L612.787,167.215L613.043,169.209L614.299,171.815L617.915,172.111L616.923,165.934Z"/>
                </g>
            </g>
        </g>
    </g>
</svg>
