<?xml version="1.0" encoding="UTF-8" standalone="no"?><!DOCTYPE svg PUBLIC "-//W3C//DTD SVG 1.1//EN" "http://www.w3.org/Graphics/SVG/1.1/DTD/svg11.dtd"><svg width="100%" height="100%" viewBox="0 0 530 384" version="1.1" xmlns="http://www.w3.org/2000/svg" xmlns:xlink="http://www.w3.org/1999/xlink" xml:space="preserve" xmlns:serif="http://www.serif.com/" style="fill-rule:evenodd;clip-rule:evenodd;stroke-linecap:round;stroke-linejoin:round;stroke-miterlimit:1.5;"><g id="ケーキのパール"><path d="M284.78,137.273c7.558,0.14 13.573,6.725 13.426,14.696c-0.148,7.972 -6.403,14.33 -13.961,14.19c-7.557,-0.14 -13.573,-6.725 -13.425,-14.697c0.147,-7.971 6.403,-14.329 13.96,-14.189Z" style="fill:#fff;stroke:#000;stroke-width:18.75px;"/><path d="M352.272,10.136c9.041,0.167 16.242,7.793 16.071,17.018c-0.171,9.226 -7.649,16.58 -16.69,16.412c-9.04,-0.167 -16.241,-7.793 -16.07,-17.018c0.171,-9.226 7.649,-16.579 16.689,-16.412Z" style="fill:#fff;stroke:#000;stroke-width:18.75px;"/><path d="M502.051,255.41c9.041,0.167 16.249,7.398 16.087,16.137c-0.162,8.739 -7.633,15.698 -16.673,15.53c-9.041,-0.167 -16.249,-7.398 -16.087,-16.137c0.162,-8.739 7.633,-15.698 16.673,-15.53Z" style="fill:#fff;stroke:#000;stroke-width:18.75px;"/><path d="M290.137,341.974c7.707,0.143 13.837,7.113 13.681,15.554c-0.156,8.442 -6.54,15.18 -14.247,15.037c-7.708,-0.142 -13.838,-7.112 -13.682,-15.554c0.157,-8.441 6.541,-15.179 14.248,-15.037Z" style="fill:#fff;stroke:#000;stroke-width:18.75px;"/><path d="M124.859,216.123c9.04,0.168 16.224,8.714 16.033,19.073c-0.192,10.359 -7.688,18.633 -16.728,18.466c-9.04,-0.167 -16.224,-8.713 -16.033,-19.073c0.192,-10.359 7.688,-18.633 16.728,-18.466Z" style="fill:#fff;stroke:#000;stroke-width:18.75px;"/><path d="M26.604,262.49c8.881,0.165 15.967,6.984 15.814,15.22c-0.152,8.236 -7.486,14.789 -16.366,14.624c-8.881,-0.164 -15.967,-6.984 -15.814,-15.22c0.152,-8.235 7.486,-14.788 16.366,-14.624Z" style="fill:#fff;stroke:#000;stroke-width:18.75px;"/></g></svg>