<?xml version="1.0" encoding="UTF-8" standalone="no"?>
<!DOCTYPE svg PUBLIC "-//W3C//DTD SVG 1.1//EN" "http://www.w3.org/Graphics/SVG/1.1/DTD/svg11.dtd">
<svg width="100%" height="100%" viewBox="0 0 49 41" version="1.1" xmlns="http://www.w3.org/2000/svg" xmlns:xlink="http://www.w3.org/1999/xlink" xml:space="preserve" xmlns:serif="http://www.serif.com/" style="fill-rule:evenodd;clip-rule:evenodd;stroke-linejoin:round;stroke-miterlimit:2;">
    <g transform="matrix(1,0,0,1,-630,-51)">
        <g transform="matrix(0.999829,0.0185101,-0.0185101,0.999829,62.6742,-56.2514)">
            <g id="ケーキのいちごつぶつぶ8">
                <g transform="matrix(1,0,0,1,513.41,-102.479)">
                    <circle cx="102.242" cy="215.862" r="2.291" style="fill:white;"/>
                </g>
                <g transform="matrix(1,0,0,1,501.262,-116.708)">
                    <circle cx="102.242" cy="215.862" r="2.291" style="fill:white;"/>
                </g>
                <g transform="matrix(1,0,0,1,470,-90)">
                    <circle cx="102.242" cy="215.862" r="2.291" style="fill:white;"/>
                </g>
                <g transform="matrix(1,0,0,1,479.343,-100.425)">
                    <circle cx="102.242" cy="215.862" r="2.291" style="fill:white;"/>
                </g>
                <g transform="matrix(1,0,0,1,493.574,-109.675)">
                    <circle cx="102.242" cy="215.862" r="2.291" style="fill:white;"/>
                </g>
                <g transform="matrix(1,0,0,1,484.509,-91.3325)">
                    <circle cx="102.242" cy="215.862" r="2.291" style="fill:white;"/>
                </g>
                <g transform="matrix(1,0,0,1,495.211,-83.3411)">
                    <circle cx="102.242" cy="215.862" r="2.291" style="fill:white;"/>
                </g>
                <g transform="matrix(1,0,0,1,506.586,-95.7417)">
                    <circle cx="102.242" cy="215.862" r="2.291" style="fill:white;"/>
                </g>
                <g transform="matrix(1,0,0,1,513.073,-81.6286)">
                    <circle cx="102.242" cy="215.862" r="2.291" style="fill:white;"/>
                </g>
            </g>
        </g>
    </g>
</svg>
