<?xml version="1.0" encoding="UTF-8" standalone="no"?>
<!DOCTYPE svg PUBLIC "-//W3C//DTD SVG 1.1//EN" "http://www.w3.org/Graphics/SVG/1.1/DTD/svg11.dtd">
<svg width="100%" height="100%" viewBox="0 0 326 302" version="1.1" xmlns="http://www.w3.org/2000/svg" xmlns:xlink="http://www.w3.org/1999/xlink" xml:space="preserve" xmlns:serif="http://www.serif.com/" style="fill-rule:evenodd;clip-rule:evenodd;stroke-miterlimit:10;">
    <g transform="matrix(1,0,0,1,-486,-9)">
        <g transform="matrix(0.999829,0.0185101,-0.0185101,0.999829,62.6742,-56.2514)">
            <g id="ケーキ3" transform="matrix(0.691586,0.0775996,-0.0776185,0.691755,665.445,213.612)">
                <path d="M0,-0.273C39.866,47.344 -5.894,103.461 -41.999,88.847C-46.743,83.601 -57.455,83.143 -63.511,86.798C-84.059,99.203 -96.389,78.217 -102.437,80.652C-125.646,89.996 -127.981,99.163 -155.704,84.75C-160.872,82.063 -178.713,91.624 -184.386,92.945C-188.231,93.84 -202.252,97.705 -212.044,87.823C-218.056,81.756 -218.934,68.436 -215.117,60.165C-212.582,47.965 -215.981,46.985 -217.166,40.702C-218.331,34.525 -221.006,26.359 -216.729,19.431C-215.297,17.112 -213.617,16.032 -213.068,15.093C-213.068,15.093 -228.434,-13.59 -204.419,-29.655C-201.713,-35.662 -205.608,-52.389 -190.492,-58.665C-185.547,-60.719 -181.73,-64.818 -179.864,-69.837C-168.964,-99.147 -136.619,-96.74 -118.826,-98.612C-88.096,-103.734 -21.958,-61.508 0,-0.273Z" style="fill:white;fill-rule:nonzero;stroke:black;stroke-width:22.99px;"/>
            </g>
        </g>
    </g>
</svg>
