<?xml version="1.0" encoding="UTF-8" standalone="no"?>
<!DOCTYPE svg PUBLIC "-//W3C//DTD SVG 1.1//EN" "http://www.w3.org/Graphics/SVG/1.1/DTD/svg11.dtd">
<svg width="100%" height="100%" viewBox="0 0 118 109" version="1.1" xmlns="http://www.w3.org/2000/svg" xmlns:xlink="http://www.w3.org/1999/xlink" xml:space="preserve" xmlns:serif="http://www.serif.com/" style="fill-rule:evenodd;clip-rule:evenodd;stroke-linejoin:round;stroke-miterlimit:2;">
    <g transform="matrix(1,0,0,1,-584,-112)">
        <g transform="matrix(0.999829,0.0185101,-0.0185101,0.999829,62.6742,-56.2514)">
            <g id="ケーキのチョコ6">
                <g transform="matrix(1.71658,0,0,1.96698,354.659,-176.883)">
                    <circle cx="102.242" cy="215.862" r="2.291"/>
                </g>
                <g transform="matrix(1.71658,0,0,1.96698,369.017,-196.159)">
                    <circle cx="102.242" cy="215.862" r="2.291"/>
                </g>
                <g transform="matrix(1.71658,0,0,1.96698,434.98,-163.44)">
                    <circle cx="102.242" cy="215.862" r="2.291"/>
                </g>
                <g transform="matrix(1.71658,0,0,1.96698,464.079,-165.063)">
                    <circle cx="102.242" cy="215.862" r="2.291"/>
                </g>
                <g transform="matrix(1.71658,0,0,1.96698,433.12,-198.875)">
                    <circle cx="102.242" cy="215.862" r="2.291"/>
                </g>
                <g transform="matrix(1.71658,0,0,1.96698,388.697,-172.366)">
                    <circle cx="102.242" cy="215.862" r="2.291"/>
                </g>
                <g transform="matrix(1.71658,0,0,1.96698,416.787,-262.658)">
                    <circle cx="102.242" cy="215.862" r="2.291"/>
                </g>
                <g transform="matrix(1.71658,0,0,1.96698,444.479,-206.073)">
                    <circle cx="102.242" cy="215.862" r="2.291"/>
                </g>
                <g transform="matrix(1.71658,0,0,1.96698,376.398,-248.636)">
                    <circle cx="102.242" cy="215.862" r="2.291"/>
                </g>
            </g>
        </g>
    </g>
</svg>
