<?xml version="1.0" encoding="UTF-8" standalone="no"?>
<!DOCTYPE svg PUBLIC "-//W3C//DTD SVG 1.1//EN" "http://www.w3.org/Graphics/SVG/1.1/DTD/svg11.dtd">
<svg width="100%" height="100%" viewBox="0 0 187 166" version="1.1" xmlns="http://www.w3.org/2000/svg" xmlns:xlink="http://www.w3.org/1999/xlink" xml:space="preserve" xmlns:serif="http://www.serif.com/" style="fill-rule:evenodd;clip-rule:evenodd;stroke-miterlimit:10;">
    <g transform="matrix(1,0,0,1,-547,-165)">
        <g transform="matrix(0.999829,0.0185101,-0.0185101,0.999829,62.6742,-56.2514)">
            <g id="ケーキのカップ縦しわ2">
                <g transform="matrix(-0.171177,0.674717,0.674548,0.171181,643.057,305.534)">
                    <path d="M-42.356,-36.926L32.193,-36.926" style="fill:none;fill-rule:nonzero;stroke:black;stroke-width:14.37px;"/>
                </g>
                <g transform="matrix(-0.153284,0.679007,0.678837,0.153284,631.021,306.545)">
                    <path d="M-44.241,-39.611L35.466,-39.611" style="fill:none;fill-rule:nonzero;stroke:black;stroke-width:14.37px;"/>
                </g>
                <g transform="matrix(-0.100709,0.688772,0.688603,0.100695,618.484,302.187)">
                    <path d="M-42.759,-41.352L39.991,-41.352" style="fill:none;fill-rule:nonzero;stroke:black;stroke-width:14.37px;"/>
                </g>
                <g transform="matrix(-0.0664642,0.692916,0.692747,0.0664425,608.017,298.585)">
                    <path d="M-41.336,-42.008L42.69,-42.008" style="fill:none;fill-rule:nonzero;stroke:black;stroke-width:14.37px;"/>
                </g>
                <g transform="matrix(-0.0246531,0.695658,0.695491,0.0246214,595.188,292.184)">
                    <path d="M-36.697,-39.611L42.756,-39.611" style="fill:none;fill-rule:nonzero;stroke:black;stroke-width:14.37px;"/>
                </g>
                <g transform="matrix(0.0257677,0.695615,0.695451,-0.0258115,580.102,286.496)">
                    <path d="M-34.116,-39.611L45.992,-39.611" style="fill:none;fill-rule:nonzero;stroke:black;stroke-width:14.37px;"/>
                </g>
                <g transform="matrix(-7.30661e-05,0.696094,0.695928,3.54127e-05,566.73,285.169)">
                    <path d="M-33.126,-37.048L41.434,-37.048" style="fill:none;fill-rule:nonzero;stroke:black;stroke-width:14.37px;"/>
                </g>
            </g>
        </g>
    </g>
</svg>
