<?xml version="1.0" encoding="UTF-8" standalone="no"?>
<!DOCTYPE svg PUBLIC "-//W3C//DTD SVG 1.1//EN" "http://www.w3.org/Graphics/SVG/1.1/DTD/svg11.dtd">
<svg width="100%" height="100%" viewBox="0 0 231 182" version="1.1" xmlns="http://www.w3.org/2000/svg" xmlns:xlink="http://www.w3.org/1999/xlink" xml:space="preserve" xmlns:serif="http://www.serif.com/" style="fill-rule:evenodd;clip-rule:evenodd;stroke-miterlimit:10;">
    <g transform="matrix(1,0,0,1,-534,-72)">
        <g transform="matrix(0.999829,0.0185101,-0.0185101,0.999829,62.6742,-56.2514)">
            <g id="ケーキのクリーム4">
                <g transform="matrix(0.682904,0.134002,0.134007,-0.683074,547.234,152.136)">
                    <path d="M-1.133,-6.182C-1.133,-6.182 29.029,-28.512 46.499,-19.692C84.986,-3.242 87.685,-47.63 148.929,-6.182" style="fill:none;fill-rule:nonzero;stroke:black;stroke-width:10.78px;"/>
                </g>
                <g transform="matrix(0.691586,0.0775996,-0.0776185,0.691755,522.188,211.697)">
                    <path d="M0,-49.169C0,-49.169 33.787,-13.394 75.924,-24.513C119.043,-40.705 133.544,20.042 190.533,-49.169" style="fill:none;fill-rule:nonzero;stroke:black;stroke-width:10.78px;"/>
                </g>
                <g transform="matrix(0.695207,0.0316478,0.0316779,-0.695374,519.855,213.248)">
                    <path d="M1.474,6.602C1.474,6.602 25.22,-22.099 76.321,-14.894C108.999,-11.267 178.563,-66.512 202.692,6.602" style="fill:none;fill-rule:nonzero;stroke:black;stroke-width:10.78px;"/>
                </g>
                <g transform="matrix(0.695283,0.0299294,0.02996,-0.69545,512.788,237.545)">
                    <path d="M0.59,7.654C18.018,20.426 24.741,-16.866 88.046,-13.76C133.162,-18.209 181.871,-47.137 224.43,7.654" style="fill:none;fill-rule:nonzero;stroke:black;stroke-width:10.78px;"/>
                </g>
            </g>
        </g>
    </g>
</svg>
