<?xml version="1.0" encoding="UTF-8" standalone="no"?>
<!DOCTYPE svg PUBLIC "-//W3C//DTD SVG 1.1//EN" "http://www.w3.org/Graphics/SVG/1.1/DTD/svg11.dtd">
<svg width="100%" height="100%" viewBox="0 0 64 65" version="1.1" xmlns="http://www.w3.org/2000/svg" xmlns:xlink="http://www.w3.org/1999/xlink" xml:space="preserve" xmlns:serif="http://www.serif.com/" style="fill-rule:evenodd;clip-rule:evenodd;stroke-linecap:round;stroke-linejoin:round;stroke-miterlimit:1.5;">
    <g transform="matrix(1,0,0,1,-601,-218)">
        <g transform="matrix(0.999829,0.0185101,-0.0185101,0.999829,62.6742,-56.2514)">
            <g id="ケーキの屋根裏扉9">
                <g transform="matrix(0.4442,0.0588438,-0.0491977,0.371384,515.373,220.826)">
                    <path d="M229.471,198.06C226.482,130.153 208.788,90.098 151.43,92.479C89.043,97.398 91.453,187.789 91.453,187.789C91.693,230.912 80.887,257.616 160.252,255.542C220.531,253.856 229.191,254.668 229.471,198.06Z" style="fill:white;"/>
                </g>
                <g transform="matrix(0.407984,0.0540462,-0.0452744,0.341767,520.522,228.739)">
                    <path d="M229.471,198.06C226.482,130.153 208.788,90.098 151.43,92.479C89.043,97.398 91.453,187.789 91.453,187.789C91.693,230.912 80.887,257.616 160.252,255.542C220.531,253.856 229.191,254.668 229.471,198.06Z" style="fill:none;stroke:black;stroke-width:9.22px;stroke-dasharray:27.66,9.22,0,18.44;"/>
                </g>
                <g transform="matrix(0.341217,0.0452015,-0.0389533,0.294051,529.667,240.725)">
                    <path d="M229.471,198.06C226.482,130.153 208.788,90.098 151.43,92.479C89.043,97.398 91.453,187.789 91.453,187.789C91.693,230.912 80.887,257.616 160.252,255.542C220.531,253.856 229.191,254.668 229.471,198.06Z" style="fill:none;stroke:black;stroke-width:7.78px;stroke-dasharray:23.34,23.34,7.78,0;"/>
                </g>
                <g transform="matrix(0.216047,0.02862,-0.0321155,0.242434,546.869,255.815)">
                    <path d="M229.471,198.06C226.482,130.153 208.788,90.098 151.43,92.479C89.043,97.398 91.453,187.789 91.453,187.789C91.693,230.912 80.887,257.616 160.252,255.542C220.531,253.856 229.191,254.668 229.471,198.06Z" style="fill:none;stroke:black;stroke-width:15.11px;stroke-dasharray:30.22,30.22,0,15.11;"/>
                </g>
                <g transform="matrix(0.150238,0.0199022,-0.0213634,0.161268,554.606,278.508)">
                    <path d="M229.471,198.06C226.482,130.153 208.788,90.098 151.43,92.479C89.043,97.398 91.453,187.789 91.453,187.789C91.693,230.912 80.887,257.616 160.252,255.542C220.531,253.856 229.191,254.668 229.471,198.06Z" style="fill:none;stroke:black;stroke-width:22.26px;stroke-dasharray:44.53,44.53,0,22.26;"/>
                </g>
                <g transform="matrix(0.0973995,0.0129026,-0.0127075,0.0959262,560.86,297.625)">
                    <path d="M229.471,198.06C226.482,130.153 208.788,90.098 151.43,92.479C89.043,97.398 91.453,187.789 91.453,187.789C91.693,230.912 80.887,257.616 160.252,255.542C220.531,253.856 229.191,254.668 229.471,198.06Z" style="fill:none;stroke:black;stroke-width:35.89px;stroke-dasharray:71.79,71.79,0,35.89;"/>
                </g>
            </g>
        </g>
    </g>
</svg>
