<svg id="secretSponge" width="303.2" height="274.7" viewBox="0 0 1359 1259" xmlns="http://www.w3.org/2000/svg" fill-rule="evenodd" clip-rule="evenodd" stroke-miterlimit="10"><path d="M991.984 668.554c96.682 151.953-56.023 296.102-154.325 240.477-11.663-16.874-42.289-22.225-61.078-13.995-63.751 27.936-91.296-37.059-109.602-32.335-70.249 18.131-80.415 43.615-154.693-8.276-13.847-9.673-68.743 11.103-85.552 12.766-11.392 1.126-53.16 6.96-77.591-25.147-14.999-19.712-12.506-58.348 1.584-80.697 11.884-34.13 2.481-38.229 1.441-56.744-1.023-18.203-5.638-42.694 9.269-61.007 4.991-6.13 10.228-8.603 12.16-11.097 0 0-33.374-88.274 41.724-125.43 10.043-16.256 5.146-65.827 50.97-78.183 14.992-4.044 27.51-14.395 34.766-28.126 42.38-80.185 134.469-61.082 186.332-59.764 90.282-3.157 264.53 143.187 304.595 327.558z" fill="#b18f6a" fill-rule="nonzero" stroke="#fff" stroke-width="66.67"/></svg>