<?xml version="1.0" encoding="UTF-8" standalone="no"?><!DOCTYPE svg PUBLIC "-//W3C//DTD SVG 1.1//EN" "http://www.w3.org/Graphics/SVG/1.1/DTD/svg11.dtd"><svg width="100%" height="100%" viewBox="0 0 205 171" version="1.1" xmlns="http://www.w3.org/2000/svg" xmlns:xlink="http://www.w3.org/1999/xlink" xml:space="preserve" xmlns:serif="http://www.serif.com/" style="fill-rule:evenodd;clip-rule:evenodd;stroke-linejoin:round;stroke-miterlimit:2;"><g id="ケーキのいちごつぶつぶ"><path d="M192.351,63.409c5.266,0.098 9.463,4.453 9.365,9.719c-0.097,5.267 -4.452,9.463 -9.718,9.366c-5.267,-0.098 -9.464,-4.452 -9.366,-9.719c0.097,-5.266 4.452,-9.463 9.719,-9.366Z" style="fill:#fff;"/><path d="M142.839,3.196c5.267,0.097 9.463,4.452 9.366,9.718c-0.098,5.267 -4.453,9.464 -9.719,9.366c-5.267,-0.097 -9.463,-4.452 -9.366,-9.719c0.098,-5.266 4.453,-9.463 9.719,-9.365Z" style="fill:#fff;"/><path d="M10.544,112.047c5.267,0.097 9.463,4.452 9.366,9.719c-0.098,5.266 -4.452,9.463 -9.719,9.365c-5.266,-0.097 -9.463,-4.452 -9.366,-9.719c0.098,-5.266 4.453,-9.463 9.719,-9.365Z" style="fill:#fff;"/><path d="M50.269,69.339c5.267,0.097 9.464,4.452 9.366,9.719c-0.097,5.266 -4.452,9.463 -9.719,9.365c-5.266,-0.097 -9.463,-4.452 -9.365,-9.718c0.097,-5.267 4.452,-9.464 9.718,-9.366Z" style="fill:#fff;"/><path d="M110.271,31.898c5.266,0.097 9.463,4.452 9.365,9.719c-0.097,5.266 -4.452,9.463 -9.719,9.365c-5.266,-0.097 -9.463,-4.452 -9.365,-9.718c0.097,-5.267 4.452,-9.464 9.719,-9.366Z" style="fill:#fff;"/><path d="M71.093,107.615c5.266,0.097 9.463,4.452 9.366,9.719c-0.098,5.266 -4.453,9.463 -9.719,9.365c-5.267,-0.097 -9.464,-4.452 -9.366,-9.719c0.097,-5.266 4.452,-9.463 9.719,-9.365Z" style="fill:#fff;"/><path d="M115.059,141.732c5.267,0.097 9.463,4.452 9.366,9.719c-0.098,5.266 -4.452,9.463 -9.719,9.365c-5.266,-0.097 -9.463,-4.452 -9.366,-9.719c0.098,-5.266 4.453,-9.463 9.719,-9.365Z" style="fill:#fff;"/><path d="M163.401,90.949c5.266,0.097 9.463,4.452 9.365,9.719c-0.097,5.266 -4.452,9.463 -9.718,9.365c-5.267,-0.097 -9.464,-4.452 -9.366,-9.719c0.097,-5.266 4.452,-9.463 9.719,-9.365Z" style="fill:#fff;"/><path d="M189.338,150.244c5.267,0.097 9.463,4.452 9.366,9.719c-0.098,5.266 -4.453,9.463 -9.719,9.365c-5.267,-0.097 -9.463,-4.452 -9.366,-9.719c0.098,-5.266 4.453,-9.463 9.719,-9.365Z" style="fill:#fff;"/></g></svg>