<?xml version="1.0" encoding="UTF-8" standalone="no"?>
<!DOCTYPE svg PUBLIC "-//W3C//DTD SVG 1.1//EN" "http://www.w3.org/Graphics/SVG/1.1/DTD/svg11.dtd">
<svg width="100%" height="100%" viewBox="0 0 127 92" version="1.1" xmlns="http://www.w3.org/2000/svg" xmlns:xlink="http://www.w3.org/1999/xlink" xml:space="preserve" xmlns:serif="http://www.serif.com/" style="fill-rule:evenodd;clip-rule:evenodd;stroke-linecap:round;stroke-linejoin:round;stroke-miterlimit:1.5;">
    <g transform="matrix(1,0,0,1,-585,-109)">
        <g transform="matrix(0.999829,0.0185101,-0.0185101,0.999829,62.6742,-56.2514)">
            <g id="ケーキのパール7">
                <g transform="matrix(1.43498,0,0,1.51359,447.525,-136.031)">
                    <circle cx="102.242" cy="215.862" r="2.291" style="fill:white;stroke:black;stroke-width:3.05px;"/>
                </g>
                <g transform="matrix(1.71658,0,0,1.7517,434.364,-217.691)">
                    <circle cx="102.242" cy="215.862" r="2.291" style="fill:white;stroke:black;stroke-width:2.59px;"/>
                </g>
                <g transform="matrix(1.71658,0,0,1.65934,471.395,-139.775)">
                    <circle cx="102.242" cy="215.862" r="2.291" style="fill:white;stroke:black;stroke-width:2.67px;"/>
                </g>
                <g transform="matrix(1.46342,0,0,1.60292,446.812,-106.013)">
                    <circle cx="102.242" cy="215.862" r="2.291" style="fill:white;stroke:black;stroke-width:2.93px;"/>
                </g>
                <g transform="matrix(1.71658,0,0,1.96698,380.71,-213.23)">
                    <circle cx="102.242" cy="215.862" r="2.291" style="fill:white;stroke:black;stroke-width:2.44px;"/>
                </g>
                <g transform="matrix(1.68623,0,0,1.56378,360.442,-115.556)">
                    <circle cx="102.242" cy="215.862" r="2.291" style="fill:white;stroke:black;stroke-width:2.77px;"/>
                </g>
            </g>
        </g>
    </g>
</svg>
