<?xml version="1.0" encoding="UTF-8" standalone="no"?>
<!DOCTYPE svg PUBLIC "-//W3C//DTD SVG 1.1//EN" "http://www.w3.org/Graphics/SVG/1.1/DTD/svg11.dtd">
<svg width="100%" height="100%" viewBox="0 0 168 57" version="1.1" xmlns="http://www.w3.org/2000/svg" xmlns:xlink="http://www.w3.org/1999/xlink" xml:space="preserve" xmlns:serif="http://www.serif.com/" style="fill-rule:evenodd;clip-rule:evenodd;stroke-linecap:round;stroke-linejoin:round;stroke-miterlimit:1.5;">
    <g transform="matrix(1,0,0,1,-401,-423)">
        <g transform="matrix(0.999829,0.0185101,-0.0185101,0.999829,33.6237,-72.364)">
            <g id="くるくる">
                <g id="左くるくる" transform="matrix(0.135674,-0.275735,-0.276851,-0.136223,509.618,690.891)">
                    <path d="M315.599,527.625C304.934,522.396 324.505,505.711 328.372,529.689C335.809,558.753 292.681,560.136 288.154,525.834C285.115,505.379 302.989,474.674 329.404,475.278C336.337,474.529 383.907,474.98 364.435,529.72C341.992,567.769 336.251,579.043 334.381,594.344C329.777,621.16 357.222,635.348 377.115,628.775C423.374,606.19 406.016,556.629 383.063,558.934C361.669,565.003 371.539,578.55 376.632,575.089C384.265,559.085 397.434,586.808 370.021,587.948C349.493,582.213 353.912,550.632 381.741,545.047C410.204,539.335 439.677,597.786 394.015,634.709C349.922,661.408 326.579,625.973 323.011,619.424C316.733,608.145 316.145,581.536 343.905,540.806C355.672,528.253 371.046,484.568 330.489,485.789C295.144,487.928 291.851,539.266 309.391,540.184C308.937,541.019 324.709,542.181 315.599,527.625Z" style="stroke:black;stroke-width:12.99px;"/>
                </g>
                <g id="左くるくる1" serif:id="左くるくる" transform="matrix(0.296063,-0.160892,0.160892,0.296063,362.102,470.819)">
                    <path d="M169.172,310.904C167.227,308.729 157.431,241.818 136.774,221.162C125.091,209.479 102.688,205.104 95.156,229.746C89.266,251.45 120.785,264.386 124.949,254.038C125.38,254.489 129.335,245.256 118.344,247.626C112.882,252.921 106.425,237.595 122.251,240.387C141.998,242.119 134.041,268.341 111.606,263.742C98.157,261.204 80.451,243.847 85.009,223.054C88.602,206.664 111.281,186.316 141.622,209.704C166.115,228.584 175.593,305.816 178.161,308.633L169.172,310.904Z" style="stroke:black;stroke-width:4.45px;"/>
                </g>
                <g id="右くるくる" transform="matrix(-0.304864,-0.0860874,-0.0860874,0.304864,546.252,458.593)">
                    <path d="M185.163,301.524C183.218,299.349 157.431,241.818 136.774,221.162C125.091,209.479 102.688,205.104 95.156,229.746C89.266,251.45 120.785,264.386 124.949,254.038C125.38,254.489 129.335,245.256 118.344,247.626C112.882,252.921 106.425,237.595 122.251,240.387C141.998,242.119 134.041,268.341 111.606,263.742C98.157,261.204 80.451,243.847 85.009,223.054C88.602,206.664 111.281,186.316 141.622,209.704C166.115,228.584 194.175,298.507 196.744,301.324L185.163,301.524Z" style="stroke:black;stroke-width:6.31px;"/>
                </g>
                <g id="右くるくる1" serif:id="右くるくる" transform="matrix(-0.179433,-0.253615,0.264542,-0.187164,435.451,706.83)">
                    <path d="M315.599,527.625C304.934,522.396 324.505,505.711 328.372,529.689C335.809,558.753 292.681,560.136 288.154,525.834C285.115,505.379 302.989,474.674 329.404,475.278C336.337,474.529 383.907,474.98 364.435,529.72C341.992,567.769 336.251,579.043 334.381,594.344C329.777,621.16 357.222,635.348 377.115,628.775C423.374,606.19 406.016,556.629 383.063,558.934C361.669,565.003 371.539,578.55 376.632,575.089C384.265,559.085 397.434,586.808 370.021,587.948C349.493,582.213 353.912,550.632 381.741,545.047C410.204,539.335 439.677,597.786 394.015,634.709C349.922,661.408 326.579,625.973 323.011,619.424C316.733,608.145 316.145,581.536 343.905,540.806C355.672,528.253 371.046,484.568 330.489,485.789C295.144,487.928 291.851,539.266 309.391,540.184C308.937,541.019 324.709,542.181 315.599,527.625Z" style="stroke:black;stroke-width:9.45px;"/>
                </g>
            </g>
        </g>
    </g>
</svg>
