<?xml version="1.0" encoding="UTF-8" standalone="no"?><!DOCTYPE svg PUBLIC "-//W3C//DTD SVG 1.1//EN" "http://www.w3.org/Graphics/SVG/1.1/DTD/svg11.dtd"><svg width="100%" height="100%" viewBox="0 0 700 238" version="1.1" xmlns="http://www.w3.org/2000/svg" xmlns:xlink="http://www.w3.org/1999/xlink" xml:space="preserve" xmlns:serif="http://www.serif.com/" style="fill-rule:evenodd;clip-rule:evenodd;stroke-linecap:round;stroke-linejoin:round;stroke-miterlimit:1.5;"><g id="くるくる"><path id="左くるくる" d="M121.125,183.586c-0.278,15.22 30.268,2.767 5.133,-15.754c-28.854,-25.579 -55.728,22.697 -19.182,48.048c21.596,15.504 67.169,13.24 81.971,-17.182c4.921,-7.45 32.305,-61.862 -41.674,-71.932c-56.646,3.14 -72.899,3.037 -91.482,-3.845c-33.346,-10.551 -33.465,-50.144 -14.286,-68.917c52.941,-39.354 99.401,9.588 83.306,34.357c-19.484,20.777 -29.177,1.565 -22.235,-2.194c22.768,0.736 -1.192,-30.578 -18.572,-0.047c-5.485,26.743 33.198,40.31 55.902,11.923c23.221,-29.034 -26.295,-97 -95.271,-66.769c-56.373,34.467 -29.566,81.903 -24.174,89.82c9.208,13.788 39.273,30.125 102.102,22.512c21.247,-6.002 80.189,2.223 55.007,47.667c-23.173,38.972 -83.776,12.489 -74.539,-8.015c-1.22,0.024 6.702,-18.612 17.994,0.328Z" style="stroke:#000;stroke-width:16.67px;"/><path id="左くるくる1" serif:id="左くるくる" d="M353.497,203.116c-3.832,-1.45 -59.356,-78.465 -98.463,-90.825c-22.118,-6.99 -52.86,2.064 -46.29,37.64c6.714,30.852 54.356,26.561 52.844,10.974c0.828,0.282 -0.223,-13.781 -12.381,-3.713c-3.375,10.134 -21.343,-4.779 0.181,-11.547c25.722,-10.627 32.787,27.192 1.859,35.988c-18.397,5.545 -51.693,-4.614 -59.477,-33.469c-6.135,-22.745 8.944,-62.778 61.885,-53.286c42.737,7.663 104.547,97.743 109.57,99.589l-9.728,8.649Z" style="stroke:#000;stroke-width:6.25px;"/><path id="右くるくる" d="M360.391,198.778c3.289,-2.004 57.855,-64.835 91.846,-83.039c19.225,-10.295 49.201,-7.261 49.3,26.75c-0.852,29.673 -45.617,33.971 -46.924,19.306c-0.716,0.405 -2.185,-12.772 10.796,-5.578c4.876,8.778 18.892,-8.118 -2.17,-10.638c-25.61,-5.358 -25.578,30.812 4.524,33.575c17.961,1.932 46.965,-13.23 49.152,-41.242c1.724,-22.08 -19.153,-56.455 -66.424,-38.502c-38.16,14.493 -100.332,92.112 -104.654,94.689l14.554,4.679Z" style="stroke:#000;stroke-width:8.33px;"/><path id="右くるくる1" serif:id="右くるくる" d="M588.177,175.744c1.924,15.388 -30.951,7.107 -6.995,-15.239c27.037,-30.029 59.976,15.085 24.973,45.976c-20.626,18.785 -67.92,22.968 -86.474,-5.765c-5.883,-6.852 -40.008,-58.114 35.284,-78.835c58.819,-4.869 75.587,-7.284 94.032,-16.901c33.291,-15.434 29.154,-55.583 7.333,-71.886c-58.89,-32.365 -101.589,23.846 -82.308,46.665c22.351,18.292 30.291,-2.56 22.719,-5.383c-23.425,3.982 -2.058,-31.164 19.17,-2.687c8.539,26.327 -29.938,45.577 -56.431,20.03c-27.097,-26.129 16.709,-102.059 91.174,-81.22c61.907,26.924 39.336,78.817 34.621,87.608c-8.023,15.284 -37.304,36.118 -102.988,37.331c-22.58,-3.064 -82.547,13.651 -51.66,56.135c28.117,36.209 87.834,0.752 76.091,-18.719c1.262,-0.149 -8.922,-17.913 -18.541,2.89Z" style="stroke:#000;stroke-width:12.5px;"/></g></svg>