<?xml version="1.0" encoding="UTF-8" standalone="no"?>
<!DOCTYPE svg PUBLIC "-//W3C//DTD SVG 1.1//EN" "http://www.w3.org/Graphics/SVG/1.1/DTD/svg11.dtd">
<svg width="100%" height="100%" viewBox="0 0 14 265" version="1.1" xmlns="http://www.w3.org/2000/svg" xmlns:xlink="http://www.w3.org/1999/xlink" xml:space="preserve" xmlns:serif="http://www.serif.com/" style="fill-rule:evenodd;clip-rule:evenodd;stroke-linejoin:round;stroke-miterlimit:2;">
    <g transform="matrix(1,0,0,1,-686,-412)">
        <g transform="matrix(0.999829,0.0185101,-0.0185101,0.999829,33.6237,-72.364)">
            <g id="壁チョコチップ3" transform="matrix(1,0,0,1,304,7)">
                <g transform="matrix(0.591954,0,0,0.591954,176.172,328.53)">
                    <circle cx="325.519" cy="668.03" r="9.233"/>
                </g>
                <g transform="matrix(0.591954,0,0,0.591954,175.937,303.806)">
                    <circle cx="325.519" cy="668.03" r="9.233"/>
                </g>
                <g transform="matrix(0.591954,0,0,0.591954,175.709,281.686)">
                    <circle cx="325.519" cy="668.03" r="9.233"/>
                </g>
                <g transform="matrix(0.591954,0,0,0.591954,176.224,260.508)">
                    <circle cx="325.519" cy="668.03" r="9.233"/>
                </g>
                <g transform="matrix(0.591954,0,0,0.591954,175.774,239.086)">
                    <circle cx="325.519" cy="668.03" r="9.233"/>
                </g>
                <g transform="matrix(0.591954,0,0,0.591954,173.224,203.814)">
                    <circle cx="325.519" cy="668.03" r="9.233"/>
                </g>
                <g transform="matrix(0.591954,0,0,0.591954,173.326,176.606)">
                    <circle cx="325.519" cy="668.03" r="9.233"/>
                </g>
                <g transform="matrix(0.591954,0,0,0.591954,172.014,109.099)">
                    <circle cx="325.519" cy="668.03" r="9.233"/>
                </g>
                <g transform="matrix(0.591954,0,0,0.591954,171.455,76.078)">
                    <circle cx="325.519" cy="668.03" r="9.233"/>
                </g>
            </g>
        </g>
    </g>
</svg>
