<?xml version="1.0" encoding="UTF-8" standalone="no"?><!DOCTYPE svg PUBLIC "-//W3C//DTD SVG 1.1//EN" "http://www.w3.org/Graphics/SVG/1.1/DTD/svg11.dtd"><svg width="100%" height="100%" viewBox="0 0 67 1180" version="1.1" xmlns="http://www.w3.org/2000/svg" xmlns:xlink="http://www.w3.org/1999/xlink" xml:space="preserve" xmlns:serif="http://www.serif.com/" style="fill-rule:evenodd;clip-rule:evenodd;stroke-linejoin:round;stroke-miterlimit:2;"><g id="壁チョコチップ2"><path d="M26.143,1129.59c12.567,0.233 22.58,10.624 22.348,23.19c-0.233,12.567 -10.624,22.58 -23.191,22.348c-12.566,-0.233 -22.579,-10.624 -22.347,-23.191c0.233,-12.566 10.624,-22.579 23.19,-22.347Z"/><path d="M26.816,978.676c12.567,0.233 22.58,10.624 22.347,23.191c-0.232,12.566 -10.623,22.579 -23.19,22.347c-12.566,-0.233 -22.58,-10.624 -22.347,-23.191c0.233,-12.566 10.624,-22.579 23.19,-22.347Z"/><path d="M30.771,879.634c12.566,0.233 22.58,10.624 22.347,23.19c-0.233,12.567 -10.624,22.58 -23.19,22.347c-12.566,-0.232 -22.58,-10.623 -22.347,-23.19c0.232,-12.566 10.624,-22.58 23.19,-22.347Z"/><path d="M31.444,728.719c12.566,0.233 22.58,10.624 22.347,23.19c-0.233,12.567 -10.624,22.58 -23.19,22.348c-12.567,-0.233 -22.58,-10.624 -22.347,-23.191c0.232,-12.566 10.623,-22.579 23.19,-22.347Z"/><path d="M40.644,571.431c12.567,0.232 22.58,10.623 22.347,23.19c-0.232,12.566 -10.624,22.58 -23.19,22.347c-12.566,-0.233 -22.58,-10.624 -22.347,-23.19c0.233,-12.567 10.624,-22.58 23.19,-22.347Z"/><path d="M40.161,490.944c12.566,0.233 22.579,10.624 22.347,23.191c-0.233,12.566 -10.624,22.58 -23.19,22.347c-12.567,-0.233 -22.58,-10.624 -22.348,-23.19c0.233,-12.567 10.624,-22.58 23.191,-22.348Z"/><path d="M28.26,191.751c12.566,0.232 22.58,10.624 22.347,23.19c-0.233,12.566 -10.624,22.58 -23.19,22.347c-12.567,-0.233 -22.58,-10.624 -22.347,-23.19c0.232,-12.566 10.623,-22.58 23.19,-22.347Z"/><path d="M29.643,2.492c12.566,0.232 22.579,10.624 22.347,23.19c-0.233,12.566 -10.624,22.58 -23.191,22.347c-12.566,-0.232 -22.579,-10.624 -22.347,-23.19c0.233,-12.566 10.624,-22.58 23.191,-22.347Z"/></g></svg>