<?xml version="1.0" encoding="UTF-8" standalone="no"?>
<!DOCTYPE svg PUBLIC "-//W3C//DTD SVG 1.1//EN" "http://www.w3.org/Graphics/SVG/1.1/DTD/svg11.dtd">
<svg width="100%" height="100%" viewBox="0 0 16 283" version="1.1" xmlns="http://www.w3.org/2000/svg" xmlns:xlink="http://www.w3.org/1999/xlink" xml:space="preserve" xmlns:serif="http://www.serif.com/" style="fill-rule:evenodd;clip-rule:evenodd;stroke-linejoin:round;stroke-miterlimit:2;">
    <g transform="matrix(1,0,0,1,-382,-382)">
        <g transform="matrix(0.999829,0.0185101,-0.0185101,0.999829,33.6237,-72.364)">
            <g id="壁チョコチップ2">
                <g transform="matrix(0.591954,0,0,0.591954,175.326,328.799)">
                    <circle cx="325.519" cy="668.03" r="9.233"/>
                </g>
                <g transform="matrix(0.591954,0,0,0.591954,174.817,292.583)">
                    <circle cx="325.519" cy="668.03" r="9.233"/>
                </g>
                <g transform="matrix(0.591954,0,0,0.591954,175.326,268.799)">
                    <circle cx="325.519" cy="668.03" r="9.233"/>
                </g>
                <g transform="matrix(0.591954,0,0,0.591954,174.817,232.583)">
                    <circle cx="325.519" cy="668.03" r="9.233"/>
                </g>
                <g transform="matrix(0.591954,0,0,0.591954,176.326,194.799)">
                    <circle cx="325.519" cy="668.03" r="9.233"/>
                </g>
                <g transform="matrix(0.591954,0,0,0.591954,175.852,175.488)">
                    <circle cx="325.519" cy="668.03" r="9.233"/>
                </g>
                <g transform="matrix(0.591954,0,0,0.591954,171.668,103.747)">
                    <circle cx="325.519" cy="668.03" r="9.233"/>
                </g>
                <g transform="matrix(0.591954,0,0,0.591954,171.159,58.326)">
                    <circle cx="325.519" cy="668.03" r="9.233"/>
                </g>
            </g>
        </g>
    </g>
</svg>
