<?xml version="1.0" encoding="UTF-8" standalone="no"?><!DOCTYPE svg PUBLIC "-//W3C//DTD SVG 1.1//EN" "http://www.w3.org/Graphics/SVG/1.1/DTD/svg11.dtd"><svg width="100%" height="100%" viewBox="0 0 446 521" version="1.1" xmlns="http://www.w3.org/2000/svg" xmlns:xlink="http://www.w3.org/1999/xlink" xml:space="preserve" xmlns:serif="http://www.serif.com/" style="fill-rule:evenodd;clip-rule:evenodd;stroke-linecap:round;stroke-linejoin:round;stroke-miterlimit:1.5;"><g id="_1階窓" serif:id="1階窓"><path id="_1階ドア下枠" serif:id="1階ドア下枠" d="M428.905,483.04c1.391,-27.343 -17.619,-37.338 -25.745,-37.393l-352.713,-2.378c-8.126,-0.055 -37.131,0.658 -34.13,33.319c2.93,21.618 25.608,25.518 33.733,25.573l352.713,2.378c8.126,0.055 24.445,-7.746 26.142,-21.499Z" style="stroke:#000;stroke-width:31.25px;"/><path id="_1階ドア右枠" serif:id="1階ドア右枠" d="M406.743,222.912c0.011,-1.653 -1.321,-3.003 -2.973,-3.014l-5.987,-0.04c-1.652,-0.011 -3.002,1.321 -3.013,2.973l-1.69,250.673c-0.012,1.652 1.321,3.002 2.973,3.013l5.986,0.04c1.652,0.012 3.003,-1.321 3.014,-2.973l1.69,-250.672Z" style="stroke:#000;stroke-width:31.25px;"/><path id="_1階ドア左枠" serif:id="1階ドア左枠" d="M62.799,219.69c0.014,-2.154 -1.723,-3.916 -3.878,-3.93l-7.808,-0.053c-2.155,-0.014 -3.916,1.723 -3.93,3.878l-1.678,248.851c-0.015,2.155 1.723,3.916 3.878,3.931l7.808,0.052c2.154,0.015 3.916,-1.723 3.93,-3.877l1.678,-248.852Z" style="stroke:#000;stroke-width:31.25px;"/><path id="_1階窓屋根" serif:id="1階窓屋根" d="M9.215,196.692c7.583,-43.465 46.41,-186.863 205.016,-193.206c158.094,-6.323 237.819,142.66 228.989,189.538c-10.151,52.275 -69.995,42.503 -75.993,13.867c-15.099,-62.752 -45.617,-100.224 -146.456,-99.11c-120.475,1.514 -116.807,83.983 -136.136,111.097c-24.83,34.831 -84.535,30.053 -75.42,-22.186Z"/><path id="_1階窓枠" serif:id="1階窓枠" d="M126.685,400.064c-51.307,-13.805 -50.591,-276.117 95.272,-264.666c31.488,1.424 73.765,-5.203 99.721,38.95c44.22,75.22 48.93,218.17 3.757,226.02c-36.187,8.836 -140.751,15.301 -198.75,-0.304Z" style="fill:#fff;stroke:#000;stroke-width:31.25px;"/><path id="_1階窓格子" serif:id="1階窓格子" d="M221.613,153.948l4.588,238.727" style="fill:none;stroke:#000;stroke-width:41.67px;"/><path id="_1階窓格子1" serif:id="1階窓格子" d="M110.421,289.759c1.25,0.227 20.772,-0.433 48.108,-1.495c69.106,-2.684 188.146,-7.941 188.146,-7.941" style="fill:none;stroke:#000;stroke-width:37.5px;"/></g></svg>