<svg id="window2" width="113.4" height="135.6" viewBox="0 0 475 584" xmlns="http://www.w3.org/2000/svg" fill-rule="evenodd" clip-rule="evenodd" stroke-linecap="round" stroke-linejoin="round" stroke-miterlimit="1.5" fill="#8f5f50"><path d="M442.379 545.983c1.391-27.343-17.619-37.338-25.745-37.392l-352.713-2.378s0 0 0 0c-8.126-.055-37.131.657-34.13 33.318 2.93 21.619 25.608 25.519 33.733 25.573l352.713 2.378c8.126.055 24.445-7.745 26.142-21.499z" stroke="#F0EEE9" stroke-width="31.25" fill="#8f5f50"/><path d="M420.217 285.855a2.994 2.994 0 00-2.973-3.013l-5.987-.041a2.994 2.994 0 00-3.013 2.973l-1.69 250.673a2.995 2.995 0 002.973 3.014l5.986.04a2.995 2.995 0 003.014-2.973l1.69-250.673zM76.273 282.634a3.907 3.907 0 00-3.878-3.931l-7.808-.052a3.905 3.905 0 00-3.93 3.878L58.979 531.38a3.905 3.905 0 003.878 3.93l7.808.053a3.906 3.906 0 003.93-3.878l1.678-248.851z" stroke="#F0EEE9" stroke-width="31.25" fill="#8f5f50"/><path d="M139.88 457.035c-37.271-29.185-21.745-184.061-2.462-160.837 1.078 1.298 61.565.767 58.427-85.41 1.632-75.752-.219-129.538 44.803-133.846 50.686-4.85 42.496 79.485 40.362 136.018-2.179 48.61 20.658 75.161 67.032 78.739 16.671 91.432 22.14 134.576-12.606 163.055-34.234 25.617-176.102 19.033-195.556 2.281z" fill="#8f5f50" stroke="#F0EEE9" stroke-width="31.25"/><path d="M179.976 418.544c-25.161-4.817-23.671-125.518 51.765-124.973 86.981-2.15 85.765 116.703 55.676 124.862-59.521 16.14-103.673 2.225-107.441.111zM223.103 249.036c-7.551-1.446-7.104-37.668 15.534-37.504 26.103-.645 25.738 35.022 16.709 37.471-17.862 4.843-31.112.667-32.243.033zM229.181 196.061c-5.336-1.022-5.02-26.621 10.979-26.506 18.447-.455 18.189 24.752 11.808 26.482-12.624 3.423-21.988.472-22.787.024zM232.608 153.525c-3.553-.681-3.343-17.726 7.31-17.649 12.283-.303 12.111 16.481 7.862 17.633-8.405 2.279-14.64.314-15.172.016z"/><path d="M239.217 50.653c-57.383 4.087-57.321 31.678-57.748 64.754-4.444 98.675-22.549 146.577-75.83 162.182-34.346 9.661-61.175 4.604-81.583-10.117-48.885-41.381-17.801-117.245 52.191-105.179 19.796.999 40.316 17.353 44.154 41.645 12.117 44.886-79.126 72.873-84.077 17.014 4.426-38.278 53.584-32.903 57.185-11.129 2.241 13.549-6.974 25.249-18.807 20.177-7.364-4.579-2.903-10.857-2.365-11.865 1.865-3.491 6.153-9.084-2.376-9.479-15.861-.733-18.106 23.878-4.267 26.617 53.5 3.859 37.067-49.565 2.46-54.768-59.598-9.236-68.455 116.431 37.237 73.525 84.907-51.523 28.798-166.612 39.818-198.4 7.946-22.921 21.929-32.083 26.321-35.385C188.762 3.39 222.896 1.538 240.195 1.259c23.008.374 33.228 1.219 64.809 18.638 13.683 10.36 24.404 29.068 27.287 37.616 14.034 46.171-49.438 146.055 34.766 198.719 105.104 44.327 97.943-81.448 38.226-73.017-34.675 4.737-51.827 57.934 1.721 54.796 13.875-2.551 11.961-27.191-3.908-26.671-8.533.28-4.321 5.93-2.504 9.446.525 1.015 4.9 7.353-2.525 11.832-11.9 4.912-20.957-6.911-18.533-20.429 3.895-21.723 53.12-26.435 57.03 11.899-5.704 55.788-96.561 26.573-83.84-18.145 4.165-24.239 24.904-40.315 44.712-41.047 70.148-11.121 100.207 65.155 50.767 105.874-20.604 14.444-47.499 19.139-81.712 9.015-53.065-16.322-60.89-61.878-64.004-160.604.02-34.396-7.476-72.502-63.27-68.528z" fill="#8f5f50"/></svg>