<?xml version="1.0" encoding="UTF-8" standalone="no"?>
<!DOCTYPE svg PUBLIC "-//W3C//DTD SVG 1.1//EN" "http://www.w3.org/Graphics/SVG/1.1/DTD/svg11.dtd">
<svg width="100%" height="100%" viewBox="0 0 107 125" version="1.1" xmlns="http://www.w3.org/2000/svg" xmlns:xlink="http://www.w3.org/1999/xlink" xml:space="preserve" xmlns:serif="http://www.serif.com/" style="fill-rule:evenodd;clip-rule:evenodd;stroke-linecap:round;stroke-linejoin:round;stroke-miterlimit:1.5;">
    <g transform="matrix(1,0,0,1,-291,-427)">
        <g transform="matrix(0.999829,0.0185101,-0.0185101,0.999829,33.6237,-72.364)">
            <g id="_1階窓" serif:id="1階窓" transform="matrix(0.981084,-0.0115468,0.0115468,0.981084,-127.68,291.549)">
                <g id="_1階ドア下枠" serif:id="1階ドア下枠" transform="matrix(1.19346,0,0,1,30.6744,181.326)">
                    <path d="M397.502,147.699C397.749,141.008 393.839,138.595 392.174,138.595L319.88,138.595C318.215,138.595 312.271,138.817 312.931,146.801C313.561,152.084 318.215,153.001 319.88,153.001L392.174,153.001C393.839,153.001 397.173,151.066 397.502,147.699Z" style="stroke:black;stroke-width:6.94px;"/>
                </g>
                <g id="_1階ドア右枠" serif:id="1階ドア右枠" transform="matrix(0.886483,0,0,1.13034,176.173,130.986)">
                    <path d="M364.421,118.945C364.421,118.587 364.051,118.297 363.595,118.297L361.943,118.297C361.487,118.297 361.117,118.587 361.117,118.945L361.117,173.193C361.117,173.55 361.487,173.84 361.943,173.84L363.595,173.84C364.051,173.84 364.421,173.55 364.421,173.193L364.421,118.945Z" style="stroke:black;stroke-width:7.53px;"/>
                </g>
                <g id="_1階ドア左枠" serif:id="1階ドア左枠" transform="matrix(1.15621,0,0,1.13034,-6.25521,130.542)">
                    <path d="M364.421,119.142C364.421,118.675 364.051,118.297 363.595,118.297L361.943,118.297C361.487,118.297 361.117,118.675 361.117,119.142L361.117,172.996C361.117,173.462 361.487,173.84 361.943,173.84L363.595,173.84C364.051,173.84 364.421,173.462 364.421,172.996L364.421,119.142Z" style="stroke:black;stroke-width:6.69px;"/>
                </g>
                <g id="_1階窓屋根" serif:id="1階窓屋根" transform="matrix(1.01914,0.0119946,-0.0119946,1.01914,133.621,-295.598)">
                    <path d="M269.66,541.671C271.287,531.208 279.967,496.626 317.998,494.399C355.906,492.18 375.698,527.575 373.788,538.863C371.584,551.452 357.181,549.373 355.614,542.528C351.712,527.538 344.222,518.681 320.03,519.397C291.128,520.295 292.375,540.068 287.857,546.66C282.053,555.128 267.705,554.247 269.66,541.671Z"/>
                </g>
                <g id="_1階窓枠" serif:id="1階窓枠" transform="matrix(1.77683,1.66529e-17,-2.71294e-17,1.99052,-351.899,-285.191)">
                    <path d="M440.624,298.625C433.548,296.971 433.403,264.736 453.494,266.022C457.83,266.171 463.644,265.322 467.258,270.726C473.415,279.933 474.196,297.495 467.985,298.497C463.012,299.613 448.623,300.494 440.624,298.625Z" style="fill:white;stroke:black;stroke-width:4.05px;"/>
                </g>
                <g id="_1階窓格子" serif:id="1階窓格子" transform="matrix(1.01914,0.0119946,-0.0119946,1.01914,133.621,-295.598)">
                    <path d="M320.438,530.471L322.599,587.735" style="fill:none;stroke:black;stroke-width:10px;"/>
                </g>
                <g id="_1階窓格子1" serif:id="1階窓格子" transform="matrix(1.01914,0.0119946,-0.0119946,1.01914,132.964,-291.744)">
                    <path d="M294.959,559.765C295.26,559.814 299.942,559.569 306.497,559.193C323.067,558.242 351.609,556.452 351.609,556.452" style="fill:none;stroke:black;stroke-width:9px;"/>
                </g>
            </g>
        </g>
    </g>
</svg>
