<?xml version="1.0" encoding="UTF-8" standalone="no"?>
<!DOCTYPE svg PUBLIC "-//W3C//DTD SVG 1.1//EN" "http://www.w3.org/Graphics/SVG/1.1/DTD/svg11.dtd">
<svg width="100%" height="100%" viewBox="0 0 114 140" version="1.1" xmlns="http://www.w3.org/2000/svg" xmlns:xlink="http://www.w3.org/1999/xlink" xml:space="preserve" xmlns:serif="http://www.serif.com/" style="fill-rule:evenodd;clip-rule:evenodd;stroke-linecap:round;stroke-linejoin:round;stroke-miterlimit:1.5;">
    <g transform="matrix(1,0,0,1,-427,-308)">
        <g transform="matrix(0.999829,0.0185101,-0.0185101,0.999829,33.6237,-72.364)">
            <g id="ドア上ドア" transform="matrix(0.981084,-0.0115468,0.0115468,0.981084,9.60635,185.096)">
                <g id="_2階ドア下枠" serif:id="2階ドア下枠" transform="matrix(1.19346,0,0,1,30.6744,181.326)">
                    <path d="M397.502,147.699C397.749,141.008 393.839,138.595 392.174,138.595L319.88,138.595C319.88,138.595 319.88,138.595 319.88,138.595C318.215,138.595 312.271,138.817 312.931,146.801C313.561,152.084 318.215,153.001 319.88,153.001L392.174,153.001C393.839,153.001 397.173,151.066 397.502,147.699Z" style="stroke:black;stroke-width:6.94px;"/>
                </g>
                <g id="_2階ドア右枠" serif:id="2階ドア右枠" transform="matrix(0.886483,0,0,1.13034,176.173,130.986)">
                    <path d="M364.421,118.945C364.421,118.587 364.051,118.297 363.595,118.297L361.943,118.297C361.487,118.297 361.117,118.587 361.117,118.945L361.117,173.193C361.117,173.55 361.487,173.84 361.943,173.84L363.595,173.84C364.051,173.84 364.421,173.55 364.421,173.193L364.421,118.945Z" style="stroke:black;stroke-width:7.53px;"/>
                </g>
                <g id="_2階ドア左枠" serif:id="2階ドア左枠" transform="matrix(1.15621,0,0,1.13034,-6.25521,130.542)">
                    <path d="M364.421,119.142C364.421,118.675 364.051,118.297 363.595,118.297L361.943,118.297C361.487,118.297 361.117,118.675 361.117,119.142L361.117,172.996C361.117,173.462 361.487,173.84 361.943,173.84L363.595,173.84C364.051,173.84 364.421,173.462 364.421,172.996L364.421,119.142Z" style="stroke:black;stroke-width:6.69px;"/>
                </g>
                <path id="_2階ドア真ん中模様" serif:id="2階ドア真ん中模様" d="M430.937,307.767C421.772,300.689 425.314,262.78 430.069,268.429C430.335,268.745 445.13,268.515 444.22,247.441C444.494,228.909 443.953,215.756 454.958,214.628C467.348,213.358 465.484,234 465.055,247.832C464.602,259.726 470.232,266.183 481.582,266.981C485.81,289.319 487.219,299.863 478.767,306.886C470.435,313.209 435.723,311.832 430.937,307.767Z" style="fill:none;stroke:black;stroke-width:7.64px;"/>
                <path id="_2階ドア4番目ドア" serif:id="2階ドア4番目ドア" d="M440.681,298.286C434.518,297.149 434.684,267.622 453.137,267.631C474.409,266.962 474.308,296.036 466.961,298.081C452.429,302.127 441.606,298.796 440.681,298.286Z"/>
                <g id="_2階ドア3番目ドア" serif:id="2階ドア3番目ドア" transform="matrix(0.300098,0,0,0.300098,318.703,167.237)">
                    <path d="M440.681,298.286C434.518,297.149 434.684,267.622 453.137,267.631C474.409,266.962 474.308,296.036 466.961,298.081C452.429,302.127 441.606,298.796 440.681,298.286Z"/>
                </g>
                <g id="_2階ドア2番目ドア" serif:id="2階ドア2番目ドア" transform="matrix(0.212086,0,0,0.212086,358.888,180.522)">
                    <path d="M440.681,298.286C434.518,297.149 434.684,267.622 453.137,267.631C474.409,266.962 474.308,296.036 466.961,298.081C452.429,302.127 441.606,298.796 440.681,298.286Z"/>
                </g>
                <g id="_2階ドア1番目ドア" serif:id="2階ドア1番目ドア" transform="matrix(0.141216,0,0,0.141216,390.887,191.251)">
                    <path d="M440.681,298.286C434.518,297.149 434.684,267.622 453.137,267.631C474.409,266.962 474.308,296.036 466.961,298.081C452.429,302.127 441.606,298.796 440.681,298.286Z"/>
                </g>
                <g id="_2階ドア上くるくる" serif:id="2階ドア上くるくる" transform="matrix(0.525124,0,0,0.475488,369.543,148.827)">
                    <path d="M161.909,124.866C135.192,127.168 135.308,141.362 135.213,158.378C133.452,209.155 125.17,233.86 100.4,242.072C84.432,247.162 71.919,244.653 62.367,237.151C39.466,216.033 53.707,176.898 86.347,182.863C95.571,183.308 105.181,191.65 107.045,204.133C112.83,227.182 70.417,241.896 67.935,213.177C69.877,193.47 92.791,196.065 94.537,207.254C95.624,214.216 91.368,220.267 85.84,217.699C82.396,215.369 84.454,212.124 84.701,211.603C85.559,209.801 87.539,206.909 83.565,206.735C76.174,206.413 75.206,219.081 81.661,220.442C106.594,222.242 98.771,194.816 82.635,192.26C54.845,187.715 51.114,252.393 100.211,229.954C139.599,203.154 113.102,144.144 118.135,127.753C121.764,115.934 128.249,111.173 130.284,109.459C138.258,100.728 154.152,99.657 162.209,99.453C172.928,99.566 177.691,99.965 192.456,108.817C198.862,114.099 203.915,123.686 205.284,128.073C211.966,151.776 182.715,203.38 222.103,230.179C271.2,252.618 267.469,187.94 239.679,192.485C223.542,195.041 215.72,222.467 240.653,220.667C247.108,219.307 246.139,206.638 238.749,206.96C234.775,207.134 236.755,210.026 237.612,211.829C237.86,212.349 239.918,215.594 236.473,217.924C230.945,220.492 226.69,214.441 227.776,207.479C229.522,196.29 252.437,193.696 254.378,213.402C251.897,242.121 209.483,227.407 215.268,204.358C217.132,191.875 226.742,183.533 235.966,183.088C268.607,177.124 282.848,216.258 259.947,237.376C250.394,244.878 237.881,247.387 221.913,242.298C197.144,234.085 193.356,210.677 191.595,159.9C191.497,142.206 187.885,122.629 161.909,124.866Z"/>
                </g>
            </g>
        </g>
    </g>
</svg>
