<svg viewBox="0 0 509 84" xmlns="http://www.w3.org/2000/svg" fill-rule="evenodd" clip-rule="evenodd" stroke-linejoin="round" stroke-miterlimit="2"><path d="M460.492 25.369c.072-12.568 10.334-22.714 22.902-22.643 12.568.072 22.714 10.334 22.643 22.902-.072 12.568-10.333 22.714-22.902 22.643-12.568-.072-22.714-10.333-22.643-22.902zM350.128 49.34c.072-12.568 10.333-22.714 22.902-22.643 12.568.072 22.714 10.334 22.643 22.902-.072 12.568-10.334 22.714-22.902 22.643-12.568-.071-22.714-10.333-22.643-22.902zM269.04 50.991c.071-12.568 10.333-22.714 22.901-22.643 12.569.072 22.714 10.334 22.643 22.902-.071 12.568-10.333 22.714-22.901 22.643-12.569-.072-22.715-10.333-22.643-22.902zM177.179 49.717c.072-12.568 10.333-22.714 22.902-22.642 12.568.071 22.714 10.333 22.643 22.901-.072 12.568-10.334 22.714-22.902 22.643-12.568-.071-22.714-10.333-22.643-22.902zM83.302 54.971c.071-12.569 10.333-22.715 22.901-22.643 12.569.071 22.715 10.333 22.643 22.901-.071 12.569-10.333 22.715-22.901 22.643-12.569-.071-22.715-10.333-22.643-22.901zM1.565 57.64c.071-12.568 10.333-22.714 22.901-22.643 12.569.072 22.715 10.334 22.643 22.902-.071 12.568-10.333 22.714-22.901 22.643C11.639 80.471 1.493 70.209 1.565 57.64z"/></svg>