<svg viewBox="0 0 830 875" xmlns="http://www.w3.org/2000/svg" fill-rule="evenodd" clip-rule="evenodd" stroke-linejoin="round" stroke-miterlimit="2"><g fill-rule="nonzero"><path d="M125.623 381.759c-53.071-6.016-91.445-51.889-85.712-102.46 5.733-50.572 53.401-86.69 106.472-80.674 53.071 6.017 91.445 51.889 85.712 102.46-5.733 50.572-53.401 86.69-106.472 80.674"/><path d="M89.962 550.339c-53.071-6.017-91.425-52.067-85.667-102.858 5.758-50.792 53.446-87.088 106.517-81.072 53.071 6.016 91.424 52.066 85.667 102.858-5.758 50.791-53.447 87.088-106.517 81.072"/><path d="M103.602 707.534c-53.071-6.016-91.448-51.861-85.719-102.399 5.729-50.538 53.395-86.63 106.466-80.614 53.07 6.017 91.447 51.862 85.718 102.4-5.729 50.538-53.394 86.63-106.465 80.613"/><path d="M223.858 772.388c2.957 53.328-37.876 98.956-91.204 101.913-53.329 2.958-98.957-37.875-101.914-91.204-2.958-53.329 37.875-98.956 91.204-101.914 53.329-2.957 98.956 37.876 101.914 91.205M819.376 763.203c2.886 52.038-38.005 96.619-91.333 99.577-53.329 2.957-98.899-36.829-101.785-88.867-2.885-52.038 38.006-96.619 91.334-99.577 53.329-2.957 98.899 36.829 101.784 88.867"/><path d="M738.805 688.701c-52.994 6.654-101.244-30.085-107.771-82.061-6.526-51.976 31.142-99.504 84.137-106.158 52.994-6.655 101.244 30.084 107.771 82.06 6.526 51.976-31.142 99.504-84.137 106.159"/><path d="M740.595 522.983c-52.995 6.654-101.24-30.046-107.76-81.973-6.521-51.926 31.153-99.415 84.148-106.069 52.994-6.655 101.239 30.045 107.76 81.972 6.52 51.927-31.154 99.415-84.148 106.07"/><path d="M737.814 353.22c-46.301 5.814-88.76-28.696-94.836-77.081-6.076-48.386 26.533-92.322 72.834-98.136 46.302-5.814 88.761 28.696 94.837 77.082 6.075 48.385-26.533 92.321-72.835 98.135"/><path d="M657.308 245.076c-52.995 6.654-101.458-31.787-108.249-85.863-6.79-54.075 30.665-103.305 83.66-109.96 52.994-6.654 101.458 31.787 108.248 85.863 6.79 54.075-30.665 103.305-83.659 109.96"/><path d="M582.217 84.395c.659 45.703-36.843 83.301-83.764 83.977-46.921.676-85.49-35.826-86.149-81.53-.658-45.704 36.844-83.301 83.765-83.977 46.92-.676 85.49 35.826 86.148 81.53"/><path d="M428.272 79.302c.639 44.407-37.948 80.968-86.188 81.663-48.241.695-87.865-34.74-88.504-79.146C252.94 37.412 291.527.851 339.767.156c48.241-.695 87.865 34.74 88.505 79.146"/><path d="M276.483 134.492c.714 49.555-42 90.35-95.405 91.12-53.405.769-97.276-38.779-97.99-88.334-.714-49.556 42-90.351 95.405-91.12 53.405-.77 97.276 38.778 97.99 88.334"/></g></svg>