<svg viewBox="0 0 76 120" xmlns="http://www.w3.org/2000/svg" fill-rule="evenodd" clip-rule="evenodd" stroke-linecap="round" stroke-linejoin="round" stroke-miterlimit="1.5"><circle cx="51.923" cy="454.788" r="14.615" stroke="#000" stroke-width="3.03" transform="rotate(9.033 1244.606 208.718) scale(.66033)"/><path d="M23.777 100.481c10.261-18.607 36.065-50.608 91.371-52.218 59.706-1.639 96.314 25.381 113.43 41.679 85.473 99.871-56.238 159.096-93.723 173.441-52.524 20.1 21.923 63.495-1.132 93.873-4.424 6.087-57.51 22.92-62.502-28.364-2.709-27.834 10.873-76.139 49.446-94.324 31.496-14.849 70.024-20.609 82.953-74.949 4.135-34.974-24.133-68.543-81.051-68.625-72.572-2.007-82.574 67.296-40.99 79.757 25.849 6.034 16.881-22.085 25.575-28.612 14.249-14.922 44.134 1.283 38.358 25.026-4.222 36.022-79.971 47.279-109.27 23.345-35.499-24.1-23.619-69.864-12.465-90.029z" stroke="#000" stroke-width="6.76" transform="matrix(.29968 -.00343 .00334 .29203 -2.38 -12.425)"/></svg>