<svg viewBox="0 0 155 155" xmlns="http://www.w3.org/2000/svg" fill-rule="evenodd" clip-rule="evenodd" stroke-linejoin="round" stroke-miterlimit="2"><path d="M83.341 52.037c10.384 7.403 27.599 5.233 33.605-10.571 2.602-6.53 7.563-19.863-12.119-30.404-11.208-6.085-24.393-2.858-29.887 8.044-6.086 11.208-.302 26.727 8.401 32.931z"/><path d="M96.83 27.92c1.128.804 2.959.589 3.5-1.182.422-.894-.004-2.584-1.234-3.246-1.218-.662-2.581-.334-3.178.85-.661 1.218-.033 2.904.912 3.578z" fill="#fff"/><path d="M138.241 72.77c4.783 12.657-5.47 30.588-23.036 36.787-6.545 3.723-25.135 6.285-25.135 6.285s25.321-44.036 34.887-62.125c4.399-8.834 4.466-12.874 4.659-15.247-.947-5.798-9.195-8.551-8.11-6.388-.021 3.008 2.517.259 3.773 6.335 2.619 6.679-39.511 75.952-39.511 75.952s-.896-.738-1.163-.276c-.895.636-17.264 32.381-17.264 32.381-.252.551-1.16 2.426-.458 3.798.747 1.423 4.071 4.076 5.646 2.862 1.508-1.197 4.713-10.28 5.083-10.345 1.879-1.492 9.578-2.729 9.578-2.729s3.651-.801 11.12-1.949c27.624-.502 39.224-15.808 47.71-32.829 3.673-8.694 6.376-17.896 2.9-26.414-2.396-6.294-11.142-15.757-16.384-15.231-.196 1.439 3.419 1.892 5.705 9.133zM25.104 46.1c9.928 8.007 27.24 6.862 34.173-8.558 2.985-6.364 8.729-19.379-10.293-31.069-10.827-6.74-24.18-4.301-30.312 6.256-6.74 10.827-1.887 26.662 6.432 33.371z"/><path d="M40.001 22.826c1.079.87 2.918.764 3.564-.972.474-.868.15-2.579-1.039-3.314-1.177-.732-2.557-.486-3.223.661-.733 1.176-.205 2.896.698 3.625z" fill="#fff"/><path d="M78.678 70.054c4.023 12.919-7.275 30.21-25.179 35.356-6.754 3.328-25.463 4.782-25.463 4.782s27.89-42.456 38.512-59.945c4.915-8.557 5.222-12.587 5.555-14.944-.602-5.844-8.671-9.081-7.716-6.858-.2 3.002 2.497.408 3.39 6.548 2.218 6.823-43.948 73.474-43.948 73.474s-.85-.79-1.145-.345c-.93.582-19.155 31.3-19.155 31.3-.283.535-1.301 2.353-.682 3.764.661 1.465 3.822 4.31 5.466 3.192 1.576-1.105 5.315-9.982 5.688-10.025 1.964-1.379 9.723-2.156 9.723-2.156s3.692-.583 11.216-1.286c27.605 1.138 40.093-13.453 49.574-29.941 4.182-8.46 7.427-17.486 4.462-26.194-2.018-6.426-10.187-16.391-15.451-16.177-.281 1.425 3.3 2.091 5.153 9.455z"/></svg>