<svg viewBox="0 0 88 109" xmlns="http://www.w3.org/2000/svg" fill-rule="evenodd" clip-rule="evenodd" stroke-linejoin="round" stroke-miterlimit="2"><path d="M22.491 70.381c9.726-.06 19.51 8.848 16.32 21.341-1.242 5.214-3.999 15.708-20.901 13.644-9.661-1.123-16.468-8.922-15.111-18.132 1.123-9.662 11.541-16.802 19.692-16.853z"/><path d="M20.321 91.343c1.056-.007 2.103.931 1.664 2.273-.13.743-1.136 1.61-2.195 1.483-1.049-.122-1.756-.925-1.609-1.925.122-1.05 1.254-1.826 2.14-1.831z" fill="#fff"/><path d="M65.831 81.543c8.538-5.796 10.012-21.478 1.776-33.054-2.448-5.194-12.918-14.95-12.918-14.95s-3.532 38.577-5.505 54.058c-1.133 7.44-2.864 9.989-3.785 11.554-3.135 3.2-9.487 1.298-7.862.425 1.307-1.885 1.684.943 5.134-2.295 4.564-3.017 8.688-64.711 8.688-64.711s-.882.067-.846-.339c-.279-.789 3.443-27.772 3.443-27.772.084-.454.341-2.022 1.381-2.57 1.09-.56 4.328-.755 4.777.693.415 1.408-1.572 8.48-1.37 8.682.517 1.756 4.777 5.906 4.777 5.906s1.925 2.102 6.08 6.095c17.009 12.436 17.527 27.074 15.35 41.414-1.525 7.034-3.877 13.96-9.783 17.747-4.257 2.874-13.865 4.938-16.903 2.31.509-.984 2.962.32 7.566-3.193z"/></svg>