<svg viewBox="0 0 192 221" xmlns="http://www.w3.org/2000/svg" fill-rule="evenodd" clip-rule="evenodd" stroke-linejoin="round" stroke-miterlimit="2"><path d="M145.465 163.832c14.652 3.635 25.957 20.781 16.374 38.349-3.867 7.368-12.032 22.095-36.663 12.518-14.102-5.39-21.354-19.727-15.784-33.061 5.39-14.101 23.794-20.852 36.073-17.806z"/><path d="M132.97 193.541c1.638-.085 3.328 1.293 2.743 3.405-.147 1.162-1.646 2.578-3.296 2.457-1.636-.114-2.789-1.308-2.632-2.87.114-1.636 1.813-2.92 3.185-2.992z" fill="#fff"/><path d="M42.61 145.318c13.719 5.557 22.319 23.766 10.585 39.493-4.774 6.616-14.739 19.781-37.323 7.075C2.93 184.702-2.124 169.78 5.128 157.608c7.184-12.942 25.985-16.947 37.482-12.29z"/><path d="M19.524 171.398c1.49.603 2.42 2.53 1.023 4.163-.613.97-2.532 1.606-3.948.814-1.406-.78-1.935-2.32-1.147-3.642.781-1.406 2.823-1.841 4.072-1.335z" fill="#fff"/><path d="M84.795 40.511c.44-3.804.681-5.964.681-5.964s-1.816-.289-1.725-1.079c.278-1.249 2.866-26.387 2.866-26.387.188-.881.767-3.926 2.821-4.942 2.155-1.037 8.477-1.257 9.281 1.589.707 2.644 76.084 15.728 83.065 17.231.125-.272.298-.485.529-.621 2.074-1.188 8.365-1.86 9.371.921-.774 7.949-1.453 13.712-1.542 17.074-.107 6.012-9.662 119.211-12.114 149.549-1.539 14.598-4.682 19.721-6.336 22.852-5.822 6.518-18.369 3.383-15.28 1.536 2.377-3.792 3.365 1.686 9.796-4.934 8.197-5.978 11.158-108.058 11.459-118.789-12.264-3.649-82.427-17.859-82.427-17.859l-9.607-2.317c-3.838 33.245-9.558 81.634-12.465 100.575-2.58 14.45-6.082 19.335-7.956 22.34-6.274 6.084-18.564 2.058-15.351.438 2.643-3.612 3.236 1.922 10.124-4.221 6.305-3.939 16.198-76.633 21.618-120.36-1.073-.417-2.047-.896-2.022-1.256-.61-1.542 2.071-19.726 2.071-19.726-.041-4.591-.348-5.323 2.061-5.399.304-.15.67-.228 1.082-.251zm95.49 11.852c-9.977-2.72-90.787-17.875-90.787-17.875s-.273 2.44-.754 6.685c2.02.559 4.118 1.272 5.53 1.32 2.66.593 4.752-.305 14.754 1.453 8.088 1.548 39.973 10.641 48.052 10.814 9.548-.255 21.145 3.458 21.851 3.671.278.083.536.189.777.318.191-2.147.385-4.29.577-6.386z"/></svg>