<svg viewBox="0 0 2671 1642" xmlns="http://www.w3.org/2000/svg" fill-rule="evenodd" clip-rule="evenodd" stroke-linejoin="round" stroke-miterlimit="2"><path d="M1271.3 38.444C1100.544 35.568 953.904 170.2 778.765 474.632c-41.754 45.969-131.987-19.528-198.077 183.304 0 0-187.286 2.708-270.676 243.627-128.344 32.207-197.971 226.609-197.971 226.609-167.287 261.259-9.786 345.907 99.097 279.559 146.525 2.713 216.603-277.157 303.482-230.215 3.028.056 203.784 102.901 254.773-89.153 164.122 53.18 176.688-36.63 180.344-38.075 67.901 1.257 10.054-223.248 155.691-154.137 96.251-6.179 67.66-256.863 151.265-253.78 84.165-16.922 51.533 344.462 195.493 260.009 120.552-65.347 52.734 267.679 252.235 168.201 222.942-100.164 121.368 176.151 302.218 169.74 254.817-171.582 61.05 130.908 213.452 82.085 198.364 483.138 514.708 262.517 382.47-54.756-23.491-167.354-90.812-256.884-273.668-359.017-178.027-71.087-232.735-94.936-256.864-193.173-93.188-192.956-139.06-66.14-268.732-223.576-166.356-259.255-361.242-450.565-531.997-453.44z" fill="#fff" fill-rule="nonzero" stroke="#000" stroke-width="70.83"/></svg>