<svg viewBox="0 0 267 271" xmlns="http://www.w3.org/2000/svg" fill-rule="evenodd" clip-rule="evenodd" stroke-linecap="round" stroke-linejoin="round" stroke-miterlimit="1.5"><path d="M264.298 186.779C274.643 81.139 251.338 14.375 144.9 2.024 28.585-7.816 11.918 132.366 11.918 132.366c-9.629 66.621-35.814 104.816 111.175 123.789 111.668 14.241 127.465 17.914 141.205-69.376z" fill="#fff"/><path d="M254.291 190.538c9.53-97.215-11.858-158.646-109.619-169.983C37.838 11.53 22.493 140.532 22.493 140.532c-8.863 61.309-32.924 96.463 102.082 113.883 102.564 13.075 117.072 16.451 129.716-63.877z" fill="none" stroke="#000" stroke-width="14.58" stroke-dasharray="43.75,14.58,0,29.17"/><path d="M233.738 192.265c8.322-83.624-9.359-136.369-91.134-145.769-89.376-7.38-102.677 103.596-102.677 103.596-7.635 52.747-27.896 83.06 85.026 97.559 85.789 10.877 97.919 13.729 108.785-55.386z" fill="none" stroke="#000" stroke-width="10.42" stroke-dasharray="31.25,31.25,10.42,0"/><path d="M191.302 195.903c7.672-68.822-2.106-111.582-53.967-116.977-56.764-3.523-68.384 87.873-68.384 87.873-6.36 43.479-20.133 68.914 51.439 77.61 54.378 6.493 62.029 8.488 70.912-48.506z" fill="none" stroke="#000" stroke-width="14.58" stroke-dasharray="29.17,29.17,0,14.58"/><path d="M169.138 214.735c5.022-45.793-1.962-74.31-38.015-78.134-39.451-2.599-47.115 58.208-47.115 58.208-4.224 28.923-13.679 45.798 36.082 51.908 37.806 4.566 43.131 5.929 49.048-31.982z" fill="none" stroke="#000" stroke-width="14.58" stroke-dasharray="29.17,29.17,0,14.58"/><path d="M151.47 233.447c2.887-27.254-1.857-44.306-25.218-46.87-25.549-1.862-30.027 34.32-30.027 34.32-2.505 17.205-8.49 27.189 23.759 31.224 24.501 3.021 27.957 3.875 31.486-18.674z" fill="none" stroke="#000" stroke-width="14.58" stroke-dasharray="29.17,29.17,0,14.58"/></svg>