<svg viewBox="0 0 530 384" xmlns="http://www.w3.org/2000/svg" fill-rule="evenodd" clip-rule="evenodd" stroke-linecap="round" stroke-linejoin="round" stroke-miterlimit="1.5"><g fill="#fff" stroke="#000" stroke-width="18.75"><path d="M284.78 137.273c7.558.14 13.573 6.725 13.426 14.696-.148 7.972-6.403 14.33-13.961 14.19-7.557-.14-13.573-6.725-13.425-14.697.147-7.971 6.403-14.329 13.96-14.189zM352.272 10.136c9.041.167 16.242 7.793 16.071 17.018-.171 9.226-7.649 16.58-16.69 16.412-9.04-.167-16.241-7.793-16.07-17.018.171-9.226 7.649-16.579 16.689-16.412zM502.051 255.41c9.041.167 16.249 7.398 16.087 16.137-.162 8.739-7.633 15.698-16.673 15.53-9.041-.167-16.249-7.398-16.087-16.137.162-8.739 7.633-15.698 16.673-15.53zM290.137 341.974c7.707.143 13.837 7.113 13.681 15.554-.156 8.442-6.54 15.18-14.247 15.037-7.708-.142-13.838-7.112-13.682-15.554.157-8.441 6.541-15.179 14.248-15.037zM124.859 216.123c9.04.168 16.224 8.714 16.033 19.073-.192 10.359-7.688 18.633-16.728 18.466-9.04-.167-16.224-8.713-16.033-19.073.192-10.359 7.688-18.633 16.728-18.466zM26.604 262.49c8.881.165 15.967 6.984 15.814 15.22-.152 8.236-7.486 14.789-16.366 14.624-8.881-.164-15.967-6.984-15.814-15.22.152-8.235 7.486-14.788 16.366-14.624z"/></g></svg>