<svg viewBox="0 0 492 455" xmlns="http://www.w3.org/2000/svg" fill-rule="evenodd" clip-rule="evenodd" stroke-linejoin="round" stroke-miterlimit="2"><path d="M17.697 353.037c9.04.167 16.224 8.713 16.032 19.072-.191 10.359-7.687 18.634-16.727 18.467-9.041-.168-16.225-8.714-16.033-19.073.192-10.359 7.687-18.634 16.728-18.466zM78.999 273.841c9.04.168 16.224 8.714 16.032 19.073-.191 10.359-7.687 18.633-16.727 18.466-9.041-.167-16.225-8.714-16.033-19.073.192-10.359 7.687-18.633 16.728-18.466zM351.273 415.233c9.04.167 16.224 8.713 16.032 19.072-.191 10.36-7.687 18.634-16.727 18.467-9.041-.168-16.225-8.714-16.033-19.073.192-10.359 7.687-18.634 16.728-18.466zM472.624 410.717c9.04.167 16.224 8.714 16.032 19.073-.191 10.359-7.687 18.633-16.727 18.466-9.041-.167-16.224-8.714-16.033-19.073.192-10.359 7.687-18.633 16.728-18.466zM346.259 267.469c9.04.167 16.224 8.714 16.032 19.073-.191 10.359-7.687 18.633-16.727 18.466-9.041-.167-16.225-8.714-16.033-19.073.192-10.359 7.687-18.633 16.728-18.466zM159.151 374.48c9.041.167 16.224 8.713 16.033 19.073-.192 10.359-7.687 18.633-16.728 18.466-9.04-.168-16.224-8.714-16.032-19.073.191-10.359 7.687-18.634 16.727-18.466zM283.134.495c9.04.167 16.224 8.713 16.032 19.072-.192 10.359-7.687 18.634-16.727 18.466-9.041-.167-16.225-8.713-16.033-19.072.192-10.359 7.687-18.634 16.728-18.466zM394.135 238.361c9.04.167 16.224 8.713 16.032 19.072-.192 10.359-7.687 18.634-16.727 18.467-9.041-.168-16.225-8.714-16.033-19.073.192-10.359 7.687-18.634 16.728-18.466zM113.796 55.792c9.04.168 16.224 8.714 16.033 19.073-.192 10.359-7.688 18.634-16.728 18.466-9.04-.167-16.224-8.713-16.033-19.072.192-10.359 7.688-18.634 16.728-18.467z"/></svg>