<svg viewBox="0 0 59 1105" xmlns="http://www.w3.org/2000/svg" fill-rule="evenodd" clip-rule="evenodd" stroke-linejoin="round" stroke-miterlimit="2"><path d="M28.932 1056.14c12.566.232 22.58 10.623 22.347 23.19-.232 12.566-10.624 22.58-23.19 22.347-12.566-.233-22.58-10.624-22.347-23.19.232-12.567 10.624-22.58 23.19-22.347zM29.858 953.126c12.566.232 22.58 10.624 22.347 23.19-.233 12.566-10.624 22.58-23.19 22.347-12.567-.233-22.58-10.624-22.347-23.19.232-12.566 10.623-22.58 23.19-22.347zM30.615 860.958c12.566.233 22.579 10.624 22.347 23.19-.233 12.567-10.624 22.58-23.19 22.348-12.567-.233-22.58-10.624-22.348-23.191.233-12.566 10.624-22.579 23.191-22.347zM34.394 772.77c12.566.233 22.579 10.624 22.347 23.19-.233 12.567-10.624 22.58-23.19 22.348-12.567-.233-22.58-10.624-22.348-23.191.233-12.566 10.624-22.579 23.191-22.347zM34.171 683.494c12.566.233 22.58 10.624 22.347 23.191-.233 12.566-10.624 22.579-23.19 22.347-12.567-.233-22.58-10.624-22.347-23.191.232-12.566 10.623-22.579 23.19-22.347zM26.271 536.354c12.566.232 22.58 10.624 22.347 23.19-.232 12.566-10.624 22.58-23.19 22.347-12.566-.233-22.58-10.624-22.347-23.19.233-12.566 10.624-22.58 23.19-22.347zM28.793 423.016c12.566.233 22.579 10.624 22.347 23.19-.233 12.566-10.624 22.58-23.19 22.347-12.567-.232-22.58-10.624-22.348-23.19.233-12.566 10.624-22.58 23.191-22.347zM28.532 141.685c12.567.232 22.58 10.624 22.348 23.19-.233 12.566-10.624 22.58-23.191 22.347-12.566-.232-22.579-10.624-22.347-23.19.233-12.566 10.624-22.58 23.19-22.347zM28.751 4.077c12.566.232 22.579 10.623 22.347 23.19-.233 12.566-10.624 22.58-23.19 22.347-12.567-.233-22.58-10.624-22.348-23.19.233-12.567 10.624-22.58 23.191-22.347z"/></svg>